<svg width="57" height="56" viewBox="0 0 57 56" fill="none" xmlns="http://www.w3.org/2000/svg">
<rect x="0.5" width="56" height="56" rx="28" fill="white"/>
<path d="M28.5 33.3334C30.7091 33.3334 32.5 31.5426 32.5 29.3334C32.5 27.1243 30.7091 25.3334 28.5 25.3334C26.2909 25.3334 24.5 27.1243 24.5 29.3334C24.5 31.5426 26.2909 33.3334 28.5 33.3334Z" stroke="black" stroke-width="2" stroke-linejoin="round"/>
<path d="M16.5 24.0001C16.5 22.5273 17.6939 21.3334 19.1667 21.3334H22.5C23.2364 21.3334 23.8333 20.7365 23.8333 20.0001C23.8333 19.2637 24.4303 18.6667 25.1667 18.6667H31.8333C32.5697 18.6667 33.1667 19.2637 33.1667 20.0001C33.1667 20.7365 33.7636 21.3334 34.5 21.3334H37.8333C39.3061 21.3334 40.5 22.5273 40.5 24.0001V34.6667C40.5 36.1395 39.3061 37.3334 37.8333 37.3334H19.1667C17.6939 37.3334 16.5 36.1395 16.5 34.6667V24.0001Z" stroke="black" stroke-width="2" stroke-linejoin="round"/>
</svg>
