<svg width="513" height="340" viewBox="0 0 513 340" fill="none" xmlns="http://www.w3.org/2000/svg">
<rect x="2.72016" y="2.72016" width="507.877" height="334.259" rx="30.3393" fill="#601DC7" stroke="#A72962" stroke-width="4.55967"/>
<path d="M5 33.0595C5 17.5626 17.5627 5 33.0595 5H492.885V290.155C492.885 305.652 480.322 318.214 464.825 318.214H5V33.0595Z" fill="#8D4FE2"/>
<rect x="60.4191" y="3.24628" width="36.8281" height="14.7312" fill="#2DEEB5" stroke="black" stroke-width="3.50744" stroke-linejoin="round"/>
<rect x="416.07" y="3.24628" width="36.8281" height="14.7312" fill="#2DEEB5" stroke="black" stroke-width="3.50744" stroke-linejoin="round"/>
<path d="M102.161 36.2158C101.674 36.2158 101.209 36.4182 100.877 36.7747L51.4223 89.9124C51.1203 90.2369 50.9523 90.6638 50.9523 91.1072V234.035C50.9523 235.004 51.7375 235.789 52.7061 235.789H459.92C460.888 235.789 461.673 235.004 461.673 234.035V90.9318C461.673 90.4929 461.509 90.0699 461.212 89.7464L412.634 36.7841C412.302 36.4219 411.833 36.2158 411.342 36.2158H102.161Z" fill="#B3E225" stroke="black" stroke-width="3.50744" stroke-linejoin="round"/>
<rect x="81.4658" y="66.3815" width="42.0893" height="42.0893" rx="7.01488" fill="#E79520"/>
<path d="M92.3731 103.419H88.228L100.217 70.7682H104.298L116.287 103.419H112.142L102.385 75.9337H102.13L92.3731 103.419ZM93.9036 90.665H110.612V94.1724H93.9036V90.665Z" fill="#B3E225"/>
<path d="M95.3363 111.596C95.2884 111.192 95.0945 110.879 94.7543 110.655C94.4142 110.432 93.9971 110.321 93.5028 110.321C93.1415 110.321 92.8253 110.379 92.5542 110.496C92.2859 110.613 92.0759 110.774 91.9245 110.978C91.7757 111.183 91.7013 111.415 91.7013 111.676C91.7013 111.894 91.7531 112.081 91.8567 112.238C91.963 112.392 92.0985 112.521 92.2633 112.624C92.428 112.725 92.6007 112.809 92.7814 112.875C92.9621 112.939 93.1282 112.991 93.2796 113.031L94.1087 113.254C94.3212 113.31 94.5577 113.387 94.8181 113.485C95.0812 113.584 95.3323 113.718 95.5714 113.888C95.8132 114.055 96.0125 114.27 96.1693 114.534C96.3261 114.797 96.4044 115.119 96.4044 115.502C96.4044 115.943 96.2889 116.342 96.0577 116.698C95.8292 117.054 95.4944 117.337 95.0533 117.547C94.6148 117.757 94.0821 117.862 93.455 117.862C92.8704 117.862 92.3642 117.767 91.9364 117.579C91.5113 117.39 91.1765 117.127 90.932 116.789C90.6902 116.452 90.5534 116.06 90.5215 115.614H91.5419C91.5684 115.922 91.6721 116.177 91.8527 116.379C92.0361 116.578 92.2673 116.727 92.5463 116.825C92.8279 116.921 93.1308 116.969 93.455 116.969C93.8323 116.969 94.1711 116.908 94.4714 116.785C94.7716 116.661 95.0094 116.488 95.1848 116.267C95.3602 116.044 95.4479 115.784 95.4479 115.486C95.4479 115.215 95.3721 114.995 95.2207 114.825C95.0692 114.654 94.8699 114.516 94.6228 114.41C94.3757 114.304 94.1087 114.211 93.8217 114.131L92.8173 113.844C92.1796 113.661 91.6747 113.399 91.3027 113.059C90.9307 112.719 90.7447 112.274 90.7447 111.724C90.7447 111.267 90.8683 110.868 91.1154 110.528C91.3652 110.185 91.7 109.919 92.1198 109.731C92.5423 109.539 93.0139 109.444 93.5347 109.444C94.0608 109.444 94.5285 109.538 94.9377 109.727C95.3469 109.913 95.6711 110.168 95.9102 110.492C96.152 110.816 96.2796 111.184 96.2928 111.596H95.3363ZM99.0181 109.555V117.718H98.0296V109.555H99.0181ZM103.519 117.718H101V109.555H103.631C104.422 109.555 105.1 109.719 105.663 110.046C106.227 110.37 106.658 110.836 106.959 111.445C107.259 112.05 107.409 112.776 107.409 113.621C107.409 114.471 107.258 115.203 106.955 115.817C106.652 116.428 106.211 116.898 105.631 117.228C105.052 117.555 104.348 117.718 103.519 117.718ZM101.988 116.841H103.455C104.13 116.841 104.689 116.711 105.133 116.451C105.577 116.19 105.908 115.82 106.126 115.339C106.344 114.858 106.452 114.285 106.452 113.621C106.452 112.962 106.345 112.395 106.13 111.919C105.914 111.441 105.593 111.074 105.165 110.819C104.737 110.561 104.205 110.432 103.567 110.432H101.988V116.841ZM109.067 117.718V109.555H113.993V110.432H110.056V113.19H113.738V114.067H110.056V116.841H114.057V117.718H109.067Z" fill="#E79520"/>
<line x1="160.559" y1="77.7822" x2="423.617" y2="77.7822" stroke="#F26522" stroke-width="1.05223" stroke-linecap="round" stroke-dasharray="4.21 4.21"/>
<line x1="136.008" y1="100.928" x2="423.618" y2="100.928" stroke="#F26522" stroke-width="1.05223" stroke-linecap="round" stroke-dasharray="4.21 4.21"/>
<path d="M156.525 65.1552C149.79 64.3134 148.457 71.5855 148.633 75.3268C146.821 72.287 140.39 69.5394 137.409 72.5208C132.828 77.1016 137.468 85.7321 141.618 88.3042C138.578 89.8241 133.867 94.3721 139.338 100.405C144.81 106.438 150.504 101.399 152.666 98.1251C153.193 101.457 155.858 107.525 162.312 105.14C168.766 102.755 166.521 95.1438 164.592 91.6363C165.469 91.8117 174.413 94.0915 174.763 84.0953C175.044 76.0984 165.527 76.4374 160.734 77.6066C162.078 73.9822 163.259 65.997 156.525 65.1552Z" fill="#FF0086"/>
<path d="M150.727 82.5193C155.647 79.0117 160.908 84.7988 157.041 88.6573C153.174 92.5158 145.808 86.0269 150.727 82.5193Z" fill="#FFFF83"/>
<path d="M214.013 68.1107C208.568 64.0597 203.824 69.7309 202.133 73.0728C202.055 69.5347 197.813 63.9753 193.75 65.1004C187.506 66.829 187.29 76.6252 189.635 80.9086C186.241 80.7333 179.9 82.369 181.688 90.3147C183.476 98.2605 190.914 96.6814 194.409 94.8986C193.225 98.0573 192.555 104.651 199.346 105.756C206.137 106.86 207.934 99.1314 207.984 95.1287C208.66 95.7134 215.319 102.105 220.55 93.5791C224.735 86.7587 216.287 82.3641 211.54 81.0194C214.496 78.5282 219.458 72.1616 214.013 68.1107Z" fill="#F26522"/>
<path d="M200.415 80.363C206.424 79.7349 208.15 87.3631 202.884 88.8151C197.618 90.267 194.406 80.9911 200.415 80.363Z" fill="#ED1D24"/>
<path d="M228.878 82.5105C228.24 89.2672 235.549 90.3794 239.283 90.0909C236.3 91.9941 233.748 98.5046 236.818 101.394C241.536 105.835 250.022 100.936 252.467 96.7097C254.078 99.7021 258.767 104.274 264.631 98.6223C270.496 92.9706 265.287 87.432 261.949 85.3691C265.264 84.7424 271.248 81.8944 268.669 75.5158C266.09 69.1372 258.55 71.6113 255.102 73.6456C255.251 72.7639 257.259 63.755 247.257 63.7069C239.255 63.6685 239.882 73.1707 241.196 77.9266C237.533 76.6924 229.515 75.7539 228.878 82.5105Z" fill="#FB0B83"/>
<path d="M246.409 87.7773C242.754 82.9664 248.379 77.5325 252.353 81.281C256.326 85.0296 250.063 92.5882 246.409 87.7773Z" fill="#FFFF83"/>
<path d="M288.003 68.5467C282.164 72.0061 285.565 78.5708 287.995 81.4207C284.701 80.1278 277.935 81.8946 277.405 86.0774C276.589 92.5044 285.543 96.4846 290.399 95.9755C288.928 99.0388 287.989 105.52 296.009 106.937C304.029 108.354 305.444 100.884 305.148 96.971C307.605 99.2826 313.429 102.446 317.069 96.608C320.71 90.7697 314.273 86.1284 310.6 84.5375C311.401 84.139 319.867 80.4628 314.021 72.3464C309.345 65.8533 302.03 71.9505 298.957 75.8108C297.8 72.1224 293.842 65.0872 288.003 68.5467Z" fill="#F26522"/>
<path d="M294.056 85.8212C295.796 80.0354 303.499 81.3873 302.806 86.8059C302.113 92.2246 292.316 91.6069 294.056 85.8212Z" fill="#ED1D24"/>
<path opacity="0.8" d="M327.629 88.6697C328.488 95.4018 335.863 94.884 339.443 93.7836C336.95 96.2948 335.888 103.206 339.517 105.353C345.093 108.65 352.299 102.01 353.758 97.3501C355.986 99.9163 361.563 103.349 366.045 96.5486C370.527 89.7484 364.231 85.4869 360.522 84.2062C363.618 82.8678 368.833 78.7767 364.917 73.1191C361.002 67.4614 354.188 71.5287 351.271 74.2696C351.223 73.3766 351.206 64.1467 341.437 66.2932C333.622 68.0105 336.317 77.1439 338.642 81.496C334.797 81.0952 326.769 81.9377 327.629 88.6697Z" fill="#FB0B83"/>
<path d="M345.886 89.9662C341.265 86.0739 345.562 79.5387 350.261 82.3245C354.96 85.1104 350.507 93.8585 345.886 89.9662Z" fill="#FFFF83"/>
<path d="M391.51 64.5048C384.919 66.1223 386.27 73.3911 387.769 76.8233C384.991 74.6306 378.004 74.3594 376.283 78.2086C373.639 84.1229 381.054 90.5287 385.849 91.4498C383.552 93.9546 380.774 99.8848 388.039 103.567C395.303 107.249 398.823 100.51 399.675 96.6798C401.356 99.6045 406.012 104.321 411.189 99.7895C416.366 95.2578 411.552 88.9494 408.498 86.3616C409.38 86.2125 418.549 85.1495 415.308 75.6866C412.716 68.1163 403.947 71.8302 399.886 74.6334C399.848 70.7679 398.101 62.8873 391.51 64.5048Z" fill="#F26522"/>
<path d="M392.293 82.791C395.636 77.7585 402.617 81.2863 400.382 86.271C398.147 91.2556 388.95 87.8235 392.293 82.791Z" fill="#ED1D24"/>
<rect x="53.0571" y="216.496" width="406.863" height="17.5372" fill="#F5B527"/>
<rect x="60.7725" y="168.445" width="392.132" height="14.0298" fill="#F5B527"/>
<rect x="60.7725" y="154.413" width="392.132" height="14.0298" fill="#FFDF9C"/>
<rect x="60.7725" y="140.384" width="392.132" height="14.0298" fill="#8D4FE2"/>
<rect x="93.3911" y="126.007" width="326.893" height="70.8503" rx="16.1342" fill="#E79520" stroke="#6C0AFF" stroke-width="4.20893"/>
<line x1="155.475" y1="133.725" x2="358.556" y2="133.725" stroke="#B3E225" stroke-width="3.50744" stroke-linecap="round"/>
<line x1="163.893" y1="147.753" x2="349.787" y2="147.753" stroke="#B3E225" stroke-width="3.50744" stroke-linecap="round"/>
<line x1="163.893" y1="175.463" x2="349.787" y2="175.463" stroke="#B3E225" stroke-width="3.50744" stroke-linecap="round"/>
<line x1="171.608" y1="161.434" x2="231.234" y2="161.434" stroke="#B3E225" stroke-width="3.50744" stroke-linecap="round"/>
<line x1="287.355" y1="161.434" x2="341.721" y2="161.434" stroke="#B3E225" stroke-width="3.50744" stroke-linecap="round"/>
<line x1="281.04" y1="169.501" x2="281.04" y2="153.717" stroke="#B3E225" stroke-width="3.50744" stroke-linecap="round"/>
<line x1="272.973" y1="169.501" x2="272.973" y2="153.717" stroke="#B3E225" stroke-width="3.50744" stroke-linecap="round"/>
<line x1="264.906" y1="169.501" x2="264.906" y2="153.717" stroke="#B3E225" stroke-width="3.50744" stroke-linecap="round"/>
<line x1="256.84" y1="169.501" x2="256.84" y2="153.717" stroke="#B3E225" stroke-width="3.50744" stroke-linecap="round"/>
<line x1="248.771" y1="169.501" x2="248.771" y2="153.717" stroke="#B3E225" stroke-width="3.50744" stroke-linecap="round"/>
<line x1="240.707" y1="169.501" x2="240.707" y2="153.717" stroke="#B3E225" stroke-width="3.50744" stroke-linecap="round"/>
<line x1="155.475" y1="189.144" x2="358.556" y2="189.144" stroke="#B3E225" stroke-width="3.50744" stroke-linecap="round"/>
<path d="M213.697 190.543C225.482 163.874 217.906 140.193 212.995 131.969H240.002C228.428 154.005 235.209 182.382 240.002 190.543H213.697Z" fill="#C14596"/>
<circle cx="131.797" cy="161.259" r="27.8841" stroke="#C14596" stroke-width="3.50744"/>
<circle cx="131.797" cy="161.258" r="13.8544" stroke="#C14596" stroke-width="3.50744"/>
<path d="M150.564 159.679C149.596 159.679 148.811 160.464 148.811 161.432C148.811 162.401 149.596 163.186 150.564 163.186V159.679ZM157.93 163.186H159.684V159.679H157.93V163.186ZM150.564 163.186H157.93V159.679H150.564V163.186Z" fill="#C14596"/>
<path d="M143.359 146.813C142.674 147.498 142.674 148.608 143.359 149.293C144.044 149.978 145.154 149.978 145.839 149.293L143.359 146.813ZM151.047 144.085L152.288 142.845L149.807 140.365L148.567 141.605L151.047 144.085ZM145.839 149.293L151.047 144.085L148.567 141.605L143.359 146.813L145.839 149.293Z" fill="#C14596"/>
<path d="M119.131 176.002C119.816 175.317 119.816 174.207 119.131 173.522C118.446 172.837 117.335 172.837 116.651 173.522L119.131 176.002ZM111.442 178.73L110.202 179.97L112.682 182.451L113.922 181.211L111.442 178.73ZM116.651 173.522L111.442 178.73L113.922 181.211L119.131 176.002L116.651 173.522Z" fill="#C14596"/>
<path d="M133.726 180.373C133.726 179.404 132.941 178.619 131.972 178.619C131.004 178.619 130.218 179.404 130.218 180.373L133.726 180.373ZM130.218 187.739L130.218 189.492L133.726 189.492L133.726 187.739L130.218 187.739ZM130.218 180.373L130.218 187.739L133.726 187.739L133.726 180.373L130.218 180.373Z" fill="#C14596"/>
<path d="M133.726 142.844C133.726 143.812 132.941 144.597 131.972 144.597C131.004 144.597 130.218 143.812 130.218 142.844L133.726 142.844ZM130.218 135.478L130.218 133.724L133.726 133.724L133.726 135.478L130.218 135.478ZM130.218 142.844L130.218 135.478L133.726 135.478L133.726 142.844L130.218 142.844Z" fill="#C14596"/>
<path d="M112.68 159.679C113.649 159.679 114.434 160.464 114.434 161.432C114.434 162.401 113.649 163.186 112.68 163.186V159.679ZM105.315 163.186H103.561V159.679H105.315V163.186ZM112.68 163.186H105.315V159.679H112.68V163.186Z" fill="#C14596"/>
<path d="M146.542 173.873C145.857 173.189 144.747 173.189 144.062 173.873C143.377 174.558 143.377 175.669 144.062 176.354L146.542 173.873ZM149.27 181.562L150.51 182.802L152.99 180.322L151.75 179.082L149.27 181.562ZM144.062 176.354L149.27 181.562L151.75 179.082L146.542 173.873L144.062 176.354Z" fill="#C14596"/>
<path d="M116.651 149.293C117.335 149.978 118.446 149.978 119.131 149.293C119.816 148.608 119.816 147.498 119.131 146.813L116.651 149.293ZM113.922 141.605L112.682 140.365L110.202 142.845L111.442 144.085L113.922 141.605ZM119.131 146.813L113.922 141.605L111.442 144.085L116.651 149.293L119.131 146.813Z" fill="#C14596"/>
<circle cx="383.283" cy="161.259" r="27.8841" stroke="#C14596" stroke-width="3.50744"/>
<circle cx="383.283" cy="161.258" r="13.8544" stroke="#C14596" stroke-width="3.50744"/>
<path d="M402.05 159.679C401.082 159.679 400.297 160.464 400.297 161.432C400.297 162.401 401.082 163.186 402.05 163.186V159.679ZM409.416 163.186H411.17V159.679H409.416V163.186ZM402.05 163.186H409.416V159.679H402.05V163.186Z" fill="#C14596"/>
<path d="M394.844 146.813C394.16 147.498 394.16 148.608 394.844 149.293C395.529 149.978 396.64 149.978 397.325 149.293L394.844 146.813ZM402.533 144.085L403.773 142.845L401.293 140.365L400.053 141.605L402.533 144.085ZM397.325 149.293L402.533 144.085L400.053 141.605L394.844 146.813L397.325 149.293Z" fill="#C14596"/>
<path d="M370.616 176.002C371.301 175.317 371.301 174.207 370.616 173.522C369.931 172.837 368.821 172.837 368.136 173.522L370.616 176.002ZM362.928 178.73L361.688 179.97L364.168 182.451L365.408 181.21L362.928 178.73ZM368.136 173.522L362.928 178.73L365.408 181.21L370.616 176.002L368.136 173.522Z" fill="#C14596"/>
<path d="M385.211 180.373C385.211 179.404 384.426 178.619 383.458 178.619C382.489 178.619 381.704 179.404 381.704 180.373L385.211 180.373ZM381.704 187.739L381.704 189.492L385.211 189.492L385.211 187.739L381.704 187.739ZM381.704 180.373L381.704 187.739L385.211 187.739L385.211 180.373L381.704 180.373Z" fill="#C14596"/>
<path d="M385.211 142.844C385.211 143.812 384.426 144.597 383.458 144.597C382.489 144.597 381.704 143.812 381.704 142.844L385.211 142.844ZM381.704 135.478L381.704 133.724L385.211 133.724L385.211 135.478L381.704 135.478ZM381.704 142.844L381.704 135.478L385.211 135.478L385.211 142.844L381.704 142.844Z" fill="#C14596"/>
<path d="M364.166 159.679C365.134 159.679 365.919 160.464 365.919 161.432C365.919 162.401 365.134 163.186 364.166 163.186V159.679ZM356.8 163.186H355.046V159.679H356.8V163.186ZM364.166 163.186H356.8V159.679H364.166V163.186Z" fill="#C14596"/>
<path d="M398.027 173.873C397.342 173.189 396.232 173.189 395.547 173.873C394.862 174.558 394.862 175.669 395.547 176.354L398.027 173.873ZM400.755 181.562L401.995 182.802L404.476 180.322L403.235 179.082L400.755 181.562ZM395.547 176.354L400.755 181.562L403.235 179.082L398.027 173.873L395.547 176.354Z" fill="#C14596"/>
<path d="M368.136 149.293C368.821 149.978 369.931 149.978 370.616 149.293C371.301 148.608 371.301 147.498 370.616 146.813L368.136 149.293ZM365.408 141.605L364.168 140.365L361.688 142.845L362.928 144.085L365.408 141.605ZM370.616 146.813L365.408 141.605L362.928 144.085L368.136 149.293L370.616 146.813Z" fill="#C14596"/>
<line x1="104.434" y1="10.7877" x2="139.508" y2="10.7877" stroke="#7A2FE6" stroke-width="1.75372" stroke-linecap="round"/>
<line x1="153.54" y1="10.7877" x2="265.779" y2="10.7877" stroke="#7A2FE6" stroke-width="1.75372" stroke-linecap="round"/>
<line x1="15.3458" y1="261.219" x2="15.3458" y2="41.3022" stroke="#7A2FE6" stroke-width="1.75372" stroke-linecap="round"/>
<circle cx="47.0865" cy="27.0965" r="3.50744" fill="#FF5B09"/>
<circle cx="61.1163" cy="27.0965" r="3.50744" fill="#FF5B09"/>
<circle cx="75.1461" cy="27.0965" r="3.50744" fill="#FF5B09"/>
<circle cx="89.1759" cy="27.0965" r="3.50744" fill="#FF5B09"/>
<circle cx="103.205" cy="27.0965" r="3.50744" fill="#FF5B09"/>
<circle cx="117.235" cy="27.0965" r="3.50744" fill="#FF5B09"/>
<circle cx="131.265" cy="27.0965" r="3.50744" fill="#FF5B09"/>
<circle cx="145.295" cy="27.0965" r="3.50744" fill="#FF5B09"/>
<circle cx="159.325" cy="27.0965" r="3.50744" fill="#FF5B09"/>
<circle cx="173.354" cy="27.0965" r="3.50744" fill="#FF5B09"/>
<circle cx="187.384" cy="27.0965" r="3.50744" fill="#FF5B09"/>
<circle cx="201.414" cy="27.0965" r="3.50744" fill="#FF5B09"/>
<circle cx="215.443" cy="27.0965" r="3.50744" fill="#FF5B09"/>
<circle cx="229.474" cy="27.0965" r="3.50744" fill="#FF5B09"/>
<circle cx="243.503" cy="27.0965" r="3.50744" fill="#FF5B09"/>
<circle cx="257.533" cy="27.0965" r="3.50744" fill="#FF5B09"/>
<circle cx="271.563" cy="27.0965" r="3.50744" fill="#FF5B09"/>
<circle cx="285.592" cy="27.0965" r="3.50744" fill="#FF5B09"/>
<circle cx="299.622" cy="27.0965" r="3.50744" fill="#FF5B09"/>
<circle cx="313.652" cy="27.0965" r="3.50744" fill="#FF5B09"/>
<circle cx="327.681" cy="27.0965" r="3.50744" fill="#FF5B09"/>
<circle cx="341.712" cy="27.0965" r="3.50744" fill="#FF5B09"/>
<circle cx="355.741" cy="27.0965" r="3.50744" fill="#FF5B09"/>
<circle cx="369.771" cy="27.0965" r="3.50744" fill="#FF5B09"/>
<circle cx="383.801" cy="27.0965" r="3.50744" fill="#FF5B09"/>
<circle cx="397.831" cy="27.0965" r="3.50744" fill="#FF5B09"/>
<circle cx="411.86" cy="27.0965" r="3.50744" fill="#FF5B09"/>
<circle cx="425.89" cy="27.0965" r="3.50744" fill="#FF5B09"/>
<circle cx="439.92" cy="27.0965" r="3.50744" fill="#FF5B09"/>
<circle cx="453.95" cy="27.0965" r="3.50744" fill="#FF5B09"/>
<circle cx="467.979" cy="27.0965" r="3.50744" fill="#FF5B09"/>
<circle cx="47.0865" cy="311.199" r="3.50744" fill="#FF5B09"/>
<circle cx="61.1163" cy="311.199" r="3.50744" fill="#FF5B09"/>
<circle cx="75.1461" cy="311.199" r="3.50744" fill="#FF5B09"/>
<circle cx="89.1759" cy="311.199" r="3.50744" fill="#FF5B09"/>
<circle cx="103.205" cy="311.199" r="3.50744" fill="#FF5B09"/>
<circle cx="117.235" cy="311.199" r="3.50744" fill="#FF5B09"/>
<circle cx="131.265" cy="311.199" r="3.50744" fill="#FF5B09"/>
<circle cx="145.295" cy="311.199" r="3.50744" fill="#FF5B09"/>
<circle cx="159.325" cy="311.199" r="3.50744" fill="#FF5B09"/>
<circle cx="173.354" cy="311.199" r="3.50744" fill="#FF5B09"/>
<circle cx="187.384" cy="311.199" r="3.50744" fill="#FF5B09"/>
<circle cx="201.414" cy="311.199" r="3.50744" fill="#FF5B09"/>
<circle cx="215.443" cy="311.199" r="3.50744" fill="#FF5B09"/>
<circle cx="229.474" cy="311.199" r="3.50744" fill="#FF5B09"/>
<circle cx="243.503" cy="311.199" r="3.50744" fill="#FF5B09"/>
<circle cx="257.533" cy="311.199" r="3.50744" fill="#FF5B09"/>
<circle cx="271.563" cy="311.199" r="3.50744" fill="#FF5B09"/>
<circle cx="285.592" cy="311.199" r="3.50744" fill="#FF5B09"/>
<circle cx="299.622" cy="311.199" r="3.50744" fill="#FF5B09"/>
<circle cx="313.652" cy="311.199" r="3.50744" fill="#FF5B09"/>
<circle cx="327.681" cy="311.199" r="3.50744" fill="#FF5B09"/>
<circle cx="341.712" cy="311.199" r="3.50744" fill="#FF5B09"/>
<circle cx="355.741" cy="311.199" r="3.50744" fill="#FF5B09"/>
<circle cx="369.771" cy="311.199" r="3.50744" fill="#FF5B09"/>
<circle cx="383.801" cy="311.199" r="3.50744" fill="#FF5B09"/>
<circle cx="397.831" cy="311.199" r="3.50744" fill="#FF5B09"/>
<circle cx="411.86" cy="311.199" r="3.50744" fill="#FF5B09"/>
<circle cx="425.89" cy="311.199" r="3.50744" fill="#FF5B09"/>
<circle cx="439.92" cy="311.199" r="3.50744" fill="#FF5B09"/>
<circle cx="453.95" cy="311.199" r="3.50744" fill="#FF5B09"/>
<circle cx="467.979" cy="311.199" r="3.50744" fill="#FF5B09"/>
<circle cx="486.922" cy="288.75" r="3.50744" transform="rotate(-90 486.922 288.75)" fill="#FF5B09"/>
<circle cx="486.922" cy="274.72" r="3.50744" transform="rotate(-90 486.922 274.72)" fill="#FF5B09"/>
<circle cx="486.922" cy="260.691" r="3.50744" transform="rotate(-90 486.922 260.691)" fill="#FF5B09"/>
<circle cx="486.922" cy="246.661" r="3.50744" transform="rotate(-90 486.922 246.661)" fill="#FF5B09"/>
<circle cx="486.922" cy="232.631" r="3.50744" transform="rotate(-90 486.922 232.631)" fill="#FF5B09"/>
<circle cx="486.922" cy="218.601" r="3.50744" transform="rotate(-90 486.922 218.601)" fill="#FF5B09"/>
<circle cx="486.922" cy="204.572" r="3.50744" transform="rotate(-90 486.922 204.572)" fill="#FF5B09"/>
<circle cx="486.922" cy="190.542" r="3.50744" transform="rotate(-90 486.922 190.542)" fill="#FF5B09"/>
<circle cx="486.922" cy="176.512" r="3.50744" transform="rotate(-90 486.922 176.512)" fill="#FF5B09"/>
<circle cx="486.922" cy="162.482" r="3.50744" transform="rotate(-90 486.922 162.482)" fill="#FF5B09"/>
<circle cx="486.922" cy="148.453" r="3.50744" transform="rotate(-90 486.922 148.453)" fill="#FF5B09"/>
<circle cx="486.922" cy="134.423" r="3.50744" transform="rotate(-90 486.922 134.423)" fill="#FF5B09"/>
<circle cx="486.922" cy="120.393" r="3.50744" transform="rotate(-90 486.922 120.393)" fill="#FF5B09"/>
<circle cx="486.922" cy="106.363" r="3.50744" transform="rotate(-90 486.922 106.363)" fill="#FF5B09"/>
<circle cx="486.922" cy="92.3335" r="3.50744" transform="rotate(-90 486.922 92.3335)" fill="#FF5B09"/>
<circle cx="486.922" cy="78.3037" r="3.50744" transform="rotate(-90 486.922 78.3037)" fill="#FF5B09"/>
<circle cx="486.922" cy="64.2741" r="3.50744" transform="rotate(-90 486.922 64.2741)" fill="#FF5B09"/>
<circle cx="486.922" cy="50.2443" r="3.50744" transform="rotate(-90 486.922 50.2443)" fill="#FF5B09"/>
<circle cx="26.3971" cy="288.75" r="3.50744" transform="rotate(-90 26.3971 288.75)" fill="#FF5B09"/>
<circle cx="26.3971" cy="274.72" r="3.50744" transform="rotate(-90 26.3971 274.72)" fill="#FF5B09"/>
<circle cx="26.3971" cy="260.691" r="3.50744" transform="rotate(-90 26.3971 260.691)" fill="#FF5B09"/>
<circle cx="26.3971" cy="246.661" r="3.50744" transform="rotate(-90 26.3971 246.661)" fill="#FF5B09"/>
<circle cx="26.3971" cy="232.631" r="3.50744" transform="rotate(-90 26.3971 232.631)" fill="#FF5B09"/>
<circle cx="26.3971" cy="218.601" r="3.50744" transform="rotate(-90 26.3971 218.601)" fill="#FF5B09"/>
<circle cx="26.3971" cy="204.572" r="3.50744" transform="rotate(-90 26.3971 204.572)" fill="#FF5B09"/>
<circle cx="26.3971" cy="190.542" r="3.50744" transform="rotate(-90 26.3971 190.542)" fill="#FF5B09"/>
<circle cx="26.3971" cy="176.512" r="3.50744" transform="rotate(-90 26.3971 176.512)" fill="#FF5B09"/>
<circle cx="26.3971" cy="162.482" r="3.50744" transform="rotate(-90 26.3971 162.482)" fill="#FF5B09"/>
<circle cx="26.3971" cy="148.453" r="3.50744" transform="rotate(-90 26.3971 148.453)" fill="#FF5B09"/>
<circle cx="26.3971" cy="134.423" r="3.50744" transform="rotate(-90 26.3971 134.423)" fill="#FF5B09"/>
<circle cx="26.3971" cy="120.393" r="3.50744" transform="rotate(-90 26.3971 120.393)" fill="#FF5B09"/>
<circle cx="26.3971" cy="106.363" r="3.50744" transform="rotate(-90 26.3971 106.363)" fill="#FF5B09"/>
<circle cx="26.3971" cy="92.3335" r="3.50744" transform="rotate(-90 26.3971 92.3335)" fill="#FF5B09"/>
<circle cx="26.3971" cy="78.3037" r="3.50744" transform="rotate(-90 26.3971 78.3037)" fill="#FF5B09"/>
<circle cx="26.3971" cy="64.2741" r="3.50744" transform="rotate(-90 26.3971 64.2741)" fill="#FF5B09"/>
<circle cx="26.3971" cy="50.2443" r="3.50744" transform="rotate(-90 26.3971 50.2443)" fill="#FF5B09"/>
<path d="M127.412 266.657H126.102L125.73 267.912L106.089 334.203L105.421 336.455H107.77H406.779H409.122L408.462 334.207L388.996 267.916L388.626 266.657H387.313H127.412Z" fill="#F69C2A" stroke="#6C0AFF" stroke-width="3.50744"/>
<line x1="122.853" y1="277.882" x2="391.523" y2="277.882" stroke="#6C0AFF" stroke-width="3.50744"/>
<line x1="118.996" y1="289.455" x2="394.33" y2="289.455" stroke="#6C0AFF" stroke-width="3.50744"/>
<line x1="115.134" y1="301.028" x2="397.834" y2="301.028" stroke="#6C0AFF" stroke-width="3.50744"/>
<line x1="113.033" y1="312.604" x2="401.344" y2="312.604" stroke="#6C0AFF" stroke-width="3.50744"/>
<line x1="109.523" y1="324.88" x2="404.849" y2="324.88" stroke="#6C0AFF" stroke-width="3.50744"/>
<circle cx="205.626" cy="278.229" r="6.66413" fill="#2AFD85"/>
<circle cx="256.485" cy="289.455" r="6.66413" fill="#2AFD85"/>
<circle cx="316.813" cy="324.88" r="6.66413" fill="#2AFD85"/>
<circle cx="371.178" cy="312.955" r="6.66413" fill="#2AFD85"/>
<circle cx="148.805" cy="301.028" r="6.66413" fill="#2AFD85"/>
<path d="M36.4391 317.623C39.9889 312.076 38.3694 304.701 32.8218 301.151C27.2742 297.601 19.8993 299.221 16.3494 304.768C12.7996 310.316 14.4191 317.691 19.9667 321.241C25.5143 324.79 32.8892 323.171 36.4391 317.623Z" fill="#FFBA7D" stroke="#F5B527" stroke-width="3.50744"/>
<line x1="17.8285" y1="305.713" x2="34.9638" y2="316.678" stroke="#F5B527" stroke-width="3.50744"/>
<path d="M487.046 323.179C493.632 323.142 498.941 317.773 498.904 311.186C498.867 304.6 493.498 299.292 486.912 299.329C480.325 299.366 475.017 304.735 475.054 311.321C475.091 317.907 480.46 323.216 487.046 323.179Z" fill="#FFBA7D" stroke="#F5B527" stroke-width="3.50744"/>
<line x1="486.921" y1="301.084" x2="487.036" y2="321.427" stroke="#F5B527" stroke-width="3.50744"/>
<path d="M475.786 31.2562C478.052 37.4403 484.902 40.6165 491.086 38.3505C497.27 36.0844 500.446 29.2343 498.18 23.0502C495.914 16.8662 489.064 13.69 482.88 15.956C476.696 18.222 473.52 25.0721 475.786 31.2562Z" fill="#FFBA7D" stroke="#F5B527" stroke-width="3.50744"/>
<line x1="496.533" y1="23.653" x2="477.432" y2="30.6522" stroke="#F5B527" stroke-width="3.50744"/>
<path d="M17.9035 35.4695C22.5285 40.1586 30.079 40.2105 34.768 35.5855C39.457 30.9605 39.509 23.41 34.884 18.721C30.259 14.032 22.7085 13.98 18.0195 18.605C13.3304 23.23 13.2785 30.7805 17.9035 35.4695Z" fill="#FFBA7D" stroke="#F5B527" stroke-width="3.50744"/>
<line x1="33.6334" y1="19.9534" x2="19.15" y2="34.2389" stroke="#F5B527" stroke-width="3.50744"/>
<rect x="410.808" y="244.557" width="51.9101" height="51.9101" rx="7.01488" fill="#FF5C0B"/>
<path d="M425.38 253.039C426.478 253.046 427.547 253.241 428.586 253.622C429.632 253.996 430.573 254.608 431.41 255.46C432.247 256.305 432.913 257.437 433.406 258.857C433.899 260.277 434.146 262.033 434.146 264.126C434.153 266.098 433.944 267.862 433.518 269.417C433.099 270.964 432.498 272.271 431.713 273.34C430.928 274.409 429.983 275.223 428.877 275.784C427.771 276.344 426.527 276.625 425.144 276.625C423.694 276.625 422.409 276.341 421.288 275.773C420.174 275.205 419.274 274.427 418.586 273.441C417.899 272.454 417.477 271.326 417.32 270.056H421.411C421.621 270.967 422.046 271.692 422.689 272.23C423.339 272.761 424.158 273.026 425.144 273.026C426.736 273.026 427.962 272.335 428.821 270.952C429.68 269.57 430.11 267.649 430.11 265.19H429.953C429.587 265.848 429.112 266.416 428.53 266.894C427.947 267.365 427.285 267.728 426.545 267.982C425.813 268.236 425.036 268.363 424.214 268.363C422.869 268.363 421.658 268.042 420.582 267.399C419.513 266.756 418.665 265.874 418.037 264.753C417.417 263.632 417.103 262.351 417.095 260.908C417.095 259.414 417.439 258.072 418.127 256.884C418.822 255.688 419.79 254.747 421.03 254.059C422.271 253.364 423.72 253.024 425.38 253.039ZM425.391 256.402C424.584 256.402 423.855 256.6 423.205 256.996C422.562 257.385 422.054 257.915 421.68 258.588C421.314 259.253 421.131 259.997 421.131 260.819C421.138 261.633 421.322 262.373 421.68 263.038C422.046 263.703 422.543 264.23 423.171 264.619C423.806 265.007 424.531 265.202 425.346 265.202C425.951 265.202 426.515 265.086 427.039 264.854C427.562 264.623 428.018 264.301 428.406 263.89C428.802 263.472 429.109 262.997 429.325 262.466C429.55 261.936 429.658 261.375 429.65 260.785C429.65 260 429.464 259.275 429.09 258.61C428.724 257.945 428.219 257.411 427.577 257.007C426.941 256.604 426.213 256.402 425.391 256.402ZM446.364 276.748C444.518 276.748 442.934 276.281 441.611 275.347C440.296 274.405 439.283 273.049 438.574 271.277C437.871 269.499 437.52 267.358 437.52 264.854C437.527 262.351 437.882 260.221 438.585 258.465C439.295 256.701 440.307 255.356 441.623 254.429C442.945 253.502 444.526 253.039 446.364 253.039C448.203 253.039 449.783 253.502 451.106 254.429C452.429 255.356 453.442 256.701 454.144 258.465C454.854 260.228 455.209 262.358 455.209 264.854C455.209 267.365 454.854 269.51 454.144 271.289C453.442 273.06 452.429 274.412 451.106 275.347C449.791 276.281 448.21 276.748 446.364 276.748ZM446.364 273.239C447.799 273.239 448.931 272.533 449.761 271.121C450.598 269.701 451.016 267.612 451.016 264.854C451.016 263.031 450.826 261.499 450.445 260.258C450.064 259.018 449.526 258.083 448.831 257.456C448.136 256.82 447.313 256.503 446.364 256.503C444.937 256.503 443.809 257.213 442.979 258.633C442.149 260.045 441.731 262.119 441.724 264.854C441.716 266.685 441.899 268.225 442.273 269.473C442.654 270.721 443.192 271.662 443.887 272.298C444.582 272.925 445.408 273.239 446.364 273.239Z" fill="#0BFFAC"/>
<path d="M415.561 287.631V286.83L417.686 284.747C417.889 284.541 418.059 284.359 418.194 284.2C418.33 284.04 418.431 283.886 418.499 283.736C418.567 283.587 418.601 283.427 418.601 283.258C418.601 283.065 418.557 282.899 418.469 282.762C418.382 282.622 418.261 282.515 418.108 282.439C417.954 282.363 417.78 282.325 417.584 282.325C417.383 282.325 417.207 282.367 417.055 282.451C416.904 282.532 416.786 282.649 416.703 282.801C416.621 282.952 416.58 283.132 416.58 283.342H415.525C415.525 282.953 415.613 282.615 415.791 282.328C415.968 282.041 416.212 281.819 416.523 281.662C416.836 281.504 417.195 281.425 417.599 281.425C418.01 281.425 418.371 281.502 418.681 281.656C418.992 281.809 419.234 282.019 419.405 282.286C419.578 282.553 419.665 282.858 419.665 283.201C419.665 283.43 419.621 283.655 419.533 283.877C419.446 284.098 419.291 284.343 419.07 284.612C418.851 284.881 418.543 285.207 418.146 285.59L417.091 286.663V286.705H419.758V287.631H415.561ZM423.863 281.509L425.212 283.751H425.259L426.614 281.509H427.878L425.992 284.57L427.908 287.631H426.623L425.259 285.404H425.212L423.848 287.631H422.569L424.503 284.57L422.593 281.509H423.863ZM430.777 287.631V286.83L432.902 284.747C433.106 284.541 433.275 284.359 433.41 284.2C433.546 284.04 433.648 283.886 433.715 283.736C433.783 283.587 433.817 283.427 433.817 283.258C433.817 283.065 433.773 282.899 433.685 282.762C433.598 282.622 433.477 282.515 433.324 282.439C433.17 282.363 432.996 282.325 432.801 282.325C432.599 282.325 432.423 282.367 432.272 282.451C432.12 282.532 432.003 282.649 431.919 282.801C431.837 282.952 431.796 283.132 431.796 283.342H430.741C430.741 282.953 430.83 282.615 431.007 282.328C431.184 282.041 431.429 281.819 431.739 281.662C432.052 281.504 432.411 281.425 432.816 281.425C433.226 281.425 433.587 281.502 433.898 281.656C434.209 281.809 434.45 282.019 434.621 282.286C434.795 282.553 434.881 282.858 434.881 283.201C434.881 283.43 434.837 283.655 434.75 283.877C434.662 284.098 434.508 284.343 434.286 284.612C434.067 284.881 433.759 285.207 433.363 285.59L432.307 286.663V286.705H434.974V287.631H430.777ZM435.763 286.495V285.613L438.361 281.509H439.096V282.765H438.648L436.899 285.536V285.584H440.525V286.495H435.763ZM438.684 287.631V286.226L438.696 285.832V281.509H439.742V287.631H438.684ZM443.628 281.509H444.985L446.803 285.945H446.874L448.692 281.509H450.049V287.631H448.985V283.425H448.928L447.236 287.613H446.441L444.749 283.416H444.692V287.631H443.628V281.509ZM452.366 281.509V287.631H451.257V281.509H452.366ZM458.598 281.509V287.631H457.611L454.726 283.461H454.676V287.631H453.567V281.509H454.559L457.441 285.682H457.494V281.509H458.598Z" fill="#0BFFAC"/>
<rect x="2.72016" y="2.72016" width="507.877" height="334.259" rx="30.3393" stroke="#A72962" stroke-width="4.55967"/>
</svg>
