<svg width="324" height="41" viewBox="0 0 324 41" fill="none" xmlns="http://www.w3.org/2000/svg">
<path d="M12.4966 0.838586C5.47786 1.78342 7.54749 10.6806 9.45965 15.0111C1.49609 14.2012 -0.157397 19.7352 0.0113029 22.6035C0.0113029 26.6527 6.64762 28.115 9.96578 28.3399C5.51157 34.5488 9.79708 38.8006 12.4966 40.1503C20.3252 40.0153 22.5073 34.2451 22.6198 31.3769C27.6139 35.6961 32.7992 33.1766 34.7676 31.3769C38.142 24.7631 32.6867 20.7475 29.5373 19.5665C35.4762 12.9527 33.5866 8.5997 31.8994 7.24994C26.7703 4.6854 22.7885 7.41866 21.4387 9.10586C18.8742 1.14228 14.4088 0.276187 12.4966 0.838586Z" fill="#FF4C00"/>
<path d="M22.7774 20.4416C22.7774 21.7717 22.4869 22.9121 21.8842 23.7158C21.287 24.5122 20.3693 24.997 19.0655 24.997C17.7548 24.997 16.443 24.506 15.4607 23.6874C14.4792 22.8696 13.8352 21.7331 13.8352 20.4416C13.8352 17.8162 15.6284 15.7174 18.2219 15.7174C20.8234 15.7174 22.7774 17.8246 22.7774 20.4416Z" fill="#FFB02A" stroke="#FF4C00" stroke-width="0.33744"/>
<path d="M84.3277 0.838586C77.3089 1.78342 79.3785 10.6806 81.2907 15.0111C73.3271 14.2012 71.6737 19.7352 71.8424 22.6035C71.8424 26.6527 78.4787 28.115 81.7968 28.3399C77.3426 34.5488 81.6281 38.8006 84.3277 40.1503C92.1563 40.0153 94.3384 34.2451 94.4508 31.3769C99.4449 35.6961 104.63 33.1766 106.599 31.3769C109.973 24.7631 104.518 20.7475 101.368 19.5665C107.307 12.9527 105.418 8.5997 103.73 7.24994C98.6013 4.6854 94.6195 7.41866 93.2698 9.10586C90.7052 1.14228 86.2398 0.276187 84.3277 0.838586Z" fill="#0F2BBD"/>
<path d="M94.6099 20.4416C94.6099 21.7717 94.3194 22.9121 93.7167 23.7158C93.1195 24.5122 92.2018 24.997 90.8981 24.997C89.5873 24.997 88.2755 24.506 87.2932 23.6874C86.3118 22.8696 85.6677 21.7331 85.6677 20.4416C85.6677 17.8162 87.4609 15.7174 90.0545 15.7174C92.6559 15.7174 94.6099 17.8246 94.6099 20.4416Z" fill="#FF0CAE" stroke="#0F2BBD" stroke-width="0.33744"/>
<path d="M156.159 0.838586C149.14 1.78342 151.21 10.6806 153.122 15.0111C145.159 14.2012 143.505 19.7352 143.674 22.6035C143.674 26.6527 150.31 28.115 153.628 28.3399C149.174 34.5488 153.46 38.8006 156.159 40.1503C163.988 40.0153 166.17 34.2451 166.282 31.3769C171.276 35.6961 176.462 33.1766 178.43 31.3769C181.805 24.7631 176.349 20.7475 173.2 19.5665C179.139 12.9527 177.249 8.5997 175.562 7.24994C170.433 4.6854 166.451 7.41866 165.101 9.10586C162.537 1.14228 158.071 0.276187 156.159 0.838586Z" fill="#00B3B0"/>
<path d="M166.102 20.4416C166.102 23.1438 164.924 25.1657 162.222 25.1657C159.52 25.1657 156.823 23.1438 156.823 20.4416C156.823 17.7393 158.676 15.5487 161.378 15.5487C164.08 15.5487 166.102 17.7393 166.102 20.4416Z" fill="#40FF7C"/>
<path d="M227.991 0.838586C220.972 1.78342 223.042 10.6806 224.954 15.0111C216.99 14.2012 215.337 19.7352 215.505 22.6035C215.505 26.6527 222.142 28.115 225.46 28.3399C221.006 34.5488 225.291 38.8006 227.991 40.1503C235.819 40.0153 238.001 34.2451 238.114 31.3769C243.108 35.6961 248.293 33.1766 250.262 31.3769C253.636 24.7631 248.181 20.7475 245.031 19.5665C250.97 12.9527 249.081 8.5997 247.394 7.24994C242.264 4.6854 238.283 7.41866 236.933 9.10586C234.368 1.14228 229.903 0.276187 227.991 0.838586Z" fill="#FFB02A"/>
<path d="M238.272 20.4416C238.272 21.7717 237.981 22.9121 237.378 23.7158C236.781 24.5122 235.863 24.997 234.56 24.997C233.249 24.997 231.937 24.506 230.955 23.6874C229.973 22.8696 229.329 21.7331 229.329 20.4416C229.329 17.8162 231.122 15.7174 233.716 15.7174C236.317 15.7174 238.272 17.8246 238.272 20.4416Z" fill="#0F2BBD" stroke="#FFB02A" stroke-width="0.33744"/>
<path d="M299.822 0.838586C292.803 1.78342 294.873 10.6806 296.785 15.0111C288.821 14.2012 287.168 19.7352 287.336 22.6035C287.336 26.6527 293.973 28.115 297.291 28.3399C292.837 34.5488 297.122 38.8006 299.822 40.1503C307.65 40.0153 309.833 34.2451 309.945 31.3769C314.939 35.6961 320.124 33.1766 322.093 31.3769C325.467 24.7631 320.012 20.7475 316.862 19.5665C322.801 12.9527 320.912 8.5997 319.225 7.24994C314.095 4.6854 310.114 7.41866 308.764 9.10586C306.199 1.14228 301.734 0.276187 299.822 0.838586Z" fill="#FF0606"/>
<path d="M310.271 20.4416C310.271 23.1438 309.093 25.1657 306.391 25.1657C303.688 25.1657 300.992 23.1438 300.992 20.4416C300.992 17.7393 302.845 15.5487 305.547 15.5487C308.249 15.5487 310.271 17.7393 310.271 20.4416Z" fill="#FF6C00"/>
</svg>
