<svg width="149" height="36" viewBox="0 0 149 36" fill="none" xmlns="http://www.w3.org/2000/svg">
<g filter="url(#filter0_b_651_19141)">
<rect width="149" height="36" rx="18" fill="#1CFF92" fill-opacity="0.2"/>
<path d="M21 19L25 23L35 13" stroke="white" stroke-width="2" stroke-linecap="round" stroke-linejoin="round"/>
<path d="M56.3788 24.216C55.4788 24.216 54.6628 24.042 53.9308 23.694C53.2108 23.334 52.6348 22.788 52.2028 22.056C51.7828 21.324 51.5728 20.394 51.5728 19.266V11.4H53.4808V19.284C53.4808 20.388 53.7448 21.198 54.2728 21.714C54.8008 22.23 55.5148 22.488 56.4148 22.488C57.3028 22.488 58.0108 22.23 58.5388 21.714C59.0668 21.198 59.3308 20.388 59.3308 19.284V11.4H61.2388V19.266C61.2388 20.394 61.0168 21.324 60.5728 22.056C60.1408 22.788 59.5528 23.334 58.8088 23.694C58.0768 24.042 57.2668 24.216 56.3788 24.216ZM63.6142 27.96V15.072H65.3242L65.5222 16.458C65.8102 16.038 66.2062 15.666 66.7102 15.342C67.2142 15.018 67.8622 14.856 68.6542 14.856C69.5182 14.856 70.2802 15.06 70.9402 15.468C71.6002 15.876 72.1162 16.434 72.4882 17.142C72.8722 17.85 73.0642 18.654 73.0642 19.554C73.0642 20.454 72.8722 21.258 72.4882 21.966C72.1162 22.662 71.6002 23.214 70.9402 23.622C70.2802 24.018 69.5122 24.216 68.6362 24.216C67.9402 24.216 67.3222 24.078 66.7822 23.802C66.2542 23.526 65.8342 23.136 65.5222 22.632V27.96H63.6142ZM68.3122 22.56C69.1282 22.56 69.8002 22.284 70.3282 21.732C70.8562 21.168 71.1202 20.436 71.1202 19.536C71.1202 18.948 71.0002 18.426 70.7602 17.97C70.5202 17.514 70.1902 17.16 69.7702 16.908C69.3502 16.644 68.8642 16.512 68.3122 16.512C67.4962 16.512 66.8242 16.794 66.2962 17.358C65.7802 17.922 65.5222 18.648 65.5222 19.536C65.5222 20.436 65.7802 21.168 66.2962 21.732C66.8242 22.284 67.4962 22.56 68.3122 22.56ZM75.1279 24V11.04H77.0359V24H75.1279ZM83.6281 24.216C82.7761 24.216 82.0081 24.024 81.3241 23.64C80.6521 23.244 80.1181 22.698 79.7221 22.002C79.3261 21.294 79.1281 20.472 79.1281 19.536C79.1281 18.6 79.3261 17.784 79.7221 17.088C80.1301 16.38 80.6761 15.834 81.3601 15.45C82.0441 15.054 82.8061 14.856 83.6461 14.856C84.4981 14.856 85.2601 15.054 85.9321 15.45C86.6161 15.834 87.1561 16.38 87.5521 17.088C87.9601 17.784 88.1641 18.6 88.1641 19.536C88.1641 20.472 87.9601 21.294 87.5521 22.002C87.1561 22.698 86.6161 23.244 85.9321 23.64C85.2481 24.024 84.4801 24.216 83.6281 24.216ZM83.6281 22.578C84.0841 22.578 84.5041 22.464 84.8881 22.236C85.2841 22.008 85.6021 21.672 85.8421 21.228C86.0821 20.772 86.2021 20.208 86.2021 19.536C86.2021 18.864 86.0821 18.306 85.8421 17.862C85.6141 17.406 85.3021 17.064 84.9061 16.836C84.5221 16.608 84.1021 16.494 83.6461 16.494C83.1901 16.494 82.7641 16.608 82.3681 16.836C81.9841 17.064 81.6721 17.406 81.4321 17.862C81.1921 18.306 81.0721 18.864 81.0721 19.536C81.0721 20.208 81.1921 20.772 81.4321 21.228C81.6721 21.672 81.9841 22.008 82.3681 22.236C82.7521 22.464 83.1721 22.578 83.6281 22.578ZM93.2515 24.216C92.4955 24.216 91.8715 24.09 91.3795 23.838C90.8875 23.586 90.5215 23.256 90.2815 22.848C90.0415 22.428 89.9215 21.972 89.9215 21.48C89.9215 20.616 90.2575 19.932 90.9295 19.428C91.6015 18.924 92.5615 18.672 93.8095 18.672H96.1495V18.51C96.1495 17.814 95.9575 17.292 95.5735 16.944C95.2015 16.596 94.7155 16.422 94.1155 16.422C93.5875 16.422 93.1255 16.554 92.7295 16.818C92.3455 17.07 92.1115 17.448 92.0275 17.952H90.1195C90.1795 17.304 90.3955 16.752 90.7675 16.296C91.1515 15.828 91.6315 15.474 92.2075 15.234C92.7955 14.982 93.4375 14.856 94.1335 14.856C95.3815 14.856 96.3475 15.186 97.0315 15.846C97.7155 16.494 98.0575 17.382 98.0575 18.51V24H96.4015L96.2395 22.47C95.9875 22.962 95.6215 23.376 95.1415 23.712C94.6615 24.048 94.0315 24.216 93.2515 24.216ZM93.6295 22.668C94.1455 22.668 94.5775 22.548 94.9255 22.308C95.2855 22.056 95.5615 21.726 95.7535 21.318C95.9575 20.91 96.0835 20.46 96.1315 19.968H94.0075C93.2515 19.968 92.7115 20.1 92.3875 20.364C92.0755 20.628 91.9195 20.958 91.9195 21.354C91.9195 21.762 92.0695 22.086 92.3695 22.326C92.6815 22.554 93.1015 22.668 93.6295 22.668ZM104.35 24.216C103.486 24.216 102.724 24.012 102.064 23.604C101.404 23.196 100.888 22.638 100.516 21.93C100.144 21.222 99.9582 20.418 99.9582 19.518C99.9582 18.618 100.144 17.82 100.516 17.124C100.888 16.416 101.404 15.864 102.064 15.468C102.736 15.06 103.504 14.856 104.368 14.856C105.076 14.856 105.694 14.994 106.222 15.27C106.762 15.546 107.182 15.936 107.482 16.44V11.04H109.39V24H107.68L107.482 22.614C107.194 23.034 106.798 23.406 106.294 23.73C105.79 24.054 105.142 24.216 104.35 24.216ZM104.692 22.56C105.508 22.56 106.174 22.278 106.69 21.714C107.218 21.15 107.482 20.424 107.482 19.536C107.482 18.636 107.218 17.91 106.69 17.358C106.174 16.794 105.508 16.512 104.692 16.512C103.876 16.512 103.204 16.794 102.676 17.358C102.148 17.91 101.884 18.636 101.884 19.536C101.884 20.124 102.004 20.646 102.244 21.102C102.484 21.558 102.814 21.918 103.234 22.182C103.666 22.434 104.152 22.56 104.692 22.56ZM115.972 24.216C115.096 24.216 114.316 24.024 113.632 23.64C112.96 23.244 112.432 22.698 112.048 22.002C111.664 21.306 111.472 20.496 111.472 19.572C111.472 18.636 111.658 17.814 112.03 17.106C112.414 16.398 112.942 15.846 113.614 15.45C114.298 15.054 115.09 14.856 115.99 14.856C116.866 14.856 117.628 15.054 118.276 15.45C118.924 15.834 119.428 16.35 119.788 16.998C120.148 17.646 120.328 18.36 120.328 19.14C120.328 19.26 120.322 19.392 120.31 19.536C120.31 19.668 120.304 19.818 120.292 19.986H113.344C113.404 20.85 113.686 21.51 114.19 21.966C114.706 22.41 115.3 22.632 115.972 22.632C116.512 22.632 116.962 22.512 117.322 22.272C117.694 22.02 117.97 21.684 118.15 21.264H120.058C119.818 22.104 119.338 22.806 118.618 23.37C117.91 23.934 117.028 24.216 115.972 24.216ZM115.972 16.422C115.336 16.422 114.772 16.614 114.28 16.998C113.788 17.37 113.488 17.934 113.38 18.69H118.42C118.384 17.994 118.138 17.442 117.682 17.034C117.226 16.626 116.656 16.422 115.972 16.422ZM126.376 24.216C125.512 24.216 124.75 24.012 124.09 23.604C123.43 23.196 122.914 22.638 122.542 21.93C122.17 21.222 121.984 20.418 121.984 19.518C121.984 18.618 122.17 17.82 122.542 17.124C122.914 16.416 123.43 15.864 124.09 15.468C124.762 15.06 125.53 14.856 126.394 14.856C127.102 14.856 127.72 14.994 128.248 15.27C128.788 15.546 129.208 15.936 129.508 16.44V11.04H131.416V24H129.706L129.508 22.614C129.22 23.034 128.824 23.406 128.32 23.73C127.816 24.054 127.168 24.216 126.376 24.216ZM126.718 22.56C127.534 22.56 128.2 22.278 128.716 21.714C129.244 21.15 129.508 20.424 129.508 19.536C129.508 18.636 129.244 17.91 128.716 17.358C128.2 16.794 127.534 16.512 126.718 16.512C125.902 16.512 125.23 16.794 124.702 17.358C124.174 17.91 123.91 18.636 123.91 19.536C123.91 20.124 124.03 20.646 124.27 21.102C124.51 21.558 124.84 21.918 125.26 22.182C125.692 22.434 126.178 22.56 126.718 22.56Z" fill="white"/>
</g>
<defs>
<filter id="filter0_b_651_19141" x="-2" y="-2" width="153" height="40" filterUnits="userSpaceOnUse" color-interpolation-filters="sRGB">
<feFlood flood-opacity="0" result="BackgroundImageFix"/>
<feGaussianBlur in="BackgroundImageFix" stdDeviation="1"/>
<feComposite in2="SourceAlpha" operator="in" result="effect1_backgroundBlur_651_19141"/>
<feBlend mode="normal" in="SourceGraphic" in2="effect1_backgroundBlur_651_19141" result="shape"/>
</filter>
</defs>
</svg>
