<svg width="27" height="22" viewBox="0 0 27 22" fill="none" xmlns="http://www.w3.org/2000/svg">
<g id="shape">
<path d="M13.5 16.3333C15.7091 16.3333 17.5 14.5424 17.5 12.3333C17.5 10.1242 15.7091 8.33329 13.5 8.33329C11.2909 8.33329 9.5 10.1242 9.5 12.3333C9.5 14.5424 11.2909 16.3333 13.5 16.3333Z" stroke="black" stroke-width="2" stroke-linejoin="round"/>
<path d="M1.5 6.99996C1.5 5.5272 2.69391 4.33329 4.16667 4.33329H7.5C8.23638 4.33329 8.83333 3.73634 8.83333 2.99996C8.83333 2.26358 9.43029 1.66663 10.1667 1.66663H16.8333C17.5697 1.66663 18.1667 2.26358 18.1667 2.99996C18.1667 3.73634 18.7636 4.33329 19.5 4.33329H22.8333C24.3061 4.33329 25.5 5.5272 25.5 6.99996V17.6666C25.5 19.1394 24.3061 20.3333 22.8333 20.3333H4.16667C2.69391 20.3333 1.5 19.1394 1.5 17.6666V6.99996Z" stroke="black" stroke-width="2" stroke-linejoin="round"/>
</g>
</svg>
