<svg width="390" height="46" viewBox="0 0 390 46" fill="none" xmlns="http://www.w3.org/2000/svg">
<g filter="url(#filter0_ii_1_54807)">
<path d="M4.50905 4.07143L7.62444 1.41879C7.94193 1.14846 8.34529 1 8.76227 1L322.68 1.00005L380.23 1C380.652 1 381.059 1.15182 381.378 1.42768L384.942 4.5102L388.469 7.94238C388.808 8.27279 389 8.72645 389 9.20023V22.5V35.7904C389 36.2697 388.804 36.7281 388.458 37.0593L384.889 40.4694L381.4 43.927C381.07 44.2547 380.622 44.4376 380.157 44.4354L322.68 44.1663L9.22179 44.4382C8.79959 44.4386 8.39141 44.2867 8.07209 44.0105L4.50905 40.9286L0.53109 37.0576C0.191542 36.7272 0 36.2735 0 35.7998V26.0102V9.20023C0 8.72645 0.191543 8.27279 0.531091 7.94238L4.50905 4.07143Z" fill="url(#paint0_linear_1_54807)"/>
</g>
<path d="M8.27381 7.46936L10.9005 4.95629C11.2271 4.64379 11.6618 4.46936 12.1138 4.46936H165.451H377.877C378.329 4.46936 378.763 4.64378 379.09 4.95629L381.717 7.46936L384.311 9.95101C384.657 10.2821 384.852 10.7402 384.852 11.2192V22.4694V33.7195C384.852 34.1985 384.657 34.6566 384.311 34.9877L381.717 37.4694L379.09 39.9824C378.763 40.2949 378.329 40.4694 377.877 40.4694H323.708H12.1138C11.6618 40.4694 11.2271 40.2949 10.9005 39.9824L8.27381 37.4694L5.67997 34.9877C5.33391 34.6566 5.13818 34.1985 5.13818 33.7195V25.4694V11.2192C5.13818 10.7402 5.33391 10.2821 5.67997 9.95101L8.27381 7.46936Z" fill="url(#paint1_linear_1_54807)"/>
<g filter="url(#filter1_f_1_54807)">
<path d="M6.01798 35.3421L5.66927 35.7004L6.01798 35.3421C5.77516 35.1058 5.63818 34.7814 5.63818 34.4426V25.9694V11.3533C5.63818 11.0145 5.77516 10.69 6.01798 10.4538L8.64322 7.89913L11.2886 5.32496C11.5229 5.09694 11.8369 4.96936 12.1639 4.96936H233.789H378.744C379.071 4.96936 379.385 5.09694 379.62 5.32496L382.265 7.89913L384.89 10.4538C385.133 10.69 385.27 11.0144 385.27 11.3533V22.8979V34.4426C385.27 34.7814 385.133 35.1058 384.89 35.3421L382.265 37.8967L379.62 40.4709L379.968 40.8293L379.62 40.4709C379.385 40.6989 379.071 40.8265 378.744 40.8265H324.221H12.1639C11.8369 40.8265 11.5229 40.6989 11.2885 40.4709L8.64322 37.8967L6.01798 35.3421Z" stroke="#133B69"/>
</g>
<g filter="url(#filter2_d_1_54807)">
<path d="M150.82 18.26C150.82 18.26 150.68 19.04 150.7 19.42C150.7 19.8 150.66 19.7 150.34 19.8C150.04 19.92 150.08 20.46 150.14 20.92C150.2 21.38 150.1 21.62 149.84 21.56C149.56 21.5 149.78 20.94 149.74 20.56C149.7 20.18 149.42 20.32 149.28 20.7C149.16 21 148.74 20.94 148.44 20.98C148.28 21.08 148.14 21.16 147.98 21.26C147.74 21.38 147.5 21.48 147.26 21.58C147.16 21.74 146.98 22.06 146.98 22.58C146.98 22.9 146.64 22.86 146.6 22.58C146.54 22.28 146.28 22.58 146.32 22.82C146.36 23.08 146.44 23.56 146.28 23.66C146.12 23.78 145.88 23.7 145.94 23.3C145.98 22.9 146.1 22.3 145.74 22.36C145.56 22.4 145.4 22.34 145.26 22.26C145.22 22.28 145.18 22.28 145.16 22.3L144.74 26.2H144.62C144.58 26.32 144.5 26.56 144.42 26.74C144.3 27 144.18 26.84 144.02 26.68C143.86 26.54 143.72 26.78 143.74 27.04C143.78 27.28 143.84 27.78 143.72 27.88C143.6 27.98 143.42 27.9 143.46 27.5C143.5 27.1 143.58 26.5 143.3 26.58C143.12 26.62 142.92 26.48 142.82 26.38L142.5 26.42L141.48 14.78L141.68 14.7C142.04 14.58 142.52 14.46 143.06 14.34C143.62 14.22 144.24 14.12 144.9 14.04C145.56 13.96 146.24 13.92 146.92 13.92C147.58 13.92 148.24 13.98 148.88 14.1C149.52 14.24 150.1 14.48 150.62 14.78L150.7 14.84L150.74 14.94C150.96 15.58 151.06 16.22 151.06 16.8C151.06 17.32 150.98 17.82 150.82 18.26ZM145.86 15.66L145.36 20.36C145.88 20 146.28 19.58 146.58 19.1C146.96 18.5 147.16 17.88 147.16 17.3C147.16 16.96 147.08 16.62 146.92 16.3C146.78 16.02 146.56 15.78 146.28 15.6C146.2 15.6 146.12 15.62 146.02 15.62C145.98 15.64 145.9 15.66 145.86 15.66ZM159.68 18.28C160.08 18.84 160.26 19.58 160.26 20.48C160.26 20.58 160.26 20.7 160.26 20.84C160.24 21 160.24 21.1 160.22 21.16L159.72 26.16L159.28 26.2C159.24 26.34 159.28 26.52 159.32 26.7C159.38 27.02 159.26 27.34 159.04 27.24C158.8 27.14 159.04 26.48 159 26.3C159 26.28 158.98 26.24 158.96 26.24L158.66 26.26C158.64 26.26 158.62 26.28 158.6 26.3C158.4 26.42 158.28 26.62 158.1 26.4C158.08 26.36 158.06 26.34 158.04 26.32L157.5 26.36L157.28 24.26C156.92 24.84 156.46 25.32 155.92 25.7C155.9 25.72 155.88 25.74 155.86 25.74C155.82 25.8 155.8 25.84 155.78 25.9C155.6 26.36 155.12 26.56 154.94 26.46C154.86 26.42 154.76 26.34 154.66 26.3C154.5 26.34 154.34 26.38 154.16 26.42C154 26.7 154.34 27.4 154.16 27.64C153.96 27.9 153.6 27.86 153.74 27.24C153.82 26.86 153.88 26.58 153.8 26.46C153.64 26.46 153.5 26.48 153.34 26.48H153.12C153.04 26.48 152.94 26.46 152.86 26.46L152.8 26.44L152.76 26.42C152.32 26.12 151.96 25.68 151.7 25.1C151.46 24.56 151.34 23.96 151.34 23.36C151.34 22.82 151.46 22.38 151.72 22.02C151.96 21.66 152.42 21.38 153.06 21.22C153.64 21.04 154.48 20.96 155.54 20.96C155.8 20.96 156.08 20.98 156.36 21C156.56 21 156.76 21.02 156.96 21.04V21.02C156.92 20.62 156.74 20.34 156.42 20.12C156.14 19.94 155.82 19.82 155.46 19.78C155.3 19.94 155.18 19.82 155.04 19.76C154.98 19.78 154.92 19.78 154.84 19.78C154.68 19.9 154.82 20.22 154.86 20.42C154.88 20.66 154.64 20.72 154.56 20.52C154.46 20.3 154.7 19.88 154.52 19.86C154.34 19.84 154.26 19.98 154.08 20.2C153.92 20.42 153.86 20.66 153.68 20.5C153.56 20.38 153.38 20.36 153.28 20.36L153.08 20.48L152.14 17.38L152.36 17.28C152.76 17.12 153.28 16.98 153.88 16.84C154.5 16.72 155.14 16.66 155.78 16.66C156.66 16.66 157.42 16.78 158.08 17.04C158.76 17.3 159.3 17.72 159.68 18.28ZM155.3 23.12C155.28 22.84 155.26 22.6 155.24 22.4C155.08 22.4 154.92 22.42 154.74 22.46C154.72 22.52 154.7 22.6 154.66 22.68C154.62 22.8 154.6 22.96 154.6 23.16C154.6 23.32 154.62 23.5 154.68 23.7C154.72 23.8 154.74 23.88 154.78 23.94C154.9 23.92 155.06 23.86 155.22 23.82C155.22 23.62 155.32 23.32 155.3 23.12ZM155.52 23.6C155.54 23.64 155.54 23.68 155.54 23.7C155.82 23.6 156.12 23.42 156.38 23.18C156.6 22.98 156.78 22.72 156.94 22.36C156.92 22.36 156.9 22.36 156.88 22.36C156.74 22.36 156.58 22.36 156.42 22.36C156.12 22.36 155.84 22.36 155.58 22.38C155.64 22.58 155.64 22.86 155.56 22.94C155.4 23.08 155.46 23.32 155.52 23.6ZM169.427 19.08C169.467 19.24 169.507 19.48 169.507 19.7C169.527 20.08 169.467 19.98 169.167 20.08C168.847 20.2 168.887 20.74 168.947 21.2C169.007 21.66 168.927 21.9 168.647 21.84C168.487 21.8 168.487 21.62 168.507 21.38L166.327 26.9C166.047 27.6 165.767 28.16 165.467 28.56C165.167 28.98 164.807 29.3 164.427 29.48C164.347 29.52 164.267 29.56 164.167 29.58C164.027 29.68 163.847 29.8 163.707 29.76C163.427 29.68 163.507 30.28 163.547 30.68C163.587 31.08 163.407 31.16 163.287 31.06C163.167 30.96 163.227 30.46 163.267 30.22C163.287 29.96 163.147 29.72 162.987 29.86C162.827 30.02 162.707 30.18 162.587 29.92C162.507 29.76 162.387 29.68 162.287 29.64C162.187 29.6 162.107 29.58 162.027 29.54C161.627 29.42 161.247 29.2 160.887 28.9L160.707 28.76L161.467 27.46L161.667 27.54C162.027 27.66 162.367 27.74 162.707 27.74C163.147 27.74 163.547 27.6 163.887 27.36C164.187 27.12 164.387 26.74 164.487 26.22L164.207 25.52C164.187 25.5 164.187 25.5 164.187 25.48C164.047 25.12 163.747 24.96 163.727 25.34C163.687 25.72 163.907 26.28 163.627 26.34C163.347 26.42 163.267 26.16 163.327 25.7C163.387 25.24 163.427 24.7 163.107 24.58C162.807 24.48 163.007 23.72 163.007 23.34C163.007 23.18 162.967 22.78 162.907 22.38L160.807 17.28L165.127 16.6L166.187 22.7L168.227 16.64L170.187 17.16L169.427 19.08ZM186.059 24.14C186.099 24.78 186.099 25.34 186.099 25.8V26.06L185.159 26.14C184.859 26.56 184.759 27 184.819 27.36C184.879 27.76 184.679 28.04 184.439 27.82C184.179 27.6 184.659 26.8 184.359 26.62C184.079 26.42 183.779 26.5 183.599 26.64C183.439 26.8 183.299 27.54 183.119 26.62C183.099 26.5 183.059 26.4 182.999 26.32L182.419 26.36V26.06C182.419 24.96 182.419 23.98 182.399 23.16C182.359 22.34 182.339 21.58 182.299 20.92C182.279 20.56 182.259 20.22 182.219 19.88C182.179 19.9 182.099 19.9 181.979 19.94C181.679 20.04 181.719 20.6 181.779 21.06C181.839 21.5 181.739 21.76 181.479 21.7C181.199 21.64 181.399 21.08 181.379 20.7C181.339 20.32 181.059 20.46 180.919 20.84C180.879 20.92 180.839 20.96 180.779 21C180.599 21.42 180.419 21.92 180.259 22.5C180.019 23.36 179.799 24.52 179.639 25.94L179.599 26.16L179.459 26.18C179.439 26.3 179.359 26.5 179.279 26.68C179.159 26.94 179.039 26.78 178.879 26.64C178.719 26.48 178.579 26.72 178.599 26.98C178.619 27.22 178.699 27.72 178.579 27.82C178.439 27.92 178.279 27.84 178.319 27.44C178.339 27.06 178.419 26.44 178.159 26.52C177.979 26.56 177.779 26.44 177.679 26.34L177.379 26.36L176.459 17.24L180.779 16.58L180.499 18.84C180.839 18.28 181.199 17.8 181.599 17.42C182.239 16.78 182.919 16.46 183.639 16.46C183.879 16.46 184.139 16.5 184.379 16.58L184.439 16.62L184.499 16.68C184.779 17.02 185.019 17.5 185.219 18.08C185.419 18.66 185.559 19.3 185.679 19.98C185.799 20.68 185.879 21.38 185.939 22.1C185.999 22.8 186.039 23.5 186.059 24.14ZM194.824 20.38C195.104 21.04 195.224 21.8 195.224 22.62C195.224 23.44 195.104 24.14 194.884 24.72C194.644 25.3 194.204 25.76 193.584 26.06C193.104 26.3 192.484 26.44 191.704 26.48C191.564 26.6 191.324 26.78 191.024 26.68C190.584 26.54 190.624 26.88 190.764 27.5C190.884 28.12 190.544 28.16 190.344 27.9C190.144 27.64 190.544 26.88 190.304 26.62C190.064 26.38 189.764 26.6 189.564 26.72C189.384 26.82 189.224 26.44 188.664 26.36C188.284 26.32 188.124 26 188.044 25.82C187.824 25.7 187.624 25.56 187.464 25.42L187.384 25.36L187.364 25.26C187.264 24.8 187.204 24.34 187.164 23.9C187.124 23.46 187.104 23.02 187.104 22.62C187.104 21.78 187.224 21 187.464 20.28C187.704 19.56 188.004 18.92 188.384 18.36C188.744 17.82 189.124 17.36 189.504 16.98C189.884 16.62 190.224 16.36 190.504 16.22L190.624 16.16L190.764 16.22C191.284 16.5 191.824 16.82 192.344 17.22C192.864 17.6 193.344 18.08 193.784 18.6C194.204 19.12 194.564 19.72 194.824 20.38ZM191.284 22.08C191.024 22.02 191.224 21.46 191.204 21.08C191.164 20.7 190.884 20.86 190.744 21.22C190.664 21.44 190.424 21.46 190.204 21.48C189.984 21.84 189.784 22.2 189.624 22.58C189.404 23.18 189.264 23.78 189.224 24.36C189.524 24.4 189.844 24.42 190.184 24.42C190.604 24.42 191.024 24.4 191.464 24.34C191.824 24.28 192.144 24.22 192.424 24.12C192.504 23.82 192.564 23.5 192.604 23.2C192.644 22.84 192.664 22.5 192.664 22.14C192.664 21.24 192.504 20.4 192.164 19.62C192.164 19.74 192.144 19.86 192.144 19.94C192.164 20.32 192.124 20.22 191.804 20.32C191.504 20.44 191.524 20.98 191.604 21.44C191.664 21.9 191.564 22.16 191.284 22.08ZM206.742 24.5C206.742 24.54 206.742 24.58 206.742 24.62C206.762 25 206.942 25.76 206.642 25.86C206.342 25.98 206.362 26.52 206.422 26.98C206.502 27.44 206.402 27.68 206.122 27.62C205.862 27.56 206.062 27 206.042 26.62C206.002 26.24 205.702 26.4 205.562 26.76C205.122 27.44 204.482 26.36 204.482 26.36L202.142 22.62L200.662 26.08C200.662 26.08 200.382 26.6 200.102 26.54C199.822 26.46 199.902 27.06 199.942 27.46C199.982 27.86 199.802 27.94 199.682 27.84C199.562 27.72 199.622 27.24 199.662 27C199.682 26.74 199.542 26.5 199.382 26.64C199.222 26.8 199.102 26.96 198.982 26.7C198.862 26.44 198.562 26.36 198.562 26.36L195.102 17.26L199.282 16.64L200.262 22.86L202.422 17.2L204.062 17.7L205.502 22.92L207.162 16.74L209.122 17.26L206.742 24.5ZM224.084 25.78C223.944 26.7 224.384 27.3 224.304 27.76C224.224 28.24 223.644 28.14 223.764 27.46C223.864 26.76 223.964 25.96 223.764 25.8C223.724 25.76 223.664 25.76 223.604 25.76C223.584 25.76 223.584 25.78 223.584 25.78C223.464 25.86 223.344 25.96 223.224 26.04C223.144 26.12 223.084 26.22 223.044 26.34C222.864 26.78 222.724 26.98 222.284 26.66C222.184 26.6 222.064 26.54 221.924 26.52C221.624 26.58 221.284 26.62 220.924 26.64C220.844 26.68 220.764 26.74 220.704 26.8C220.524 26.98 220.264 26.84 220.024 26.66C219.424 26.64 218.764 26.56 218.064 26.4C217.304 26.24 216.544 25.94 215.824 25.56L215.584 25.42L216.684 23.36L216.924 23.52C217.624 23.96 218.344 24.28 219.064 24.46C219.704 24.64 220.304 24.74 220.884 24.78C220.924 24.6 220.964 24.42 221.004 24.2C221.064 23.92 221.084 23.52 221.084 23.04C221.084 22.78 221.084 22.48 221.064 22.16C221.064 21.9 221.044 21.66 221.004 21.44C220.904 21.4 220.804 21.3 220.664 21.36C220.464 21.44 220.624 21.78 220.644 22.02C220.684 22.24 220.444 22.32 220.344 22.1C220.264 21.88 220.504 21.48 220.324 21.46C220.144 21.44 220.044 21.58 219.884 21.8C219.704 22 219.664 22.26 219.484 22.08C219.304 21.9 219.004 21.94 219.004 21.94L218.244 20.98L218.664 20.58C219.184 20.08 219.564 19.54 219.764 18.98C219.984 18.4 220.104 17.92 220.104 17.5C220.104 17.16 220.024 16.82 219.864 16.54C219.744 16.3 219.564 16.1 219.344 15.92L219.104 16.1C219.084 16.26 219.064 16.42 219.084 16.56C219.084 16.94 219.044 16.82 218.724 16.94C218.424 17.04 218.464 17.58 218.524 18.04C218.584 18.5 218.484 18.76 218.224 18.7C217.944 18.62 218.144 18.08 218.124 17.68C218.084 17.3 217.804 17.46 217.664 17.82C217.544 18.12 217.084 17.76 216.764 17.8L215.604 15.4L215.824 15.26C216.204 15.04 216.564 14.86 216.904 14.7C217.284 14.54 217.704 14.4 218.164 14.32C218.624 14.24 219.204 14.18 219.904 14.18C220.564 14.18 221.224 14.26 221.844 14.38C222.504 14.52 223.084 14.74 223.584 15.06L223.684 15.12L223.704 15.2C223.824 15.54 223.884 15.88 223.884 16.2C223.884 16.8 223.724 17.4 223.404 18C223.184 18.42 222.884 18.84 222.524 19.24C222.704 19.26 222.884 19.3 223.064 19.36L223.124 19.38L223.164 19.42C223.604 19.84 223.964 20.34 224.244 20.88C224.524 21.44 224.664 22.2 224.664 23.14C224.664 23.82 224.524 24.4 224.284 24.9C224.204 25.16 224.144 25.46 224.084 25.78ZM234.561 18.12C234.721 18.98 234.781 19.78 234.781 20.5C234.781 21.42 234.681 22.26 234.501 23C234.321 23.72 234.081 24.36 233.801 24.88C233.801 24.9 233.781 24.9 233.781 24.9C233.621 26.04 233.741 26.44 233.741 27.08C233.761 27.82 233.861 28.06 233.541 28.02C233.241 27.98 233.601 27.12 233.521 26.8C233.441 26.48 232.881 26.56 232.741 26.74C232.621 26.9 232.321 26.96 232.121 26.6C232.081 26.54 232.041 26.48 231.981 26.44C231.821 26.48 231.681 26.52 231.521 26.54C231.141 26.62 230.781 26.64 230.421 26.64C229.761 26.64 229.141 26.56 228.561 26.4C227.961 26.22 227.421 25.92 226.961 25.5L226.921 25.46L226.901 25.4C226.501 24.46 226.241 23.56 226.101 22.7C225.941 21.86 225.881 21.06 225.881 20.32C225.881 19.4 225.961 18.58 226.161 17.84C226.341 17.1 226.581 16.46 226.881 15.94C227.161 15.42 227.441 15 227.721 14.68L227.781 14.64L227.841 14.62C228.341 14.46 228.761 14.34 229.141 14.28C229.521 14.22 229.881 14.18 230.241 14.18C230.901 14.18 231.521 14.26 232.101 14.44C232.701 14.62 233.241 14.92 233.701 15.34L233.741 15.38L233.761 15.42C234.141 16.36 234.421 17.28 234.561 18.12ZM230.301 19.02C230.041 18.96 230.241 18.4 230.221 18.02C230.201 17.86 230.141 17.8 230.081 17.8C229.981 17.98 229.901 18.14 229.801 18.34C229.421 19.12 229.141 19.94 228.941 20.8C228.741 21.64 228.641 22.46 228.641 23.24C228.641 23.48 228.661 23.72 228.681 23.96C228.681 24.1 228.701 24.26 228.721 24.42C228.981 24.46 229.261 24.48 229.581 24.5C230.081 23.92 230.521 23.24 230.861 22.5C231.241 21.72 231.521 20.9 231.721 20.04C231.921 19.2 232.021 18.38 232.021 17.6C232.021 17.34 232.001 17.1 231.981 16.88C231.981 16.72 231.961 16.56 231.941 16.42C231.721 16.38 231.481 16.34 231.201 16.34C231.181 16.52 231.161 16.72 231.161 16.88C231.181 17.26 231.141 17.16 230.821 17.26C230.521 17.38 230.541 17.92 230.621 18.38C230.681 18.84 230.581 19.08 230.301 19.02ZM245.029 18.12C245.189 18.98 245.249 19.78 245.249 20.5C245.249 21.42 245.149 22.26 244.969 23C244.789 23.72 244.549 24.36 244.269 24.88C244.269 24.9 244.249 24.9 244.249 24.9C244.089 26.04 244.209 26.44 244.209 27.08C244.229 27.82 244.329 28.06 244.009 28.02C243.709 27.98 244.069 27.12 243.989 26.8C243.909 26.48 243.349 26.56 243.209 26.74C243.089 26.9 242.789 26.96 242.589 26.6C242.549 26.54 242.509 26.48 242.449 26.44C242.289 26.48 242.149 26.52 241.989 26.54C241.609 26.62 241.249 26.64 240.889 26.64C240.229 26.64 239.609 26.56 239.029 26.4C238.429 26.22 237.889 25.92 237.429 25.5L237.389 25.46L237.369 25.4C236.969 24.46 236.709 23.56 236.569 22.7C236.409 21.86 236.349 21.06 236.349 20.32C236.349 19.4 236.429 18.58 236.629 17.84C236.809 17.1 237.049 16.46 237.349 15.94C237.629 15.42 237.909 15 238.189 14.68L238.249 14.64L238.309 14.62C238.809 14.46 239.229 14.34 239.609 14.28C239.989 14.22 240.349 14.18 240.709 14.18C241.369 14.18 241.989 14.26 242.569 14.44C243.169 14.62 243.709 14.92 244.169 15.34L244.209 15.38L244.229 15.42C244.609 16.36 244.889 17.28 245.029 18.12ZM240.769 19.02C240.509 18.96 240.709 18.4 240.689 18.02C240.669 17.86 240.609 17.8 240.549 17.8C240.449 17.98 240.369 18.14 240.269 18.34C239.889 19.12 239.609 19.94 239.409 20.8C239.209 21.64 239.109 22.46 239.109 23.24C239.109 23.48 239.129 23.72 239.149 23.96C239.149 24.1 239.169 24.26 239.189 24.42C239.449 24.46 239.729 24.48 240.049 24.5C240.549 23.92 240.989 23.24 241.329 22.5C241.709 21.72 241.989 20.9 242.189 20.04C242.389 19.2 242.489 18.38 242.489 17.6C242.489 17.34 242.469 17.1 242.449 16.88C242.449 16.72 242.429 16.56 242.409 16.42C242.189 16.38 241.949 16.34 241.669 16.34C241.649 16.52 241.629 16.72 241.629 16.88C241.649 17.26 241.609 17.16 241.289 17.26C240.989 17.38 241.009 17.92 241.089 18.38C241.149 18.84 241.049 19.08 240.769 19.02Z" fill="white"/>
</g>
<defs>
<filter id="filter0_ii_1_54807" x="0" y="0.122449" width="389" height="45.1933" filterUnits="userSpaceOnUse" color-interpolation-filters="sRGB">
<feFlood flood-opacity="0" result="BackgroundImageFix"/>
<feBlend mode="normal" in="SourceGraphic" in2="BackgroundImageFix" result="shape"/>
<feColorMatrix in="SourceAlpha" type="matrix" values="0 0 0 0 0 0 0 0 0 0 0 0 0 0 0 0 0 0 127 0" result="hardAlpha"/>
<feOffset dy="0.877551"/>
<feGaussianBlur stdDeviation="0.570408"/>
<feComposite in2="hardAlpha" operator="arithmetic" k2="-1" k3="1"/>
<feColorMatrix type="matrix" values="0 0 0 0 1 0 0 0 0 1 0 0 0 0 1 0 0 0 0.46 0"/>
<feBlend mode="normal" in2="shape" result="effect1_innerShadow_1_54807"/>
<feColorMatrix in="SourceAlpha" type="matrix" values="0 0 0 0 0 0 0 0 0 0 0 0 0 0 0 0 0 0 127 0" result="hardAlpha"/>
<feOffset dy="-0.877551"/>
<feGaussianBlur stdDeviation="0.570408"/>
<feComposite in2="hardAlpha" operator="arithmetic" k2="-1" k3="1"/>
<feColorMatrix type="matrix" values="0 0 0 0 0 0 0 0 0 0 0 0 0 0 0 0 0 0 0.25 0"/>
<feBlend mode="normal" in2="effect1_innerShadow_1_54807" result="effect2_innerShadow_1_54807"/>
</filter>
<filter id="filter1_f_1_54807" x="1.13818" y="0.46936" width="388.632" height="44.8571" filterUnits="userSpaceOnUse" color-interpolation-filters="sRGB">
<feFlood flood-opacity="0" result="BackgroundImageFix"/>
<feBlend mode="normal" in="SourceGraphic" in2="BackgroundImageFix" result="shape"/>
<feGaussianBlur stdDeviation="2" result="effect1_foregroundBlur_1_54807"/>
</filter>
<filter id="filter2_d_1_54807" x="139.546" y="11.9863" width="107.637" height="21.1075" filterUnits="userSpaceOnUse" color-interpolation-filters="sRGB">
<feFlood flood-opacity="0" result="BackgroundImageFix"/>
<feColorMatrix in="SourceAlpha" type="matrix" values="0 0 0 0 0 0 0 0 0 0 0 0 0 0 0 0 0 0 127 0" result="hardAlpha"/>
<feOffset/>
<feGaussianBlur stdDeviation="0.966878"/>
<feComposite in2="hardAlpha" operator="out"/>
<feColorMatrix type="matrix" values="0 0 0 0 0 0 0 0 0 0 0 0 0 0 0 0 0 0 0.25 0"/>
<feBlend mode="normal" in2="BackgroundImageFix" result="effect1_dropShadow_1_54807"/>
<feBlend mode="normal" in="SourceGraphic" in2="effect1_dropShadow_1_54807" result="shape"/>
</filter>
<linearGradient id="paint0_linear_1_54807" x1="68.0866" y1="55.4082" x2="68.3838" y2="-5.58233" gradientUnits="userSpaceOnUse">
<stop stop-color="#1A4270"/>
<stop offset="1" stop-color="#6EC2FF"/>
</linearGradient>
<linearGradient id="paint1_linear_1_54807" x1="68.9706" y1="40.4694" x2="68.1505" y2="4.46763" gradientUnits="userSpaceOnUse">
<stop stop-color="#183D68"/>
<stop offset="1" stop-color="#3079CE"/>
</linearGradient>
</defs>
</svg>
