<svg width="104" height="95" viewBox="0 0 104 95" fill="none" xmlns="http://www.w3.org/2000/svg">
<path d="M21.8097 57.8218C21.6185 58.5341 21.4968 59.27 21.3788 59.9823C21.2536 60.7418 21.1237 61.5261 20.91 62.2762C20.3928 64.0846 19.5933 64.9563 18.5259 64.8335C17.3852 64.713 16.5255 63.5601 15.8347 62.6341C15.7096 62.4651 15.5868 62.3021 15.4687 62.151C14.6504 61.108 13.7057 60.15 12.7918 59.2228C12.1872 58.6097 11.5625 57.9766 10.9815 57.3257C10.9461 57.2844 10.8906 57.2679 10.8363 57.2797C10.7832 57.2927 10.7418 57.334 10.7288 57.3872C10.6993 57.5029 10.6887 57.6234 10.6946 57.7545C10.7076 58.0132 10.4903 58.0983 10.423 58.1171C10.2636 58.1632 10.0558 58.1313 9.95068 57.9506C8.69427 55.7831 8.34474 53.2565 8.00584 50.8138L7.90548 50.098C7.49692 47.2135 7.08717 44.1141 6.86163 41.004C6.76716 39.6964 6.75534 38.3593 6.74353 37.0647C6.72818 35.2834 6.71165 33.4407 6.47903 31.6418C6.18028 29.329 5.7115 26.9619 4.32285 25.3188C4.12328 25.0826 3.91901 24.8806 3.71472 24.7188L3.65685 24.6704C3.40179 24.4577 3.14555 24.2569 2.90939 24.2853C2.58112 24.3325 2.41816 24.766 2.2989 25.0826C2.27882 25.1346 2.2623 25.1818 2.24577 25.2184L2.13358 25.4783C1.88915 26.0476 1.63646 26.6347 1.45225 27.243C1.33652 27.6233 1.23733 28.0131 1.1405 28.3911C1.03187 28.8152 0.919685 29.2534 0.786247 29.6763C0.704773 29.9338 0.476875 29.994 0.292664 29.942C0.108452 29.8901 -0.0485916 29.7223 0.0139923 29.4648V29.4637C0.223 28.599 0.208832 27.7096 0.194664 26.8497C0.192299 26.6701 0.188759 26.4894 0.187584 26.311C0.182861 25.4594 0.243073 24.5924 0.303291 23.7526C0.319824 23.5104 0.337547 23.2683 0.352898 23.0261C0.430832 21.8083 0.511124 20.5917 0.591423 19.3739C0.663452 18.2824 0.735481 17.191 0.805153 16.0996C0.949211 13.8565 1.04012 11.585 1.11688 9.4636C1.19127 7.38705 1.33415 5.16758 1.87025 2.99772L1.94347 2.69062C2.18909 1.65116 2.52443 0.226643 3.65921 0.0282015C5.06794 -0.21985 6.4625 1.2153 7.51817 2.49218C8.99657 4.28406 10.2482 5.71802 11.4598 7.00435C12.9689 8.61077 14.5004 10.1605 16.0107 11.6098C17.6048 13.1383 19.0561 14.4979 20.6809 15.6661C22.1829 16.7469 23.7865 17.6741 25.4467 18.4242C28.7412 19.9125 32.5187 20.7559 36.3682 20.8622C40.0004 20.9555 43.2737 20.2042 46.0971 18.6073C48.6618 17.1568 50.9845 15.1405 53.4064 12.2607C53.6272 11.9985 53.8457 11.7327 54.0677 11.4669C55.5898 9.63017 57.1638 7.73196 59.2137 6.47753C61.6061 5.01521 64.6302 4.72701 67.0993 5.72631C69.0382 6.50944 70.5828 8.19145 71.6892 10.7263C72.7649 13.1891 73.3069 15.874 73.732 18.41C73.8277 18.9817 73.9198 19.5546 74.0119 20.1263C74.3106 21.9772 74.62 23.892 75.0416 25.7606C75.7489 28.879 77.0112 32.5383 80.5348 33.1643C82.038 33.4301 83.6581 32.9163 85.4895 31.5969C86.8416 30.6212 88.2173 29.3585 89.5776 27.8454C92.2557 24.8641 94.1167 21.2709 95.7569 18.0993C96.5551 16.5555 97.4301 14.9609 98.5082 13.0793C98.7396 12.6741 98.9546 12.2536 99.1612 11.8461C99.4966 11.1858 99.8437 10.5042 100.27 9.8853C100.546 9.48369 101.094 8.80331 101.65 8.75606C101.882 8.73717 102.094 8.82931 102.299 9.0372C102.891 9.64315 102.958 10.7428 103.012 11.6264C103.021 11.7811 103.031 11.9299 103.041 12.0705C103.25 14.7164 103.35 17.4107 103.445 20.0164C103.507 21.6807 103.569 23.4006 103.66 25.0944C103.687 25.5952 103.716 26.0972 103.744 26.5992C103.961 30.4417 104.187 34.4152 103.752 38.2837C103.722 38.5577 103.69 38.8306 103.658 39.1046C103.462 40.7819 103.26 42.5183 103.356 44.2393C103.36 44.3113 103.415 44.3692 103.485 44.3775C103.526 44.3822 103.554 44.4318 103.555 44.4731C103.556 44.5038 103.546 44.5086 103.522 44.5121C103.071 44.5865 102.664 44.5369 102.312 44.3692C102.208 44.3196 102.104 44.2617 101.999 44.2038C101.647 44.0101 101.273 43.8152 100.847 43.8495C99.8402 43.9428 99.323 45.0354 98.9451 45.8327C98.9014 45.9236 98.8601 46.0111 98.8199 46.0937C98.2142 47.3281 97.6863 48.6203 97.1774 49.8688C96.6283 51.2154 96.0592 52.6069 95.3943 53.9251C92.9134 58.8365 89.8126 62.725 86.178 65.4831C84.2119 66.975 82.012 68.2034 79.8842 69.3917C79.1568 69.798 78.4294 70.2044 77.7102 70.6201C77.565 70.704 77.4174 70.6922 77.3052 70.5894C77.1966 70.489 77.1198 70.2953 77.2096 70.1004C77.7716 68.8826 78.1519 67.5467 78.342 66.1292C78.3514 66.056 78.3054 65.9863 78.2345 65.9674C78.1601 65.9473 78.0869 65.9851 78.0598 66.0536C76.8045 69.0822 74.7121 72.086 71.8403 74.9811C70.2533 76.5805 68.377 77.8526 66.5644 79.0834C65.3765 79.889 64.1472 80.7229 63.0018 81.6454C61.671 82.7168 60.0557 84.2004 59.3826 86.1777C59.2976 86.4246 59.0791 86.4777 58.8984 86.4269C58.7437 86.3809 58.5867 86.2367 58.6505 85.9828C59.0212 84.5122 59.2952 83.0003 59.5609 81.5379C59.9045 79.6409 60.2611 77.679 60.8291 75.808C60.8492 75.743 60.822 75.6721 60.763 75.6379C60.7027 75.6048 60.6295 75.6131 60.5823 75.6627C59.9954 76.2698 59.3082 76.9714 58.5749 77.6175C57.4354 78.6227 56.1684 79.5276 54.9427 80.404C54.677 80.5942 54.4113 80.7843 54.1468 80.9745C51.4155 82.9436 48.5437 85.0934 46.0971 87.8018C44.6907 89.3598 43.5949 90.8942 42.7506 92.4912C42.6561 92.6672 42.4648 92.6861 42.3314 92.6495C42.1968 92.6129 42.0421 92.5006 42.0504 92.3022C42.1035 91.0856 42.1247 89.8489 42.146 88.6535L42.1673 87.4888C42.1684 87.4286 42.133 87.3743 42.0787 87.3506C42.0232 87.327 41.9594 87.3388 41.9169 87.3801C41.3714 87.9105 40.7963 88.4279 40.239 88.9287C38.4465 90.541 36.5937 92.2077 35.5003 94.5217C35.4046 94.7213 35.2641 94.7237 35.1555 94.6953C34.9689 94.6398 34.7918 94.4272 34.8237 94.2004C35.2228 91.3986 34.7162 88.6358 34.2274 85.9639C34.1435 85.5079 34.0597 85.052 33.9806 84.5949C33.5755 82.2703 33.5437 79.9209 33.5614 78.1337C33.5626 78.0593 33.5094 77.9979 33.4362 77.9861C33.4291 77.9849 33.4209 77.9849 33.4138 77.9849C33.35 77.9849 33.2921 78.0262 33.2721 78.0888C33.0619 78.7728 32.8292 79.4992 32.5081 80.189C32.0416 81.1919 31.4689 82.164 30.9151 83.1042C30.5526 83.7196 30.1771 84.3563 29.8347 84.9977C28.3882 87.7026 26.8909 90.9627 26.7551 94.6339C26.7468 94.8571 26.5673 94.9788 26.4044 94.9977C26.2544 95.0131 26.0855 94.954 26.03 94.7402C25.6959 93.468 25.331 92.1805 24.9779 90.9367C24.5174 89.3126 24.0415 87.6329 23.6282 85.9686C22.9587 83.2613 22.5206 80.4678 22.327 77.6636C22.1758 75.4725 22.2549 73.2554 22.3305 71.1127C22.3541 70.4359 22.3777 69.759 22.3954 69.0799C22.4356 67.4663 22.425 65.8257 22.4155 64.2405C22.4084 63.1396 22.4014 62.0021 22.412 60.8847C22.4297 58.9782 22.497 57.4084 22.6222 55.9426C22.6281 55.867 22.5761 55.7985 22.5017 55.7843C22.4238 55.7701 22.3541 55.8162 22.3329 55.8882C22.1888 56.3891 22.0554 56.8934 21.9231 57.3931L21.8097 57.8218ZM100.335 32.1024C100.31 32.6293 100.284 33.1561 100.261 33.6829C100.256 33.7951 100.335 33.8861 100.446 33.8955C100.452 33.8967 100.459 33.8967 100.465 33.8967C100.573 33.8967 100.666 33.8164 100.679 33.7065C101.271 28.7526 101.184 23.4171 100.418 17.8501C100.407 17.771 100.304 17.706 100.231 17.7084C100.139 17.7202 100.075 17.7993 100.083 17.8891C100.37 20.5232 100.52 23.1797 100.53 25.7819C100.538 27.8938 100.434 30.033 100.335 32.1024ZM83.6486 63.2459C83.6864 63.2861 83.736 63.3062 83.7856 63.3062C83.8305 63.3062 83.8754 63.2896 83.9108 63.2565C85.4955 61.8072 87.0164 60.1902 88.4334 58.4514C92.7457 53.1549 96.1607 46.5816 98.8707 38.3545C98.8955 38.2777 98.8447 38.1738 98.768 38.1478C98.69 38.1218 98.5861 38.1726 98.5578 38.2482C97.7678 40.3815 96.9377 42.4533 96.0899 44.4034C92.8485 51.8615 88.6636 58.1148 83.6545 62.9872C83.5813 63.0581 83.579 63.1715 83.6486 63.2459ZM76.5696 50.9733C76.6203 51.0359 76.6888 51.0689 76.7597 51.0689C76.8057 51.0689 76.8518 51.0548 76.8931 51.0264C78.6974 49.7555 80.3458 48.2482 81.8786 46.8131C88.8089 40.3248 93.1449 33.964 95.1381 27.3682C95.1499 27.3304 95.1405 27.282 95.1216 27.2465C95.1027 27.2123 95.0673 27.1768 95.0295 27.1662C94.9551 27.1379 94.8524 27.1946 94.8276 27.2713C94.1816 29.2688 93.2818 31.2898 92.1565 33.2789C90.3687 36.4327 88.0413 39.5428 85.0397 42.7864C83.7537 44.1755 82.3497 45.5681 80.8654 46.923C80.112 47.6116 79.3221 48.2849 78.5581 48.9357C77.9086 49.4897 77.2379 50.0614 76.5908 50.6402C76.4963 50.7264 76.4869 50.8693 76.5696 50.9733ZM75.8882 44.7023C76.22 44.798 76.5625 44.8464 76.9144 44.8464C77.9818 44.8464 79.1355 44.4058 80.3565 43.5294C82.3662 42.0871 83.9911 40.0661 85.1814 38.4667L85.7092 37.758C88.9494 33.4112 92.3006 28.9156 94.4686 23.8707C94.5005 23.7963 94.4603 23.6935 94.3871 23.6604C94.3127 23.6285 94.2147 23.664 94.1793 23.736C92.8674 26.6737 91.1339 29.3396 89.6118 31.5591C88.1476 33.6947 86.5995 35.7606 84.8732 38.0451C83.6038 39.7224 82.0533 41.6253 80.1699 43.0155C78.5427 44.2145 77.075 44.5865 75.8067 44.1211C73.895 43.4207 72.7862 41.2685 71.8958 39.3066C71.8498 39.2038 71.7341 39.1625 71.6266 39.2073C71.5191 39.2522 71.4696 39.3668 71.5109 39.4708C72.3457 41.5603 73.5974 44.042 75.8882 44.7023ZM67.3957 26.8532C67.5917 27.0363 67.822 27.1284 68.0794 27.1284C68.0995 27.1284 68.1195 27.1284 68.1408 27.1272C68.9591 27.0824 69.605 26.1634 69.8589 25.3295C70.271 23.9699 70.0065 22.3777 69.6593 20.8598C69.3476 19.5003 68.7808 17.6127 67.4536 16.9323C67.4417 16.9264 67.4287 16.9217 67.4158 16.9193C67.3024 16.8957 67.2906 16.9004 67.2564 16.9158C67.2186 16.9323 67.104 16.9819 66.9942 17.3954C66.8277 18.0332 66.8419 18.723 66.8525 19.3302C66.8584 19.6373 66.8749 19.9432 66.8938 20.2479C66.9057 20.4523 66.9174 20.6578 66.9245 20.8633C66.9505 21.5059 66.8785 22.1603 66.8088 22.7934C66.7439 23.3876 66.6766 24.003 66.6872 24.6172C66.6931 24.8842 66.7498 26.252 67.3957 26.8532ZM61.129 32.7332C61.2388 33.1478 61.4219 33.5341 61.599 33.9073C61.8753 34.4896 62.1363 35.0389 62.1351 35.6803C62.1339 36.1941 61.9497 36.6571 61.7537 37.1485C61.6049 37.5253 61.449 37.9151 61.3864 38.3274C61.3794 38.3722 61.3935 38.4183 61.4242 38.4514C61.4526 38.4809 61.4915 38.4975 61.5317 38.4975C61.5352 38.4975 61.54 38.4975 61.5447 38.4975C62.2945 38.4313 62.853 38.1053 63.2061 37.53C63.6962 36.728 63.7682 35.7642 63.7741 34.9267C63.7812 34.0373 63.6796 33.1017 63.4529 31.9831L63.4399 31.917C63.4328 31.8839 63.4139 31.8532 63.388 31.832C63.2746 31.741 63.1447 31.5815 63.0089 31.4138C62.6854 31.0146 62.3181 30.5622 61.8328 30.5622C61.7643 30.5622 61.7017 30.5704 61.638 30.587C61.4419 30.6378 61.2861 30.7583 61.1774 30.9437C60.8279 31.5426 61.0971 32.6127 61.129 32.7332ZM57.7932 23.3486C57.9219 23.964 58.1368 24.7235 58.667 25.1204C58.8252 25.2385 59.0047 25.2987 59.196 25.2987C59.2598 25.2987 59.3235 25.2928 59.3897 25.2787C59.8691 25.1806 60.3178 24.7329 60.5327 24.3585C60.9082 23.7018 60.9991 22.921 61.0865 22.165C61.1019 22.0268 61.1184 21.891 61.1349 21.7563C61.2813 20.6318 61.5352 19.8251 61.9863 19.0573C62.4492 18.2694 62.8826 17.6836 63.349 17.2146C63.3974 17.1674 63.4057 17.093 63.3714 17.0351C63.3443 16.989 63.3124 16.9489 63.2758 16.9158C62.9711 16.6512 62.4102 16.637 61.6084 16.8721C60.7405 17.1272 60.1017 17.7025 59.5408 18.2872C58.778 19.0809 58.2478 19.9302 57.962 20.809C57.6798 21.6807 57.6231 22.5336 57.7932 23.3486ZM4.68771 4.83331C4.71015 4.85693 4.72787 4.87702 4.73968 4.88765C5.96066 6.07357 6.62663 7.82174 7.21469 9.36438C7.2513 9.45651 7.35168 9.50023 7.44024 9.46715C7.51581 9.43762 7.56541 9.3254 7.53706 9.2498C6.86163 7.42485 6.09526 5.35541 4.42085 4.08916C4.35826 4.04192 4.27444 4.03836 4.20358 4.07734C4.13274 4.1175 4.09139 4.19311 4.0973 4.26989C4.67 10.0188 6.20509 15.685 7.68939 21.1634L8.06136 22.5395C8.08615 22.6292 8.16171 22.6871 8.25027 22.6871C8.26681 22.6871 8.28335 22.6848 8.29988 22.6812C8.40852 22.6552 8.47464 22.5489 8.44984 22.4403C8.06607 20.7819 7.64215 19.1057 7.2324 17.4851C6.6101 15.0259 5.96774 12.4816 5.4529 9.95381C5.21555 8.79151 5.0337 7.81939 4.88137 6.89451C4.77864 6.27084 4.68653 5.65543 4.6086 5.06601C4.60387 5.03176 4.59562 4.98332 4.58499 4.93017C4.57436 4.87465 4.55663 4.77544 4.54719 4.69276C4.58734 4.72938 4.63339 4.77543 4.68771 4.83331ZM12.9051 39.6869C11.9994 36.0677 11.0618 32.3245 9.50197 28.7904C9.48071 28.7431 9.42757 28.7018 9.37561 28.6959C9.32484 28.6912 9.25635 28.7183 9.22565 28.7608C9.19376 28.8034 9.18551 28.8754 9.20676 28.9238C10.5446 32.0635 11.3736 35.4275 12.1766 38.6805C12.2923 39.1483 12.4068 39.6161 12.5237 40.085C12.9476 41.7812 13.4518 43.7514 14.0647 45.665C14.6622 47.5289 15.2739 49.3326 16.1961 50.9272C16.2351 50.9945 16.3047 51.0312 16.3779 51.0312C16.4122 51.0312 16.4464 51.0229 16.4795 51.0075C16.5799 50.9579 16.6212 50.8481 16.5798 50.7465L16.2374 49.9326C15.5986 48.4219 14.9385 46.8592 14.4307 45.2527C13.8391 43.3829 13.3526 41.4776 12.9051 39.6869ZM31.3556 29.4507C31.7275 29.4826 32.1031 29.4979 32.4821 29.4979C34.617 29.4979 36.8382 28.9971 38.9719 28.0273C44.8052 25.3767 49.244 20.659 52.9447 16.4445C52.9978 16.3842 52.9919 16.2732 52.9305 16.2201C52.8715 16.1669 52.7628 16.1716 52.7073 16.2319C50.7129 18.4183 48.3678 20.933 45.7841 23.1124C40.4007 27.6505 35.2641 29.5877 30.5054 28.8695C26.1516 28.2116 21.9845 25.5858 17.3911 20.6047C17.3226 20.5291 17.2104 20.5243 17.1325 20.594C17.0546 20.6649 17.0486 20.7807 17.1171 20.8575C19.6323 23.6628 21.9101 25.6295 24.2859 27.0469C26.6275 28.4419 29.0045 29.251 31.3556 29.4507ZM28.3622 35.8209C28.3917 35.8386 28.4236 35.848 28.4555 35.848C28.5145 35.848 28.5723 35.8185 28.6066 35.7642C28.6597 35.6791 28.6361 35.5704 28.5535 35.5161C25.6463 33.6486 23.0414 31.3477 20.8084 28.677C18.5719 26.0004 16.7015 23.0273 14.9763 20.2125C14.9503 20.1688 14.8948 20.1381 14.8429 20.1381H14.8417C14.7874 20.1393 14.7295 20.1735 14.7047 20.2208C14.6787 20.268 14.6811 20.3342 14.7106 20.3791C16.4169 23.2128 18.2743 26.2118 20.512 28.9321C22.8335 31.7481 25.4751 34.0656 28.3622 35.8209Z" fill="black"/>
</svg>
