<svg width="85" height="121" viewBox="0 0 85 121" fill="none" xmlns="http://www.w3.org/2000/svg">
<path d="M81.8916 120.817C81.6141 120.262 81.3091 119.717 80.974 119.187C79.3778 113.534 71.5372 111.508 65.5908 109.837C62.3697 108.931 59.3477 107.911 56.6431 106.142C53.992 104.409 51.7681 102.254 49.9412 99.8899C49.1761 98.9009 48.4769 97.8691 47.8451 96.805C48.5209 97.6577 49.264 98.4711 50.0882 99.2302C52.3052 101.27 54.9714 102.879 57.8958 104.125C59.8038 104.937 61.8148 105.547 63.7845 106.242C64.7777 106.594 65.7612 106.962 66.7378 107.341C67.7611 107.738 68.7666 108.196 69.8312 108.508C70.0111 108.56 70.1828 108.365 70.0139 108.255C68.5647 107.319 66.8436 106.61 65.2406 105.877C63.6142 105.134 61.9535 104.479 60.2612 103.853C57.2749 102.747 54.4659 101.318 52.106 99.4081C49.753 97.5028 47.9343 95.177 46.5278 92.7079C45.8176 91.4635 45.1555 90.1844 44.6088 88.8742C44.2036 87.1514 43.977 85.4033 43.9481 83.6586C43.9 80.7458 44.4824 77.9277 45.9879 75.2899C47.6555 72.3632 50.0648 69.7959 52.2709 67.15C54.6294 64.3215 56.6211 61.292 58.4686 58.2094C58.7598 57.7218 59.0469 57.233 59.3299 56.742C59.187 57.1984 59.0442 57.6548 58.8958 58.11C57.6019 62.0858 55.9989 65.9322 53.47 69.4793C52.0071 71.5325 51.0538 73.6804 50.3643 75.9924C50.3066 76.1842 50.65 76.2558 50.7448 76.0883C51.8176 74.2212 52.7654 72.2893 53.9741 70.4788C54.0016 70.4372 54.0305 70.3956 54.0579 70.354C54.6294 69.7 55.0909 68.9536 55.5799 68.265C56.1967 67.3973 56.8368 66.5411 57.4631 65.678C58.7145 63.9518 60.0524 62.2707 61.4892 60.6496C64.3683 57.4017 67.7351 54.4889 70.5084 51.1717C71.1554 50.3964 71.7584 49.598 72.327 48.7811C72.0757 49.6777 71.7955 50.5697 71.3875 51.4294C70.8449 52.5767 69.9809 53.5784 69.0304 54.5086C68.5455 54.9834 68.0496 55.4514 67.5785 55.9355C67.1513 56.3734 66.6513 56.8633 66.4177 57.3983C66.3697 57.5126 66.5084 57.6062 66.6307 57.5438C66.698 57.5103 66.7625 57.4734 66.8271 57.4341C66.8642 57.5057 66.9823 57.5542 67.0606 57.4953C69.2405 55.8315 71.9095 54.5132 73.6828 52.4993C73.9589 52.1839 74.2075 51.8511 74.4301 51.5056C74.4026 51.5946 74.3779 51.6836 74.349 51.7725C73.8284 53.3947 73.165 54.9892 72.3298 56.5167C70.6911 59.5104 68.2694 62.1332 65.5222 64.4706C64.2007 65.596 62.5235 66.8658 62.1664 68.5018C62.1375 68.6301 62.3518 68.7179 62.4466 68.607C62.9906 67.9738 63.5126 67.358 64.1636 66.7953C64.8189 66.2303 65.5153 65.6953 66.1897 65.1454C66.2653 65.0841 66.3395 65.0194 66.415 64.957C72.3806 61.8732 77.3229 57.2319 80.6429 52.0868C84.1814 46.6067 85.8283 40.216 84.5921 34.0207C84.2281 32.1963 83.2982 28.9299 80.2776 29.5966C78.8023 29.9224 77.6759 30.9507 76.6182 31.815C75.6375 32.6192 74.5248 33.6267 73.1444 33.9155C71.4919 34.2622 70.1801 33.0894 69.3875 32.0172C68.312 30.5637 67.746 28.8559 67.132 27.236C65.6925 23.4347 63.4631 19.824 60.8958 16.4768C56.4975 10.7448 50.4027 5.50032 43.1473 2.34718C39.727 0.860153 35.5869 -0.29642 31.6899 0.0675366C27.3438 0.474244 24.282 3.39399 22.826 6.69733C21.3219 10.1139 21.4208 13.9141 21.8919 17.4843C22.3686 21.0869 23.2916 24.6398 23.6488 28.254C23.9922 31.7491 24.0787 35.6244 22.4043 38.9058C21.6364 40.4078 20.5046 41.502 18.5224 41.7828C16.7491 42.0347 14.9332 41.8567 13.1488 42.0277C8.97578 42.4275 5.99641 44.8597 4.15851 47.8996C2.33572 50.9175 1.35633 54.3768 0.63381 57.6894C-0.857939 64.5156 0.232715 71.8618 4.44698 77.9C5.02527 78.7284 5.7052 79.5164 6.34394 80.3125C7.05547 81.1987 7.79722 82.0665 8.57881 82.9099C8.62689 82.9631 8.69145 82.9804 8.75051 82.9746C9.10353 83.8458 9.42359 84.7228 9.73403 85.609C10.2574 87.1064 10.7299 88.6419 10.4826 90.2156C10.4675 90.3057 10.6392 90.3589 10.6736 90.263C11.5417 87.899 10.8549 85.2069 9.93732 82.933C8.86315 80.2732 7.47304 77.7105 6.45794 75.0311C5.40987 72.2639 4.75192 69.3742 5.03077 66.4602C5.2739 63.9322 6.19834 61.448 7.46069 59.1533C8.20107 57.805 9.09941 56.504 10.2271 55.3578C11.0431 54.5282 12.1118 53.672 13.2972 53.1498C13.3164 53.1405 13.3343 53.1325 13.3549 53.1244C13.8013 53.5646 14.0637 54.2682 14.1845 54.7639C14.5238 56.1458 14.3823 57.6109 14.0815 58.9881C13.2601 62.7686 11.0761 66.2499 10.6585 70.1102C10.4263 72.2535 10.8865 74.3922 11.1832 76.5147C11.2203 76.8197 11.2615 77.1236 11.3041 77.4251C11.3219 77.5534 11.5445 77.5615 11.5719 77.4332C12.1997 74.577 11.62 71.6446 12.5266 68.8138C13.2601 66.5261 14.6722 64.5133 16.1612 62.5387C15.8576 63.6676 15.5911 64.8033 15.3123 65.9368C14.734 68.2846 14.1433 70.6267 13.712 72.9964C13.6942 73.0889 13.859 73.1362 13.9016 73.0449C14.2834 72.2246 14.6076 71.3904 14.8906 70.5469C14.2024 73.0992 13.5321 75.6504 12.6475 78.1611C12.5967 78.3033 12.8686 78.3633 12.9387 78.2339C14.0884 76.1357 15.0005 73.9427 15.6791 71.7047C16.3425 69.5105 16.8466 67.2829 17.4139 65.0702C18.1227 62.303 18.8947 59.411 20.5788 56.9303C21.0307 56.2636 21.5897 55.6027 22.3122 55.1244C22.6131 54.9257 22.94 54.7443 23.293 54.6218C23.5952 54.5178 23.9221 54.4901 24.2312 54.4184C24.2422 54.4808 24.2422 54.5478 24.2463 54.6022C24.2477 54.6102 24.2532 54.616 24.2614 54.6206C23.293 56.6056 22.5513 58.6704 21.907 60.7455C21.1502 63.1765 20.5004 65.6306 20.0238 68.1125C19.087 72.9918 18.7724 78.0202 19.8205 82.9064C22.0375 93.2555 30.6872 102.009 40.8506 107.766C43.6693 109.362 46.7091 110.619 49.6418 112.057C52.7063 113.559 55.698 115.204 57.8546 117.624C57.9274 117.705 58.1101 117.635 58.0511 117.537C55.2063 112.869 49.4028 110.861 44.2915 108.361C41.6102 107.051 39.0525 105.524 36.6679 103.825C37.1652 104.16 37.6665 104.491 38.1734 104.818C40.4303 106.276 42.8245 107.572 45.3987 108.598C50.422 110.602 55.8464 111.691 61.1444 113.039C64.0909 113.788 66.8532 114.994 69.5743 116.182C69.7199 116.247 69.8655 116.053 69.7268 115.972C67.5235 114.695 65.3793 113.385 62.8409 112.609C61.6595 112.246 60.4535 111.936 59.2392 111.643C59.6032 111.712 59.9686 111.78 60.3354 111.842C64.2625 112.499 68.3903 112.43 72.1883 113.59C74.2309 114.214 76.0743 115.176 77.5811 116.499C78.6636 117.449 79.5619 118.497 80.4479 119.561C80.632 119.938 80.7968 120.32 80.952 120.699C81.007 120.835 81.2487 120.783 81.2377 120.646C81.2336 120.594 81.2267 120.543 81.2226 120.491C81.349 120.642 81.4754 120.793 81.6031 120.943C81.7075 121.071 81.9644 120.964 81.8916 120.817ZM25.657 15.2393C25.9551 13.9892 26.5416 12.7656 27.4564 11.7419C28.0732 11.0533 28.8246 10.568 29.6858 10.2052C29.9344 10.2445 30.1748 10.3057 30.385 10.4293C30.7105 10.62 30.7779 10.9631 30.8095 11.2751C30.9001 12.1971 30.6625 13.1284 30.6817 14.0527C30.7051 15.1365 31.2861 15.906 31.8644 16.8407C32.4303 17.757 32.955 18.7564 32.7861 19.8136C32.6199 20.8524 31.9152 22.2481 30.5869 22.5277C29.3397 22.7912 28.0251 22.1233 27.1804 21.4093C25.3013 19.8252 25.1598 17.3168 25.657 15.2393ZM46.3918 14.9563C46.9041 16.0712 46.8286 17.2417 46.0786 18.2631C45.4605 19.1042 44.4495 19.8379 43.2764 20.0459C40.08 20.6143 38.9001 16.8997 37.8644 15.0972C37.1803 13.906 36.0635 12.8823 35.5622 11.6229C35.2036 10.7216 35.4042 9.93135 35.8685 9.18495C37.0896 9.16646 38.3259 9.4507 39.4481 9.81927C42.2283 10.7367 45.2791 12.5391 46.3918 14.9563ZM39.8396 24.3452C40.5511 24.6109 41.1624 25.0927 41.7036 25.5526C43.1088 26.745 43.9742 28.3695 43.7805 30.0784C43.6761 31.0108 43.2723 31.9871 42.4536 32.6503C41.9234 33.0802 41.1954 33.3563 40.547 32.9427C38.6047 31.7018 40.2778 29.4521 40.4481 27.8958C40.5443 27.0269 40.1885 26.3256 39.7682 25.5515C39.6253 25.2903 39.2888 24.7831 39.1363 24.3105C39.319 24.2239 39.5058 24.2204 39.8396 24.3452ZM16.5211 64.1852C16.6337 63.6629 16.745 63.1407 16.848 62.6184C16.9332 62.184 17.0156 61.7507 17.0939 61.3174C17.2903 61.0598 17.484 60.8021 17.6763 60.5445C17.2271 61.7415 16.8562 62.9593 16.5211 64.1852ZM46.8863 108.296C46.617 108.199 46.3506 108.098 46.0855 107.996C46.6541 108.187 47.2269 108.372 47.8025 108.545C49.933 109.189 52.0676 109.859 54.2283 110.454C51.7406 109.833 49.2709 109.155 46.8863 108.296Z" fill="black"/>
</svg>
