<svg width="162" height="40" viewBox="0 0 162 40" fill="none" xmlns="http://www.w3.org/2000/svg">
<g clip-path="url(#clip0_2053_154)">
<path d="M28.3029 28.7079H12V28.1397L18.4075 18.9889L20.0094 16.7012L19.8371 15.2818C19.8022 14.9945 19.9951 14.7292 20.2791 14.6737L21.6112 14.4135L24.815 9.83815H18.4271C17.6825 9.83815 17.0685 9.91 16.5852 10.0537C16.5146 10.7591 16.8151 11.2111 16.5146 11.5115C16.2272 11.812 14.9131 11.3992 14.7433 11.8956C14.5865 12.392 14.4493 12.9929 14.3318 13.6983H13.7831L14.2142 8.68206H29.0279L27.3819 11.0359L26.5589 12.2128L26.798 13.2672L25.7359 13.3897L22.444 18.0974L15.8602 27.5126H24.0508C24.8215 27.5126 25.4616 27.4212 25.9711 27.2383C26.4805 27.0424 26.9051 26.768 27.2447 26.4153C27.5975 26.0496 27.8914 25.612 28.1265 25.1025C28.3616 24.58 29.2238 23.6682 29.3061 23.049L29.2238 23.1443V23.4173L28.3029 28.7079Z" fill="#8EEEF9"/>
<path d="M43.7044 28.7079H28.3029V28.1397C28.9299 28.1397 29.4263 28.1005 29.7921 28.0221C30.1709 27.9437 30.4583 27.8 30.6542 27.591C30.8502 27.369 30.9808 27.0685 31.0461 26.6897C31.1114 26.2978 31.1441 25.7948 31.1441 25.1809V23.5496L30.811 22.5473L31.1441 21.9183V18.6558V12.1307C31.1441 11.5037 30.5602 11.2607 30.3094 11.0099C30.5602 10.5083 30.8894 9.94919 30.6934 9.74018C30.4975 9.53117 30.2101 9.39401 29.8313 9.32869C29.4524 9.25031 28.943 9.21112 28.3029 9.21112V8.68206H43.7044L43.9395 13.0517H43.3908C43.221 12.4116 43.0577 11.8825 42.901 11.4645C42.7573 11.0334 42.5548 10.6938 42.2935 10.4456C42.0453 10.1974 41.6992 10.021 41.255 9.91653C40.8239 9.81203 40.2361 9.75978 39.4915 9.75978H33.9658V17.6761H38.3746C38.9886 17.6761 39.4784 17.6369 39.8442 17.5585C40.223 17.4671 40.5235 17.3168 40.7456 17.1078C40.9807 16.8857 41.1505 16.5918 41.255 16.2261C41.3726 15.8472 41.4706 15.3639 41.5489 14.776H42.0976V21.7714H41.5489C41.4706 21.1835 41.3726 20.7002 41.255 20.3214C41.1505 19.9425 40.9872 19.6421 40.7651 19.42C40.5431 19.1849 40.2426 19.0216 39.8638 18.9301C39.498 18.8387 39.0016 18.793 38.3746 18.793H33.9658V19.616V20.4389V21.2619V22.0849V25.3768C33.9658 25.7426 33.9723 26.0692 33.9854 26.3566C34.0115 26.6309 34.0768 26.866 34.1813 27.062C34.2858 27.2449 34.4491 27.3885 34.6712 27.4931C34.9063 27.5845 35.2329 27.6302 35.6509 27.6302H39.0212C39.8964 27.6302 40.6149 27.5584 41.1766 27.4147C41.7384 27.271 42.2217 27.0424 42.6266 26.7289C43.0447 26.4153 43.417 26.0104 43.7436 25.514C44.0701 25.0045 44.4359 24.3971 44.8409 23.6917H45.4679L43.7044 28.7079Z" fill="#8EEEF9"/>
<path d="M58.2045 28.7079V28.1397C58.4266 28.1397 58.6552 28.1266 58.8903 28.1005C59.1255 28.0613 59.341 27.996 59.537 27.9045C59.7329 27.8131 59.8962 27.689 60.0268 27.5322C60.1575 27.3624 60.2228 27.1403 60.2228 26.866C60.2228 26.6048 60.1444 26.239 59.9876 25.7687C59.8309 25.2984 59.6545 24.8151 59.4586 24.3187C59.2626 23.8223 59.0667 23.3586 58.8707 22.9275C58.6748 22.4964 58.5376 22.1894 58.4592 22.0065H56.5194L55.6415 22.7981L54.8891 23.5506L54.6383 23.2998L54.3874 22.5473L54.1366 22.0457L50.6997 22.0065C50.6475 22.111 50.5625 22.2874 50.445 22.5356C50.3405 22.7707 50.2164 23.045 50.0727 23.3586C49.929 23.659 49.7853 23.9791 49.6416 24.3187C49.4979 24.6583 49.3607 24.9915 49.2301 25.318C49.1125 25.6446 49.0146 25.9451 48.9362 26.2194C48.8578 26.4937 48.8186 26.7093 48.8186 26.866C48.8186 27.1273 48.9035 27.3428 49.0733 27.5126C49.2432 27.6694 49.4522 27.7935 49.7004 27.885C49.9486 27.9764 50.2033 28.0417 50.4646 28.0809C50.7258 28.107 50.9544 28.1266 51.1504 28.1397V28.7079H44.8409V28.1397C45.3111 28.1266 45.7161 28.0156 46.0557 27.8066C46.3954 27.5976 46.6893 27.3298 46.9375 27.0032C47.1988 26.6766 47.4208 26.3174 47.6037 25.9255C47.7866 25.5205 47.963 25.1221 48.1328 24.7302L55.2065 8.25098H55.716L62.6721 24.8478C62.8681 25.305 63.051 25.7295 63.2208 26.1214C63.4037 26.5003 63.6192 26.8399 63.8674 27.1403C64.1156 27.4277 64.4161 27.6629 64.7688 27.8458C65.1215 28.0156 65.5721 28.1136 66.1208 28.1397V28.7079H58.2045ZM54.6383 12.7774L51.1504 20.9288H58.0477L54.6383 12.7774Z" fill="#8EEEF9"/>
<path d="M80.762 28.7079H65.2038V28.1397C65.674 28.1397 66.0921 28.1136 66.4578 28.0613C66.8236 27.996 67.1241 27.8784 67.3592 27.7086C67.6074 27.5257 67.7968 27.271 67.9274 26.9444C68.0581 26.6178 68.1234 26.1867 68.1234 25.6511V11.7388C68.1234 11.2163 68.0581 10.7918 67.9274 10.4652C67.7968 10.1386 67.6074 9.89041 67.3592 9.72059C67.1241 9.5377 66.8236 9.4136 66.4578 9.34828C66.0921 9.28297 65.674 9.25031 65.2038 9.25031V8.68206H73.9039V9.25031C73.4205 9.25031 72.996 9.28297 72.6302 9.34828C72.2644 9.4136 71.9574 9.5377 71.7092 9.72059C71.461 9.89041 71.2716 10.1386 71.141 10.4652C71.0104 10.7918 70.945 11.2163 70.945 11.7388V24.9261C70.945 25.4225 70.9842 25.834 71.0626 26.1606C71.141 26.4741 71.2716 26.7289 71.4545 26.9248C71.6505 27.1077 71.9117 27.2383 72.2383 27.3167C72.5649 27.382 72.9764 27.4147 73.4728 27.4147H75.4714C76.4381 27.4147 77.248 27.3624 77.9012 27.2579C78.5543 27.1403 79.1161 26.9313 79.5863 26.6309C80.0697 26.3174 80.4742 25.8863 80.8399 25.3376C81.1949 24.7925 81.6096 24.1524 81.9769 23.2998C81.8047 23.3586 82.1023 23.2998 82.3531 23.2998L80.762 28.7079Z" fill="#8EEEF9"/>
<path d="M82.2277 28.7079V28.1397C82.8678 28.1397 83.3773 28.1005 83.7561 28.0221C84.1349 27.9307 84.4223 27.7804 84.6183 27.5714C84.8142 27.3494 84.9383 27.0489 84.9906 26.6701C85.0428 26.2782 85.069 25.7818 85.069 25.1809V12.2091C85.069 11.5952 85.0428 11.0988 84.9906 10.7199C84.9383 10.328 84.8142 10.021 84.6183 9.79896C84.4223 9.57689 84.1349 9.42666 83.7561 9.34828C83.3773 9.25684 82.8678 9.21112 82.2277 9.21112V8.68206H90.8102V9.21112C90.1832 9.21112 89.6803 9.25684 89.3014 9.34828C88.9226 9.42666 88.6287 9.57689 88.4197 9.79896C88.2237 10.021 88.0931 10.328 88.0278 10.7199C87.9625 11.0988 87.9298 11.5952 87.9298 12.2091V25.1809C87.9298 25.7818 87.9559 26.2782 88.0082 26.6701C88.0735 27.0489 88.2041 27.3494 88.4001 27.5714C88.596 27.7804 88.8834 27.9307 89.2622 28.0221C89.6411 28.1005 90.1571 28.1397 90.8102 28.1397V28.7079H82.2277Z" fill="#8EEEF9"/>
<path d="M126.986 18.597C126.986 20.0209 126.751 21.373 126.281 22.6531C125.81 23.9333 125.144 25.0633 124.282 26.043C123.433 27.0097 122.401 27.7804 121.186 28.3552C119.984 28.9169 118.639 29.1978 117.15 29.1978C115.66 29.1978 114.308 28.9169 113.093 28.3552C111.892 27.7935 110.86 27.0358 109.997 26.0822C109.148 25.1156 108.495 23.9921 108.038 22.7119C107.581 21.4317 107.352 20.0732 107.352 18.6362C107.352 17.1862 107.594 15.8342 108.077 14.5801C108.574 13.313 109.266 12.2157 110.154 11.2882C111.043 10.3476 112.101 9.60955 113.329 9.07396C114.557 8.5253 115.909 8.25098 117.385 8.25098C118.835 8.25098 120.148 8.53184 121.323 9.09355C122.499 9.64221 123.505 10.3933 124.341 11.347C125.19 12.2875 125.843 13.3848 126.3 14.6389C126.758 15.8929 126.986 17.2123 126.986 18.597ZM123.616 18.793C123.616 18.0614 123.577 17.3168 123.498 16.5592C123.433 15.8015 123.309 15.07 123.126 14.3645C122.943 13.6591 122.695 12.9994 122.381 12.3855C122.068 11.7715 121.669 11.2359 121.186 10.7787C120.703 10.3215 120.121 9.96225 119.442 9.70099C118.776 9.42666 117.986 9.2895 117.071 9.2895C116.235 9.2895 115.497 9.42666 114.857 9.70099C114.23 9.96225 113.681 10.3215 113.211 10.7787C112.741 11.2359 112.349 11.7715 112.035 12.3855C111.722 12.9994 111.467 13.6526 111.271 14.345C111.088 15.0242 110.958 15.7297 110.879 16.4612C110.801 17.1797 110.762 17.8785 110.762 18.5578C110.762 19.2241 110.801 19.9229 110.879 20.6545C110.958 21.386 111.095 22.1045 111.291 22.8099C111.487 23.5153 111.741 24.1881 112.055 24.8282C112.368 25.4683 112.76 26.03 113.231 26.5133C113.701 26.9967 114.256 27.382 114.896 27.6694C115.536 27.9568 116.274 28.1005 117.11 28.1005C117.986 28.1005 118.75 27.9699 119.403 27.7086C120.069 27.4473 120.644 27.0946 121.127 26.6505C121.611 26.1933 122.009 25.6642 122.323 25.0633C122.649 24.4493 122.904 23.8027 123.087 23.1234C123.283 22.4311 123.42 21.7191 123.498 20.9876C123.577 20.243 123.616 19.5114 123.616 18.793Z" fill="#8EEEF9"/>
<path d="M150.7 9.21112C150.073 9.21112 149.57 9.25031 149.191 9.32869C148.812 9.40707 148.518 9.5573 148.309 9.77937C148.113 9.98838 147.983 10.2823 147.917 10.6611C147.865 11.04 147.839 11.5298 147.839 12.1307V29.0214H147.329L134.083 12.8949V25.2201C134.083 25.8471 134.109 26.35 134.162 26.7289C134.227 27.1077 134.358 27.4016 134.554 27.6106C134.75 27.8196 135.037 27.9633 135.416 28.0417C135.795 28.107 136.298 28.1397 136.925 28.1397V28.7079H129.949V28.1397C130.576 28.1397 131.072 28.1005 131.438 28.0221C131.817 27.9437 132.104 27.8 132.3 27.591C132.496 27.369 132.627 27.0685 132.692 26.6897C132.757 26.3108 132.79 25.821 132.79 25.2201V11.2882C132.542 10.9485 132.307 10.6546 132.085 10.4064C131.876 10.1451 131.647 9.9296 131.399 9.75978C131.164 9.57689 130.889 9.43973 130.576 9.34828C130.262 9.25684 129.877 9.21112 129.42 9.21112V8.68206H134.318L140.442 16.1869L146.565 23.6917V12.1307C146.565 11.5298 146.533 11.04 146.467 10.6611C146.402 10.2823 146.265 9.98838 146.056 9.77937C145.86 9.5573 145.572 9.40707 145.194 9.32869C144.828 9.25031 144.331 9.21112 143.704 9.21112V8.68206H150.7V9.21112Z" fill="#8EEEF9"/>
<path d="M16.5146 11.3849C17.1634 13.8245 18.1164 14.4014 20.026 15.1471M28.8045 24.4272C29.0553 23.5912 30.0586 22.0696 31.0618 22.6715M30.5602 10.8833C30.3509 11.5636 30.0175 12.0654 29.6243 12.4295M29.6243 12.4295L31.3126 14.1439C30.9782 14.6455 30.0586 15.5986 29.0553 15.3979C28.0521 15.1973 27.9685 14.3111 28.0521 13.8931L28.3029 13.1406V12.7119M29.6243 12.4295L28.3029 12.7119M28.3029 12.7119L26.2964 13.1406L28.0521 14.1439M33.5699 21.1666C33.5699 21.1666 34.824 21.9191 35.5765 20.4142C36.3289 18.9093 36.7773 17.506 37.0813 16.4012C37.3854 15.2964 38.1534 15.0026 38.837 15.3979C41.0875 16.6995 41.3098 18.5175 40.8435 17.9061M52.6318 19.9126L52.1301 19.6618L51.8793 19.411L52.1301 18.4077L52.6318 19.9126ZM52.6318 19.9126C52.799 20.247 53.2337 20.8155 53.635 20.4142C54.1366 19.9126 54.3874 18.4077 55.6415 19.1601C56.6448 19.7621 57.0628 19.0765 57.1464 18.6585L57.8988 20.1634L56.394 19.411C55.8923 19.5782 54.9894 20.0129 55.3907 20.4142C55.792 20.8155 56.394 21.083 56.6448 21.1666C56.2697 22.1387 54.7075 24.8831 54.3874 22.9223C54.183 21.6699 51.7121 21.083 51.1269 20.4142L49.622 23.6748C49.3712 24.4272 49.2207 25.9321 50.6252 25.9321C52.0298 25.9321 50.2072 27.437 49.1204 28.1894M86.7424 19.9126C86.2407 21.1666 84.2342 21.1666 83.4818 21.1666C83.1128 21.1666 82.8192 21.7321 82.5894 22.3431M82.5894 22.3431C82.4444 22.7289 82.074 23.1342 81.9769 23.4254L81.8515 24.0524C82.3284 23.977 82.2909 23.2125 82.2832 22.8835L82.5894 22.3431ZM87.3834 18.1583C87.6826 18.3079 89.2824 18.6005 89.7521 18.4091M89.7521 18.4091C90.2009 18.2262 89.0054 17.2086 89.2505 16.2772C89.7521 14.371 88.9579 12.8076 88.498 12.2642L87.1186 11.0101L87.4948 21.1666L89.1251 20.1634L89.7521 18.4091ZM70.3141 22.5475C70.1469 23.4254 70.4897 25.3566 73.1984 26.0589C75.9072 26.7612 76.5844 27.4384 76.5844 27.6892H69.9379L69.5616 21.1666L68.4957 20.5396M67.4297 19.9126L68.5584 19.411L68.4957 20.5396M67.4297 19.9126L68.4957 20.5396M67.4297 19.9126L63.5421 23.424M63.5421 23.424H61.7864L62.4135 25.0557L63.5421 23.424ZM134.899 17.7821L133.394 18.4091L133.644 17.0296L134.899 17.7821ZM134.899 17.7821C135.094 17.704 135.385 17.5787 135.651 17.4467M136.278 17.0296C136.378 16.829 136.487 15.9428 136.529 15.5248L137.532 16.6534M136.278 17.0296L137.532 16.6534M136.278 17.0296C136.224 17.1366 135.955 17.296 135.651 17.4467M137.532 16.6534L138.284 17.7821C137.984 18.7853 137.783 18.986 136.78 19.287C136.585 19.3454 136.422 19.3396 136.285 19.287M135.651 17.4467C135.617 18.0421 135.719 19.0684 136.285 19.287M136.285 19.287C135.99 20.4992 135.049 22.4723 133.644 20.6664M144.053 19.287L143.175 20.0394L143.677 21.6697H144.429H147.063V19.0361C147.314 19.0361 147.464 18.685 146.06 17.2804C144.655 15.8759 144.137 18.0329 144.053 19.287ZM144.053 19.287V20.9172M87.1186 24.9303L90.2537 28.3162H88.498L87.1186 24.9303Z" stroke="#8EEEF9" stroke-width="0.300976" stroke-linejoin="bevel"/>
<path fill-rule="evenodd" clip-rule="evenodd" d="M106.171 9.52263V14.9402L106.028 14.5372C104.486 10.1992 103.579 7.64657 100.031 10.245C100.536 11.0626 100.725 11.5283 100.392 12.412L100.004 13.5751C99.7828 14.24 99.6698 14.9364 99.6698 15.6373V16.7461C100.145 17.2211 100.642 17.8589 100.331 18.4542C100.26 18.5904 100.161 18.7397 100.031 18.9131L100.019 18.9251C99.783 19.1611 99.5227 19.4216 99.1906 19.4393C99.0359 19.4475 98.8539 19.4039 98.5863 19.2743C98.5601 19.2581 98.5349 19.2414 98.5105 19.2238C97.8831 18.7723 98.1203 17.8062 98.5491 17.163C98.5728 17.1275 98.5804 17.0836 98.57 17.0422L98.3644 16.2196C98.293 15.9339 98.0558 15.7465 97.7919 15.8773C93.7599 17.875 96.107 25.1118 100.352 26.6032C101.881 27.1404 103.078 26.5734 103.795 26.2341C103.87 26.1985 103.94 26.1655 104.004 26.1365C104.794 25.78 106.171 23.3675 106.171 22.1636V27.5812C105.689 28.4239 103.426 29.8927 98.2251 29.0259C97.8551 28.9642 97.5025 28.8741 97.1664 28.7589C89.2585 26.0475 89.2685 10.7816 97.3084 8.49108C97.3726 8.47279 97.4374 8.45546 97.5028 8.43912C102.126 7.28337 105.208 8.6799 106.171 9.52263ZM95.8274 12.137C96.0886 11.2228 96.8598 10.8257 97.574 10.6829C98.1906 10.5597 98.7394 10.9893 98.9871 11.5673C99.2079 12.0826 99.1679 12.6726 98.8794 13.1533L98.4422 13.8821C98.0774 14.4901 97.3697 14.8031 96.6745 14.6641C95.8902 14.5072 95.3893 13.8211 95.5831 13.0452C95.6483 12.7839 95.7287 12.4822 95.8274 12.137ZM96.3764 24.0389C96.6483 24.6009 96.8789 25.1998 97.0212 25.6979C97.1469 26.1377 97.5873 26.5316 98.1331 26.8703C99.636 27.8032 99.6003 28.206 97.8314 28.206C96.7064 28.206 95.6638 27.6157 95.085 26.651L95.0131 26.5312C94.6877 25.9888 94.5372 25.3594 94.582 24.7285C94.6874 23.246 95.7291 22.7011 96.3764 24.0389Z" fill="#8EEEF9"/>
<path d="M114.936 31.1007L117.239 34.3613L115.243 33.2745L114.322 32.0323L113.708 31.5665V32.4981L113.248 32.0323L113.095 31.1007L112.634 30.1691L112.788 29.3928L113.402 30.4797L113.862 29.5481L112.174 27.8402L111.406 29.5481L113.095 33.1192L110.178 28.927L109.104 28.306V26.2875L109.871 27.8402L111.406 27.2191V24.5796L113.248 27.2191L113.095 25.6664L114.936 27.2191L115.55 26.2875L119.387 31.5665V32.8087L116.318 28.6165H114.322L116.164 30.6349L114.936 31.1007Z" fill="#8EEEF9"/>
<path d="M117.317 34.6122L115.015 31.3516L117.01 32.4384L117.931 33.6806L118.545 34.1464V33.2148L119.005 33.6806L119.159 34.6122L119.619 35.5437L119.466 36.3201L118.852 35.2332L118.391 36.1648L120.08 37.8727L120.847 36.1648L118.852 32.4384L122.075 36.7859L123.149 37.4069V39.4254L122.382 37.8727L120.847 38.4938V41.1333L119.005 38.4938L119.159 40.0464L117.317 38.4938L116.703 39.4254L112.866 34.1464L112.615 32.8565L115.936 37.0964H117.931L116.089 35.078L117.317 34.6122Z" fill="#8EEEF9"/>
</g>
<defs>
<clipPath id="clip0_2053_154">
<rect width="161.524" height="40" fill="white"/>
</clipPath>
</defs>
</svg>
