<svg width="398" height="364" viewBox="0 0 398 364" fill="none" xmlns="http://www.w3.org/2000/svg">
<path opacity="0.8" d="M83.4232 221.102C82.6915 223.826 82.2263 226.64 81.7746 229.363C81.2959 232.268 80.799 235.267 79.9815 238.135C78.0032 245.05 74.9453 248.383 70.8622 247.914C66.4991 247.453 63.2109 243.045 60.5686 239.504C60.0898 238.858 59.6201 238.234 59.1684 237.656C56.0383 233.668 52.4249 230.005 48.929 226.459C46.6164 224.115 44.227 221.694 42.0048 219.205C41.8693 219.047 41.657 218.984 41.4492 219.029C41.246 219.079 41.0879 219.237 41.0382 219.44C40.9253 219.883 40.8847 220.344 40.9073 220.845C40.9569 221.834 40.1259 222.159 39.8684 222.232C39.2587 222.408 38.4637 222.286 38.0617 221.595C33.2559 213.306 31.9189 203.645 30.6226 194.305L30.2387 191.567C28.676 180.538 27.1086 168.686 26.2459 156.793C25.8846 151.793 25.8394 146.68 25.7942 141.73C25.7355 134.919 25.6723 127.873 24.7825 120.994C23.6398 112.15 21.8467 103.098 16.535 96.8155C15.7717 95.9122 14.9903 95.1398 14.2089 94.521L13.9875 94.3358C13.0119 93.5228 12.0318 92.755 11.1285 92.8634C9.87281 93.044 9.2495 94.7017 8.79331 95.9122C8.71653 96.1109 8.6533 96.2916 8.59007 96.4316L8.16098 97.4253C7.22601 99.6024 6.25945 101.847 5.55484 104.173C5.1122 105.628 4.73276 107.118 4.36239 108.564C3.94685 110.185 3.51775 111.861 3.00736 113.478C2.6957 114.462 1.82398 114.693 1.11937 114.494C0.41476 114.295 -0.185931 113.654 0.0534555 112.669V112.665C0.852916 109.358 0.798715 105.957 0.744514 102.669C0.735481 101.983 0.721946 101.292 0.717429 100.61C0.699362 97.353 0.929679 94.0377 1.16003 90.8263C1.22327 89.9004 1.29105 88.9745 1.34977 88.0486C1.64787 83.3918 1.95499 78.7395 2.26213 74.0828C2.53765 69.9093 2.81317 65.7359 3.07966 61.5625C3.6307 52.9852 3.97845 44.2995 4.27204 36.1874C4.55659 28.247 5.10312 19.7601 7.15371 11.4629L7.4338 10.2885C8.37328 6.31381 9.65598 0.866649 13.9966 0.107838C19.385 -0.840675 24.7193 4.64714 28.7572 9.52973C34.4122 16.3816 39.1999 21.8649 43.8341 26.7836C49.6065 32.9263 55.4647 38.8523 61.2416 44.3943C67.3392 50.239 72.8902 55.4378 79.1052 59.9048C84.8505 64.0376 90.9842 67.5833 97.3347 70.4514C109.936 76.1425 124.385 79.3674 139.11 79.7739C153.003 80.1307 165.524 77.2581 176.323 71.1515C186.134 65.6049 195.018 57.8949 204.282 46.8831C205.126 45.8804 205.962 44.8641 206.811 43.8479C212.633 36.8244 218.654 29.5659 226.495 24.7691C235.646 19.1774 247.213 18.0754 256.658 21.8966C264.074 24.8912 269.982 31.3229 274.214 41.0158C278.329 50.4332 280.402 60.6997 282.028 70.3972C282.394 72.5833 282.746 74.7739 283.099 76.96C284.242 84.0377 285.425 91.3593 287.037 98.5048C289.743 110.429 294.571 124.422 308.049 126.816C313.799 127.832 319.996 125.867 327.001 120.822C332.173 117.091 337.435 112.263 342.638 106.477C352.882 95.0766 360.001 81.3367 366.274 69.2093C369.328 63.3059 372.675 57.2083 376.798 50.0132C377.684 48.4639 378.506 46.856 379.296 45.2977C380.579 42.7729 381.907 40.1667 383.537 37.7999C384.594 36.2643 386.69 33.6626 388.817 33.4819C389.703 33.4096 390.516 33.762 391.297 34.5569C393.564 36.874 393.817 41.0791 394.025 44.4576C394.061 45.0493 394.097 45.6184 394.138 46.1559C394.937 56.2733 395.317 66.576 395.683 76.5399C395.918 82.904 396.157 89.4803 396.505 95.9573C396.609 97.8724 396.717 99.792 396.825 101.712C397.657 116.405 398.519 131.599 396.857 146.391C396.74 147.439 396.618 148.482 396.496 149.53C395.746 155.944 394.974 162.584 395.339 169.164C395.358 169.44 395.565 169.661 395.836 169.693C395.99 169.711 396.098 169.901 396.103 170.059C396.107 170.176 396.067 170.194 395.976 170.208C394.251 170.492 392.693 170.303 391.347 169.661C390.949 169.472 390.552 169.25 390.15 169.029C388.804 168.288 387.372 167.543 385.746 167.674C381.893 168.031 379.915 172.209 378.469 175.258C378.302 175.605 378.144 175.94 377.991 176.256C375.674 180.976 373.655 185.917 371.708 190.691C369.608 195.84 367.431 201.161 364.888 206.202C355.398 224.982 343.537 239.851 329.635 250.398C322.114 256.102 313.7 260.8 305.56 265.344C302.778 266.897 299.996 268.451 297.245 270.041C296.69 270.362 296.125 270.317 295.696 269.924C295.28 269.54 294.987 268.799 295.33 268.054C297.48 263.397 298.934 258.289 299.662 252.869C299.698 252.588 299.522 252.322 299.251 252.25C298.966 252.173 298.686 252.317 298.582 252.579C293.781 264.16 285.777 275.646 274.792 286.717C268.722 292.833 261.545 297.697 254.612 302.403C250.068 305.484 245.366 308.673 240.985 312.2C235.894 316.297 229.716 321.97 227.141 329.531C226.816 330.475 225.98 330.678 225.289 330.484C224.697 330.308 224.097 329.757 224.341 328.786C225.759 323.162 226.807 317.381 227.823 311.789C229.137 304.535 230.501 297.033 232.674 289.879C232.751 289.63 232.647 289.359 232.421 289.228C232.191 289.102 231.911 289.133 231.73 289.323C229.485 291.645 226.856 294.328 224.052 296.798C219.693 300.642 214.846 304.102 210.158 307.453C209.142 308.18 208.126 308.908 207.114 309.635C196.667 317.164 185.682 325.385 176.323 335.741C170.944 341.699 166.752 347.566 163.523 353.673C163.162 354.346 162.43 354.418 161.919 354.278C161.405 354.138 160.813 353.709 160.844 352.95C161.048 348.298 161.129 343.569 161.21 338.998L161.292 334.544C161.296 334.314 161.161 334.106 160.953 334.016C160.741 333.926 160.497 333.971 160.334 334.129C158.247 336.157 156.048 338.135 153.916 340.05C147.059 346.216 139.973 352.589 135.79 361.437C135.424 362.2 134.887 362.209 134.471 362.101C133.758 361.889 133.08 361.076 133.202 360.209C134.729 349.495 132.791 338.93 130.921 328.713C130.6 326.97 130.28 325.226 129.977 323.478C128.428 314.59 128.306 305.606 128.374 298.772C128.378 298.487 128.175 298.253 127.895 298.207C127.868 298.203 127.836 298.203 127.809 298.203C127.565 298.203 127.344 298.361 127.267 298.6C126.463 301.216 125.573 303.993 124.345 306.631C122.561 310.466 120.37 314.183 118.252 317.778C116.865 320.132 115.429 322.566 114.119 325.019C108.586 335.362 102.859 347.828 102.339 361.866C102.308 362.72 101.621 363.185 100.998 363.257C100.424 363.316 99.7783 363.09 99.566 362.273C98.2878 357.408 96.8921 352.485 95.5416 347.729C93.7801 341.518 91.9599 335.096 90.379 328.731C87.818 318.379 86.1423 307.697 85.4015 296.974C84.8234 288.596 85.1261 280.118 85.4151 271.925C85.5055 269.336 85.5958 266.748 85.6635 264.151C85.8171 257.981 85.7764 251.708 85.7403 245.646C85.7132 241.437 85.6861 237.087 85.7268 232.814C85.7945 225.524 86.052 219.522 86.5307 213.916C86.5533 213.627 86.3546 213.365 86.07 213.311C85.7719 213.257 85.5055 213.433 85.4242 213.708C84.8731 215.624 84.3627 217.552 83.8568 219.463L83.4232 221.102ZM383.786 122.755C383.691 124.77 383.591 126.784 383.501 128.799C383.483 129.228 383.786 129.575 384.21 129.611C384.233 129.616 384.26 129.616 384.283 129.616C384.698 129.616 385.05 129.309 385.1 128.889C387.367 109.946 387.033 89.5436 384.102 68.2562C384.061 67.9536 383.668 67.7052 383.388 67.7142C383.036 67.7594 382.792 68.062 382.824 68.4053C383.921 78.4776 384.495 88.6357 384.531 98.5861C384.563 106.662 384.165 114.842 383.786 122.755ZM319.96 241.843C320.104 241.997 320.294 242.074 320.484 242.074C320.655 242.074 320.827 242.01 320.962 241.884C327.024 236.342 332.841 230.158 338.262 223.51C354.757 203.257 367.819 178.121 378.185 146.662C378.28 146.369 378.086 145.971 377.792 145.872C377.494 145.772 377.096 145.967 376.988 146.256C373.966 154.413 370.791 162.335 367.548 169.792C355.15 198.311 339.142 222.222 319.982 240.854C319.702 241.125 319.693 241.559 319.96 241.843ZM292.882 194.914C293.076 195.154 293.338 195.28 293.609 195.28C293.785 195.28 293.961 195.226 294.12 195.118C301.021 190.258 307.326 184.494 313.189 179.006C339.698 154.196 356.283 129.873 363.908 104.652C363.953 104.507 363.917 104.322 363.844 104.187C363.772 104.056 363.637 103.92 363.492 103.88C363.207 103.771 362.815 103.988 362.72 104.282C360.249 111.919 356.807 119.648 352.503 127.254C345.664 139.313 336.762 151.206 325.28 163.609C320.362 168.921 314.991 174.246 309.314 179.427C306.432 182.06 303.41 184.634 300.488 187.123C298.004 189.241 295.438 191.427 292.963 193.641C292.602 193.97 292.566 194.517 292.882 194.914ZM290.276 170.935C291.545 171.301 292.855 171.486 294.201 171.486C298.284 171.486 302.697 169.801 307.367 166.45C315.055 160.935 321.27 153.207 325.823 147.091L327.841 144.381C340.235 127.76 353.054 110.569 361.347 91.278C361.469 90.9934 361.315 90.6005 361.035 90.4741C360.75 90.3521 360.375 90.4876 360.24 90.7631C355.222 101.996 348.591 112.19 342.769 120.677C337.169 128.844 331.247 136.743 324.644 145.479C319.788 151.893 313.858 159.169 306.653 164.485C300.429 169.07 294.815 170.492 289.964 168.713C282.652 166.034 278.41 157.805 275.005 150.303C274.829 149.91 274.386 149.752 273.975 149.923C273.564 150.095 273.374 150.533 273.532 150.93C276.726 158.921 281.513 168.41 290.276 170.935ZM257.792 102.683C258.541 103.383 259.422 103.735 260.407 103.735C260.484 103.735 260.56 103.735 260.642 103.731C263.772 103.559 266.242 100.045 267.213 96.8562C268.79 91.6574 267.778 85.5689 266.45 79.7649C265.258 74.5661 263.09 67.3484 258.013 64.7468C257.968 64.7242 257.918 64.7061 257.868 64.6971C257.435 64.6067 257.39 64.6248 257.259 64.6835C257.114 64.7467 256.676 64.9365 256.256 66.5173C255.619 68.9563 255.673 71.5941 255.714 73.9157C255.736 75.0901 255.8 76.2599 255.872 77.4252C255.917 78.2066 255.962 78.9925 255.989 79.7784C256.089 82.2355 255.813 84.7378 255.547 87.1587C255.298 89.4307 255.041 91.7839 255.081 94.1326C255.104 95.1534 255.321 100.384 257.792 102.683ZM233.821 125.167C234.241 126.752 234.941 128.229 235.619 129.657C236.676 131.883 237.674 133.984 237.669 136.436C237.665 138.401 236.96 140.172 236.211 142.051C235.641 143.491 235.045 144.982 234.806 146.558C234.779 146.73 234.833 146.906 234.95 147.032C235.059 147.145 235.208 147.209 235.361 147.209C235.375 147.209 235.393 147.209 235.411 147.209C238.279 146.956 240.416 145.709 241.766 143.509C243.641 140.443 243.916 136.757 243.939 133.555C243.966 130.153 243.577 126.576 242.71 122.299L242.66 122.046C242.633 121.919 242.561 121.802 242.462 121.721C242.028 121.373 241.531 120.763 241.012 120.122C239.774 118.595 238.37 116.865 236.513 116.865C236.251 116.865 236.012 116.897 235.768 116.96C235.018 117.154 234.422 117.615 234.006 118.324C232.669 120.614 233.699 124.706 233.821 125.167ZM221.061 89.2816C221.554 91.6348 222.376 94.5391 224.404 96.0567C225.009 96.5084 225.696 96.7387 226.427 96.7387C226.671 96.7387 226.915 96.7162 227.168 96.662C229.002 96.2871 230.718 94.5752 231.54 93.1434C232.977 90.6321 233.324 87.6466 233.659 84.7558C233.717 84.2274 233.781 83.708 233.844 83.1931C234.404 78.8932 235.375 75.8082 237.1 72.8723C238.871 69.8597 240.529 67.6194 242.313 65.8263C242.498 65.6456 242.53 65.361 242.399 65.1397C242.295 64.9635 242.173 64.81 242.033 64.6835C240.867 63.6718 238.722 63.6175 235.655 64.5164C232.335 65.492 229.892 67.6916 227.746 69.9274C224.828 72.9626 222.8 76.2102 221.707 79.5707C220.628 82.904 220.411 86.1651 221.061 89.2816ZM17.9306 18.4819C18.0165 18.5722 18.0842 18.649 18.1294 18.6897C22.7997 23.2244 25.3471 29.9092 27.5964 35.808C27.7365 36.1603 28.1204 36.3275 28.4592 36.201C28.7482 36.0881 28.9379 35.659 28.8295 35.3699C26.246 28.3916 23.3146 20.4783 16.9099 15.6364C16.6705 15.4557 16.3498 15.4421 16.0788 15.5912C15.8078 15.7447 15.6497 16.0338 15.6723 16.3274C17.8629 38.3103 23.7347 59.9771 29.4122 80.9257L30.835 86.1877C30.9298 86.5309 31.2188 86.7522 31.5576 86.7522C31.6208 86.7522 31.6841 86.7432 31.7473 86.7296C32.1629 86.6303 32.4158 86.2238 32.321 85.8083C30.853 79.4668 29.2315 73.0575 27.6642 66.8605C25.2839 57.4567 22.8268 47.7277 20.8575 38.0619C19.9497 33.6174 19.254 29.9002 18.6714 26.3636C18.2784 23.9788 17.9261 21.6255 17.628 19.3717C17.6099 19.2407 17.5784 19.0555 17.5377 18.8522C17.4971 18.6399 17.4293 18.2606 17.3931 17.9444C17.5467 18.0844 17.7229 18.2605 17.9306 18.4819ZM49.3625 151.757C45.8982 137.918 42.312 123.604 36.3454 110.09C36.2641 109.909 36.0608 109.751 35.8621 109.729C35.6678 109.711 35.4059 109.815 35.2884 109.977C35.1665 110.14 35.1349 110.415 35.2162 110.601C40.3337 122.606 43.5044 135.47 46.5758 147.909C47.0184 149.697 47.4565 151.486 47.9037 153.279C49.5252 159.765 51.4538 167.299 53.798 174.616C56.0835 181.744 58.4231 188.641 61.9507 194.738C62.0997 194.996 62.3663 195.136 62.6463 195.136C62.7773 195.136 62.9083 195.104 63.0347 195.045C63.4186 194.856 63.5767 194.436 63.4186 194.047L62.1088 190.935C59.6652 185.158 57.1404 179.183 55.1982 173.04C52.9353 165.89 51.0744 158.604 49.3625 151.757ZM119.936 112.615C121.359 112.737 122.796 112.796 124.245 112.796C132.412 112.796 140.908 110.881 149.069 107.172C171.382 97.0368 188.36 78.997 202.516 62.8813C202.719 62.651 202.696 62.2264 202.462 62.0231C202.236 61.8199 201.82 61.838 201.608 62.0683C193.979 70.4288 185.009 80.0449 175.126 88.3783C154.535 105.732 134.887 113.139 116.684 110.393C100.031 107.877 84.0917 97.8363 66.5217 78.7893C66.2597 78.5002 65.8306 78.4821 65.5324 78.7486C65.2343 79.0196 65.2118 79.4623 65.4737 79.7559C75.0944 90.4831 83.8071 98.0034 92.8948 103.423C101.851 108.758 110.944 111.852 119.936 112.615ZM108.487 136.974C108.6 137.042 108.721 137.078 108.843 137.078C109.069 137.078 109.29 136.965 109.421 136.757C109.625 136.432 109.534 136.016 109.218 135.808C98.098 128.667 88.1342 119.869 79.5931 109.657C71.0384 99.4217 63.8838 88.0531 57.2849 77.2897C57.1855 77.1226 56.9733 77.0051 56.7745 77.0051H56.77C56.5622 77.0096 56.3409 77.1407 56.2461 77.3213C56.1467 77.502 56.1557 77.7549 56.2687 77.9266C62.7953 88.7622 69.9001 100.23 78.4593 110.632C87.3392 121.4 97.4432 130.262 108.487 136.974Z" fill="#12191B"/>
</svg>
