<svg width="325" height="462" viewBox="0 0 325 462" fill="none" xmlns="http://www.w3.org/2000/svg">
<path opacity="0.8" d="M312.291 461.301C311.233 459.183 310.07 457.101 308.792 455.076C302.705 433.495 272.805 425.757 250.129 419.377C237.845 415.919 226.321 412.023 216.007 405.269C205.897 398.652 197.416 390.424 190.449 381.398C187.532 377.622 184.865 373.682 182.456 369.619C185.033 372.875 187.867 375.981 191.01 378.879C199.464 386.665 209.632 392.811 220.784 397.566C228.06 400.668 235.729 402.997 243.241 405.653C247.028 406.994 250.778 408.401 254.503 409.848C258.405 411.362 262.24 413.113 266.299 414.304C266.986 414.503 267.64 413.757 266.996 413.338C261.47 409.765 254.906 407.056 248.793 404.259C242.591 401.422 236.258 398.921 229.804 396.53C218.416 392.308 207.704 386.851 198.705 379.558C189.732 372.284 182.796 363.403 177.432 353.975C174.724 349.224 172.199 344.34 170.114 339.338C168.569 332.76 167.705 326.085 167.595 319.424C167.412 308.302 169.633 297.542 175.374 287.471C181.733 276.296 190.921 266.493 199.333 256.391C208.328 245.591 215.923 234.024 222.969 222.254C224.079 220.392 225.174 218.526 226.253 216.651C225.708 218.394 225.163 220.136 224.598 221.875C219.663 237.055 213.55 251.741 203.906 265.285C198.328 273.124 194.692 281.325 192.063 290.153C191.843 290.885 193.152 291.159 193.514 290.519C197.605 283.39 201.219 276.014 205.829 269.101C205.934 268.942 206.044 268.783 206.148 268.624C208.328 266.127 210.088 263.277 211.952 260.648C214.304 257.335 216.745 254.066 219.134 250.771C223.906 244.18 229.008 237.761 234.487 231.571C245.467 219.17 258.306 208.049 268.882 195.383C271.349 192.423 273.649 189.374 275.817 186.255C274.859 189.679 273.79 193.084 272.234 196.367C270.165 200.747 266.87 204.572 263.245 208.124C261.396 209.937 259.505 211.723 257.709 213.572C256.079 215.244 254.173 217.114 253.282 219.157C253.099 219.594 253.628 219.951 254.094 219.713C254.351 219.585 254.597 219.444 254.843 219.294C254.985 219.567 255.435 219.753 255.734 219.528C264.047 213.175 274.225 208.141 280.987 200.452C282.04 199.247 282.988 197.977 283.837 196.658C283.732 196.998 283.638 197.337 283.528 197.677C281.543 203.871 279.013 209.959 275.828 215.791C269.578 227.221 260.343 237.236 249.867 246.16C244.828 250.457 238.432 255.306 237.07 261.552C236.96 262.042 237.777 262.377 238.138 261.954C240.213 259.536 242.203 257.185 244.686 255.037C247.185 252.879 249.841 250.837 252.413 248.737C252.701 248.503 252.984 248.256 253.272 248.018C276.022 236.243 294.869 218.522 307.53 198.877C321.023 177.953 327.304 153.552 322.59 129.897C321.201 122.931 317.655 110.46 306.136 113.005C300.51 114.249 296.215 118.176 292.182 121.475C288.441 124.546 284.198 128.393 278.934 129.496C272.632 130.819 267.63 126.341 264.607 122.247C260.506 116.698 258.348 110.177 256.006 103.992C250.516 89.478 242.015 75.6918 232.225 62.9114C215.452 41.0254 192.209 21.0012 164.541 8.96195C151.498 3.28422 135.71 -1.13179 120.849 0.257867C104.275 1.81075 92.5988 12.9589 87.0462 25.5716C81.3103 38.6167 81.6875 53.1265 83.4842 66.7583C85.3019 80.5137 88.8221 94.0794 90.184 107.879C91.4936 121.224 91.8235 136.02 85.4381 148.549C82.5099 154.284 78.1936 158.462 70.6348 159.534C63.8722 160.496 56.9472 159.817 50.1427 160.469C34.2289 161.996 22.8671 171.282 15.8584 182.889C8.90719 194.412 5.17234 207.621 2.41702 220.269C-3.27173 246.332 0.887452 274.381 16.9584 297.436C19.1637 300.599 21.7566 303.608 24.1924 306.648C26.9058 310.032 29.7345 313.345 32.7151 316.565C32.8984 316.768 33.1446 316.834 33.3698 316.812C34.7161 320.139 35.9366 323.487 37.1205 326.871C39.1162 332.588 40.9182 338.451 39.9753 344.46C39.9177 344.804 40.5724 345.007 40.7034 344.641C44.014 335.614 41.3948 325.335 37.8957 316.653C33.7994 306.498 28.4982 296.713 24.6272 286.482C20.6304 275.917 18.1213 264.883 19.1847 253.757C20.1119 244.105 23.6372 234.62 28.4512 225.858C31.2746 220.71 34.7003 215.742 39.001 211.366C42.1125 208.199 46.1878 204.93 50.7085 202.936C50.7818 202.9 50.8499 202.869 50.9285 202.838C52.6309 204.519 53.6314 207.206 54.0924 209.099C55.3862 214.375 54.8467 219.969 53.6995 225.227C50.567 239.662 42.2383 252.954 40.6458 267.693C39.7606 275.877 41.5153 284.043 42.6468 292.147C42.7882 293.312 42.9453 294.472 43.1077 295.623C43.1758 296.113 44.0245 296.144 44.1292 295.654C46.5231 284.749 44.3126 273.552 47.7699 262.744C50.5671 254.009 55.952 246.324 61.6303 238.784C60.4726 243.094 59.4564 247.431 58.393 251.759C56.1877 260.723 53.9352 269.665 52.2904 278.714C52.2223 279.067 52.8509 279.247 53.0133 278.899C54.4695 275.767 55.7058 272.581 56.7849 269.361C54.1605 279.106 51.6042 288.847 48.2308 298.433C48.037 298.976 49.0741 299.205 49.3413 298.711C53.7257 290.7 57.2039 282.327 59.7916 273.781C62.3217 265.404 64.2442 256.898 66.4076 248.45C69.1105 237.884 72.0544 226.842 78.4765 217.37C80.1999 214.825 82.3318 212.301 85.0871 210.475C86.2343 209.716 87.481 209.024 88.8273 208.556C89.9797 208.159 91.2264 208.053 92.405 207.779C92.4469 208.018 92.4469 208.274 92.4626 208.481C92.4679 208.512 92.4888 208.534 92.5203 208.552C88.8273 216.131 85.9986 224.014 83.5419 231.937C80.6556 241.219 78.1779 250.59 76.3602 260.066C72.7877 278.696 71.5882 297.895 75.585 316.552C84.0395 356.067 117.025 389.489 155.783 411.472C166.532 417.564 178.124 422.364 189.307 427.852C200.994 433.587 212.403 439.869 220.627 449.112C220.905 449.42 221.601 449.151 221.376 448.776C210.528 430.953 188.396 423.286 168.905 413.744C158.679 408.741 148.926 402.909 139.832 396.424C141.728 397.703 143.64 398.965 145.573 400.213C154.18 405.781 163.31 410.731 173.127 414.648C192.283 422.298 212.969 426.458 233.173 431.602C244.409 434.465 254.943 439.066 265.32 443.606C265.875 443.853 266.43 443.112 265.901 442.803C257.499 437.928 249.322 432.925 239.642 429.961C235.137 428.576 230.538 427.393 225.907 426.273C227.295 426.537 228.689 426.798 230.087 427.032C245.063 429.542 260.804 429.277 275.288 433.706C283.077 436.089 290.107 439.763 295.854 444.815C299.981 448.441 303.407 452.442 306.786 456.505C307.488 457.944 308.116 459.404 308.708 460.851C308.918 461.371 309.84 461.173 309.798 460.648C309.782 460.449 309.756 460.255 309.74 460.057C310.222 460.635 310.704 461.208 311.191 461.782C311.589 462.271 312.569 461.861 312.291 461.301ZM97.8423 58.1866C98.979 53.4132 101.216 48.7414 104.704 44.8327C107.056 42.2034 109.922 40.3505 113.206 38.9652C114.154 39.1152 115.071 39.3491 115.872 39.8211C117.114 40.549 117.371 41.8592 117.491 43.0504C117.837 46.5708 116.931 50.1266 117.004 53.6559C117.093 57.794 119.309 60.7321 121.514 64.301C123.672 67.7994 125.673 71.6155 125.029 75.6521C124.395 79.6181 121.708 84.9473 116.642 86.0149C111.886 87.0208 106.873 84.4709 103.652 81.7445C96.4856 75.6962 95.946 66.1186 97.8423 58.1866ZM176.914 57.1057C178.868 61.3629 178.58 65.8319 175.719 69.7317C173.362 72.9434 169.507 75.7447 165.033 76.5388C152.844 78.7093 148.344 64.526 144.395 57.6439C141.786 53.0956 137.527 49.1869 135.615 44.3782C134.248 40.9372 135.013 37.9197 136.783 35.0698C141.44 34.9992 146.155 36.0845 150.434 37.4918C161.037 40.9946 172.671 47.8767 176.914 57.1057ZM151.927 92.9544C154.641 93.969 156.972 95.8087 159.036 97.5645C164.394 102.117 167.694 108.32 166.956 114.845C166.558 118.405 165.018 122.133 161.896 124.665C159.874 126.306 157.097 127.36 154.625 125.781C147.218 121.043 153.598 112.454 154.248 106.511C154.615 103.194 153.258 100.516 151.655 97.5601C151.11 96.5631 149.827 94.6264 149.245 92.822C149.942 92.4911 150.654 92.4779 151.927 92.9544ZM63.0026 245.071C63.4322 243.077 63.8565 241.083 64.2494 239.089C64.5742 237.43 64.8885 235.776 65.187 234.121C65.9361 233.137 66.6747 232.154 67.408 231.17C65.6951 235.74 64.2808 240.39 63.0026 245.071ZM178.8 413.492C177.773 413.122 176.757 412.738 175.746 412.35C177.914 413.078 180.099 413.784 182.293 414.445C190.418 416.903 198.558 419.461 206.798 421.733C197.312 419.364 187.893 416.775 178.8 413.492Z" fill="#12191B"/>
</svg>
