<svg width="123" height="73" viewBox="0 0 123 73" fill="none" xmlns="http://www.w3.org/2000/svg">
<path d="M19.3843 15.4628C19.3843 17.4509 19.002 19.439 18.2373 21.3507C18.1991 21.4654 18.1608 21.5801 18.1226 21.6566C18.1226 21.6566 17.5873 23.1859 17.855 25.174C18.1226 27.1622 18.0079 28.0033 17.2815 27.8504C16.5933 27.6974 17.2815 25.5181 17.2815 24.4476C17.2815 24.027 17.2432 23.7594 17.1668 23.5682C16.555 24.6388 15.8286 25.6711 14.9875 26.5887C14.6051 27.0475 14.1846 27.468 13.7258 27.8504C13.5728 28.3092 13.4199 28.9209 13.3052 29.6856C13.0376 31.4443 13.8787 32.5531 13.7258 33.4707C13.5346 34.3883 12.4258 34.1589 12.6552 32.8589C12.8846 31.5208 13.0758 29.9914 12.6935 29.6856C12.3111 29.4179 11.6612 29.8767 11.2788 30.7179C10.9347 31.559 10.6671 31.9413 9.8642 31.3678C9.48187 31.1002 8.9466 30.9855 8.44957 31.0237C7.99077 31.1767 7.53197 31.2914 7.07317 31.4061C6.95847 31.4825 6.882 31.559 6.80553 31.5972C6.5379 31.9031 6.15557 31.8266 5.81147 31.6737C5.00857 31.8266 4.20567 31.9031 3.36453 31.9413H2.8675L0.9176 9.72777L1.29993 9.57483C2.56163 9.1925 4.05273 8.81016 5.735 8.5043C7.4555 8.1602 9.21423 8.00727 11.0112 8.00727C12.2347 8.00727 13.4581 8.12197 14.6434 8.31313C15.8286 8.5043 16.9756 8.88663 18.0079 9.38367L18.1991 9.46013L18.2755 9.6513C19.002 11.4865 19.3843 13.4364 19.3843 15.4628ZM9.21423 12.0218L7.5702 27.7357C8.52603 27.2004 9.32893 26.5122 9.9789 25.6711C10.82 24.5623 11.4318 23.3006 11.8141 21.9242C12.2347 20.5096 12.4258 19.0949 12.4258 17.7185C12.4258 16.1892 12.2347 14.851 11.7759 13.6276C11.6229 13.2452 11.47 12.9011 11.2788 12.5953C11.0494 12.4041 10.7053 12.2512 10.4759 12.5953C10.1318 13.0923 9.8642 12.9011 9.6348 12.3276C9.5201 12.0982 9.36717 12.0218 9.21423 12.0218ZM35.836 20.4331C36.3713 21.6948 36.6007 23.1477 36.6007 24.7152C36.6007 26.2828 36.3713 27.621 35.9507 28.7297C35.4919 29.8385 34.6508 30.7179 33.4655 31.2914C32.5479 31.7502 31.3627 32.0178 29.8716 32.0943C29.604 32.3237 29.1452 32.6678 28.5717 32.4766C27.7305 32.209 27.807 32.8589 28.0746 34.0442C28.304 35.2294 27.6541 35.3059 27.2717 34.8088C26.8894 34.3118 27.6541 32.8589 27.1953 32.3619C26.7365 31.9031 26.163 32.3237 25.7806 32.5531C25.4365 32.7442 25.1307 32.0178 24.0601 31.8649C23.3337 31.7884 23.0278 31.1767 22.8749 30.8326C22.4543 30.6032 22.072 30.3355 21.7661 30.0679L21.6132 29.9532L21.575 29.762C21.3838 28.8827 21.2691 28.0033 21.1926 27.1622C21.1162 26.321 21.0779 25.4799 21.0779 24.7152C21.0779 23.1094 21.3073 21.6183 21.7661 20.2419C22.2249 18.8655 22.7984 17.6421 23.5249 16.5715C24.2131 15.5392 24.9395 14.6599 25.6659 13.9334C26.3924 13.2452 27.0423 12.7482 27.5776 12.4806L27.807 12.3659L28.0746 12.4806C29.0687 13.0158 30.101 13.6276 31.0951 14.3922C32.0891 15.1187 33.0067 16.0363 33.8479 17.0303C34.6508 18.0244 35.339 19.1714 35.836 20.4331ZM29.0687 23.6829C28.5717 23.5682 28.954 22.4977 28.9158 21.7713C28.8393 21.0448 28.304 21.3507 28.0364 22.0389C27.8835 22.4595 27.4247 22.4977 27.0041 22.5359C26.5835 23.2241 26.2012 23.9123 25.8953 24.6388C25.4748 25.7858 25.2071 26.9328 25.1307 28.0415C25.7042 28.118 26.3159 28.1562 26.9659 28.1562C27.7688 28.1562 28.5717 28.118 29.4128 28.0033C30.101 27.8886 30.7127 27.7739 31.248 27.5827C31.4009 27.0092 31.5156 26.3975 31.5921 25.824C31.6686 25.1358 31.7068 24.4858 31.7068 23.7976C31.7068 22.0771 31.4009 20.4713 30.751 18.9802C30.751 19.2096 30.7127 19.439 30.7127 19.592C30.751 20.3184 30.6745 20.1272 30.0628 20.3184C29.4893 20.5478 29.5275 21.5801 29.6804 22.4595C29.7951 23.3388 29.604 23.8359 29.0687 23.6829ZM56.5304 27.621C56.6068 28.8444 56.6068 29.915 56.6068 30.7943V31.2914L54.8099 31.4443C54.2364 32.2472 54.0452 33.0883 54.1599 33.7765C54.2746 34.5412 53.8923 35.0765 53.4335 34.6559C52.9364 34.2353 53.854 32.706 53.2805 32.3619C52.7453 31.9796 52.1718 32.1325 51.8277 32.4001C51.5218 32.706 51.2542 34.1206 50.9101 32.3619C50.8718 32.1325 50.7954 31.9413 50.6807 31.7884L49.5719 31.8649V31.2914C49.5719 29.1885 49.5719 27.3151 49.5337 25.7475C49.4572 24.18 49.419 22.7271 49.3425 21.4654C49.3043 20.7772 49.266 20.1272 49.1896 19.4773C49.1131 19.5155 48.9602 19.5155 48.7308 19.592C48.1573 19.7831 48.2337 20.8537 48.3484 21.733C48.4631 22.5742 48.272 23.0712 47.7749 22.9565C47.2397 22.8418 47.622 21.7713 47.5838 21.0448C47.5073 20.3184 46.972 20.586 46.7044 21.3125C46.6279 21.4654 46.5515 21.5419 46.4368 21.6183C46.0927 22.4212 45.7486 23.3771 45.4427 24.4858C44.9839 26.1299 44.5633 28.3474 44.2575 31.062L44.181 31.4825L43.9134 31.5208C43.8751 31.7502 43.7222 32.1325 43.5693 32.4766C43.3399 32.9736 43.1105 32.6678 42.8046 32.4001C42.4987 32.0943 42.2311 32.5531 42.2693 33.0501C42.3076 33.5089 42.4605 34.4647 42.2311 34.6559C41.9635 34.8471 41.6576 34.6941 41.7341 33.9295C41.7723 33.203 41.9252 32.0178 41.4282 32.1707C41.0841 32.2472 40.7018 32.0178 40.5106 31.8266L39.9371 31.8649L38.1784 14.4305L46.4368 13.1688L45.9015 17.4891C46.5515 16.4186 47.2397 15.501 48.0043 14.7746C49.2278 13.5511 50.5277 12.9394 51.9041 12.9394C52.3629 12.9394 52.86 13.0158 53.3188 13.1688L53.4335 13.2452L53.5482 13.3599C54.0834 14.0099 54.5422 14.9275 54.9246 16.0363C55.3069 17.145 55.5745 18.3685 55.8039 19.6684C56.0333 21.0066 56.1863 22.3448 56.301 23.7212C56.4157 25.0593 56.4921 26.3975 56.5304 27.621ZM54.3639 0.819398L61.1312 0.245898L59.9078 12.2129H59.6019C59.6019 12.6335 59.5637 13.0541 59.296 13.3217C58.6843 13.8952 57.9579 12.8247 57.8049 13.4364C57.652 14.0481 58.3784 15.7304 57.7667 15.8069C57.1932 15.8833 57.3844 15.3863 57.3844 14.0099C57.3844 12.8629 56.8109 12.8629 56.2756 12.3659H55.9697L54.3639 0.819398ZM72.8124 13.8952L76.024 13.7423L75.8711 16.9921L74.2653 17.1833C74.227 17.298 74.1506 17.3744 74.0741 17.4127C73.4624 17.6038 73.5388 18.6744 73.6535 19.5155C73.7682 20.3949 73.5771 20.8919 73.08 20.7772C72.5448 20.6625 72.9653 19.592 72.8889 18.8655C72.8506 18.2538 72.4683 18.3303 72.1624 18.7891L70.5949 31.4825L70.2508 31.5208C70.1743 31.7502 70.0596 32.056 69.9449 32.3237C69.7155 32.8589 69.4861 32.5531 69.1802 32.2472C68.8744 31.9413 68.6067 32.4384 68.645 32.8972C68.7214 33.3942 68.8361 34.3118 68.6067 34.503C68.3773 34.7324 68.0332 34.5794 68.1097 33.8148C68.1862 33.0501 68.3391 31.9031 67.8038 32.0178C67.5362 32.0943 67.2686 31.9413 67.0392 31.8266L66.3892 31.8649L64.9746 18.5214L61.8777 18.9802L61.6483 14.4305L64.5158 14.3158L64.0187 9.72777L73.4624 8.46607L72.8124 13.8952ZM105.382 19.7831C105.573 21.1213 105.687 22.5359 105.687 23.9506C105.687 25.6711 105.458 27.1622 104.999 28.3474C104.617 29.3032 104.005 30.0679 103.164 30.6796C103.049 30.8708 102.896 31.1002 102.782 31.4061C102.438 32.2854 101.52 32.6678 101.176 32.4766C100.794 32.2472 100.22 31.7884 99.7612 32.2854C99.3024 32.7442 100.067 34.2353 99.6848 34.7324C99.3024 35.2294 98.6142 35.1529 98.8819 33.9677C99.1495 32.7442 99.226 32.0943 98.3848 32.4001C97.6966 32.6295 97.4672 32.2472 97.3908 32.1325C97.2761 32.1325 97.1614 32.1325 97.0467 32.1325C96.8555 32.1325 96.7026 32.0943 96.5114 32.0943C96.3585 32.1707 96.1673 32.2854 96.0526 32.4766C95.7467 32.8972 95.4791 32.5148 95.135 32.2854C94.7527 32.056 94.3703 31.9796 94.3321 32.3237C94.2556 32.6678 94.7144 33.8912 94.2556 34.1206C93.8351 34.3118 93.6057 33.6618 93.7204 33.0501C93.8351 32.4766 93.988 31.8649 93.4145 31.7119C93.3763 31.7119 93.338 31.6737 93.2616 31.6737H93.2233C91.9999 31.4061 90.7764 30.9473 89.5529 30.3355L89.2853 30.2208L87.6795 7.73963L95.8997 6.47793L94.8674 18.2156C95.5173 16.9539 96.282 15.8833 97.0849 15.004C98.3848 13.6658 99.7995 12.9394 101.291 12.9394C101.749 12.9394 102.208 13.0158 102.667 13.1688L102.82 13.2452L102.896 13.3599C103.47 14.0481 103.967 14.9657 104.387 16.0745C104.808 17.1833 105.152 18.445 105.382 19.7831ZM95.0203 23.7594C94.5997 25.0976 94.2174 26.8181 93.9498 28.8827C94.3321 28.9209 94.7909 28.9209 95.2115 28.9209C95.9379 28.9209 96.5879 28.8827 97.1614 28.8444C97.6584 28.8062 98.1172 28.7297 98.6142 28.615C98.6907 28.118 98.8054 27.5063 98.8819 26.8563C98.9966 26.0534 99.0348 24.9446 99.0348 23.6447C99.0348 22.9183 98.9966 22.1154 98.9583 21.3125C98.8819 20.6243 98.8054 19.9743 98.7289 19.4008C98.6525 19.4008 98.5378 19.439 98.3466 19.5155C97.7731 19.7067 97.8113 20.739 97.9643 21.6183C98.079 22.4977 97.8878 22.9947 97.3525 22.88C96.8555 22.7271 97.2378 21.6948 97.1996 20.9301C97.1231 20.2037 96.5879 20.5096 96.3202 21.1978C96.2438 21.3889 96.0908 21.4654 95.8997 21.4272C95.5938 22.0771 95.2879 22.8418 95.0203 23.7594ZM120.591 27.1239L121.088 26.9328L122.426 31.1767L121.929 31.3296C121.432 31.4825 120.974 31.5972 120.477 31.7119C120.324 32.0178 119.827 32.7825 119.1 32.706C118.221 32.5913 118.45 33.5854 118.565 34.3118C118.68 35.0765 118.335 35.6117 117.838 35.1912C117.38 34.7706 118.259 33.2413 117.724 32.8972C117.188 32.5148 116.577 32.6678 116.271 32.9354C115.965 33.203 115.659 34.6559 115.353 32.8589C115.277 32.5531 115.124 32.2854 114.971 32.0943C113.747 32.0178 112.639 31.8649 111.645 31.6355C110.23 31.3296 109.045 30.7943 108.127 30.0679L107.974 29.9532L107.936 29.762C107.707 28.8444 107.592 28.0033 107.515 27.2769C107.439 26.5504 107.401 25.8622 107.401 25.2123C107.401 23.1859 107.707 21.3125 108.318 19.6302C108.93 17.9479 109.771 16.4568 110.727 15.2716C111.721 14.0099 112.753 13.0923 113.824 12.4806L114.053 12.3659L114.283 12.4806C115.2 12.8247 116.156 13.2452 117.112 13.7423C118.068 14.2775 118.985 14.8893 119.788 15.5775C120.629 16.2657 121.318 17.0686 121.853 17.9479C122.388 18.8273 122.656 19.8596 122.656 20.9301C122.656 22.0389 122.426 22.9947 122.044 23.7594C121.624 24.6005 120.859 25.2123 119.788 25.5946C118.756 25.9769 117.38 26.1681 115.506 26.1681C114.742 26.1681 113.977 26.1299 113.289 26.0534C112.753 26.0152 112.295 25.9387 111.874 25.8622C111.645 26.5887 111.492 27.2769 111.453 28.0415C111.798 28.0798 112.18 28.0798 112.6 28.118C113.174 28.1562 113.747 28.1562 114.283 28.1562C115.277 28.1562 116.309 28.0798 117.38 27.9268C118.45 27.7739 119.521 27.5063 120.591 27.1239ZM115.736 23.1094C115.468 22.8036 115.774 21.9242 115.697 21.2742C115.659 20.5478 115.086 20.8154 114.818 21.5419C114.742 21.8095 114.512 21.8095 114.206 21.733C113.824 22.1918 113.442 22.6889 113.136 23.2241H113.595C114.283 23.2241 115.009 23.1859 115.736 23.1094ZM116.462 21.9624C116.538 22.4595 116.5 22.8418 116.386 23.033C116.921 22.9947 117.418 22.9183 117.877 22.8418C117.877 22.5359 117.915 22.2683 117.915 22.0389C117.915 21.2742 117.8 20.6243 117.609 20.0508C117.571 19.8978 117.533 19.7831 117.456 19.6302C117.38 19.7067 117.188 19.7067 116.883 19.8214C116.309 20.0508 116.347 21.0831 116.462 21.9624ZM11.3935 53.2657C11.1641 53.3804 10.973 53.5333 10.82 53.648C10.7818 53.9921 10.7436 54.3744 10.7436 54.6038C10.7818 55.3303 10.6671 55.1391 10.0936 55.3303C9.48187 55.5597 9.55833 56.592 9.67303 57.4713C9.78773 58.3507 9.6348 58.8095 9.09953 58.6948C8.56427 58.5801 8.98483 57.5096 8.90837 56.7831C8.87013 56.0567 8.29663 56.3626 8.029 57.0508C7.99077 57.2802 7.95253 57.5096 7.95253 57.739C7.95253 58.3125 8.10547 58.8477 8.33487 59.3448C8.64073 59.88 8.98483 60.4153 9.36717 60.9506C9.78773 61.4858 10.1701 62.0593 10.4759 62.6711C10.7818 63.2828 10.973 63.971 10.973 64.6974C10.973 65.3474 10.8583 65.9591 10.7053 66.5709C10.6289 67.0297 10.5524 67.6796 10.5524 68.062C10.5906 68.7884 10.4759 68.5972 9.90243 68.7884C9.32893 69.0178 9.36717 70.0501 9.48187 70.9295C9.6348 71.8088 9.44363 72.2676 8.90837 72.1529C8.41133 72.0382 8.79367 70.9677 8.75543 70.2413C8.67897 69.5148 8.10547 69.8207 7.83783 70.5089C7.6849 71.0059 7.03493 70.9677 6.46143 71.0442C5.92617 71.35 5.31443 71.6177 4.66447 71.8471L4.28213 72L2.21753 69.2472L2.7528 68.9413C3.70863 68.4061 4.3586 67.909 4.66447 67.4885C4.97033 67.1061 5.08503 66.6856 5.08503 66.265C5.08503 65.768 4.97033 65.3474 4.74093 64.8886C4.43507 64.3916 4.09097 63.8563 3.6704 63.3593C3.2116 62.824 2.7528 62.2123 2.33223 61.6005C1.87343 60.9888 1.45287 60.2624 1.147 59.4977C0.841133 58.733 0.6882 57.8537 0.6882 56.8978C0.6882 55.1773 1.10877 53.6098 2.02637 52.2716C2.8675 50.9717 4.0145 49.7864 5.35267 48.7541L5.65853 48.5247L12.0817 52.8069L11.3935 53.2657ZM26.1546 63.8945L27.4928 68.1767L26.9957 68.3296C26.384 68.5208 25.7723 68.6737 25.1605 68.8266C24.74 69.0178 24.8547 69.5531 24.9694 70.0883C25.1223 70.7383 24.8929 71.35 24.4341 71.1589C24.0135 70.9677 24.4341 69.706 24.3959 69.3619C24.3194 69.056 23.9753 69.1325 23.593 69.3619C23.2106 69.5913 22.9812 69.9736 22.6371 69.5148C22.4842 69.3237 22.293 69.1707 22.1019 69.1325C21.9872 69.1325 21.8342 69.1325 21.7195 69.1325C21.4901 69.1325 21.299 69.1325 21.0696 69.0943C20.9549 69.3237 20.5725 69.7825 19.9226 69.5531C19.0814 69.2854 19.1579 69.9354 19.4255 71.1206C19.6549 72.3059 19.005 72.3823 18.6226 71.8853C18.2403 71.3883 19.005 69.9354 18.5462 69.4384C18.0874 68.9796 17.4756 69.4384 17.1315 69.6295C16.7492 69.8207 15.8698 69.4384 15.5257 68.559C15.3346 68.1384 15.1434 67.8326 14.9522 67.6032C14.6464 67.412 14.3787 67.2591 14.1493 67.0297L13.9964 66.915L13.9582 66.7238C13.767 65.8444 13.6523 65.0415 13.5758 64.2769C13.4994 63.5504 13.4611 62.8622 13.4611 62.2123C13.4611 60.1859 13.767 58.3125 14.417 56.592C15.0287 54.9097 15.8698 53.4568 16.8257 52.2334C17.8197 51.0099 18.852 50.0923 19.9226 49.4806L20.1902 49.3276L26.9193 53.7627L26.1546 54.1833C25.5429 54.4891 24.9694 54.8332 24.4341 55.2156C24.3959 55.4832 24.3576 55.7891 24.3576 56.0567C24.3959 56.7831 24.2812 56.592 23.7077 56.7831C23.1342 57.0125 23.1724 58.0448 23.2871 58.9242C23.44 59.8036 23.2489 60.2624 22.7136 60.1477C22.2166 60.033 22.5989 58.9624 22.5607 58.236C22.4842 57.5096 21.9489 57.7772 21.6431 58.5036C21.4901 58.9242 20.9931 58.6566 20.4961 58.5036C20.2284 58.7713 19.999 59.0389 19.8079 59.3065C18.3932 61.1417 17.5903 63.0534 17.5139 65.0415C18.2403 65.118 19.0432 65.1562 19.8461 65.1562C20.7637 65.1562 21.7195 65.0798 22.7136 64.9268C23.6694 64.7739 24.6635 64.5063 25.6193 64.1239L26.1546 63.8945ZM44.5962 53.4186C45.3609 54.4891 45.705 55.9038 45.705 57.6243C45.705 57.8154 45.705 58.0448 45.705 58.3125C45.6667 58.6183 45.6667 58.8095 45.6285 58.9242L44.6727 68.4825L43.8315 68.559C43.7551 68.8266 43.8315 69.1707 43.908 69.5148C44.0227 70.1266 43.7933 70.7383 43.3727 70.5471C42.9139 70.356 43.3727 69.0943 43.2963 68.7502C43.2963 68.7119 43.258 68.6355 43.2198 68.6355L42.6463 68.6737C42.6081 68.6737 42.5698 68.7119 42.5316 68.7502C42.1493 68.9796 41.9199 69.3619 41.5758 68.9413C41.5375 68.8649 41.4993 68.8266 41.4611 68.7884L40.4288 68.8649L40.0082 64.8504C39.32 65.9591 38.4406 66.8767 37.4083 67.6032C37.3701 67.6414 37.3319 67.6796 37.2936 67.6796C37.2172 67.7943 37.1789 67.8708 37.1407 67.9855C36.7966 68.8649 35.879 69.2472 35.5349 69.056C35.382 68.9796 35.1908 68.8266 34.9996 68.7502C34.6938 68.8266 34.3879 68.9031 34.0438 68.9796C33.7379 69.5148 34.3879 70.853 34.0438 71.3118C33.6615 71.8088 32.9733 71.7324 33.2409 70.5471C33.3938 69.8207 33.5085 69.2854 33.3556 69.056C33.0497 69.056 32.7821 69.0943 32.4762 69.0943H32.0557C31.9027 69.0943 31.7116 69.056 31.5586 69.056L31.4439 69.0178L31.3675 68.9796C30.5263 68.4061 29.8381 67.5649 29.3411 66.4562C28.8823 65.4239 28.6529 64.2769 28.6529 63.1299C28.6529 62.0976 28.8823 61.2564 29.3793 60.5682C29.8381 59.88 30.7175 59.3448 31.941 59.0389C33.0497 58.6948 34.6555 58.5419 36.6819 58.5419C37.1789 58.5419 37.7142 58.5801 38.2495 58.6183C38.6318 58.6183 39.0141 58.6566 39.3965 58.6948V58.6566C39.32 57.8919 38.9759 57.3566 38.3642 56.9361C37.8289 56.592 37.2172 56.3626 36.529 56.2861C36.2231 56.592 35.9937 56.3626 35.7261 56.2479C35.6114 56.2861 35.4967 56.2861 35.3437 56.2861C35.0379 56.5155 35.3055 57.1272 35.382 57.5096C35.4202 57.9684 34.9614 58.0831 34.8085 57.7007C34.6173 57.2802 35.0761 56.4773 34.732 56.439C34.3879 56.4008 34.235 56.6684 33.8909 57.089C33.585 57.5096 33.4703 57.9684 33.1262 57.6625C32.8968 57.4331 32.5527 57.3949 32.3615 57.3949L31.9792 57.6243L30.1822 51.6981L30.6028 51.5069C31.3675 51.2011 32.3615 50.9334 33.5085 50.6658C34.6938 50.4364 35.9172 50.3217 37.1407 50.3217C38.823 50.3217 40.2758 50.5511 41.5375 51.0481C42.8375 51.5452 43.8698 52.3481 44.5962 53.4186ZM36.2231 62.6711C36.1849 62.1358 36.1466 61.677 36.1084 61.2947C35.8025 61.2947 35.4967 61.3329 35.1526 61.4094C35.1143 61.5241 35.0761 61.677 34.9996 61.8299C34.9232 62.0593 34.8849 62.3652 34.8849 62.7475C34.8849 63.0534 34.9232 63.3975 35.0379 63.7798C35.1143 63.971 35.1526 64.1239 35.229 64.2386C35.4584 64.2004 35.7643 64.0857 36.0702 64.0092C36.0702 63.6269 36.2613 63.0534 36.2231 62.6711ZM36.6437 63.5887C36.6819 63.6651 36.6819 63.7416 36.6819 63.7798C37.2172 63.5887 37.7907 63.2446 38.2877 62.7858C38.7083 62.4034 39.0524 61.9064 39.3582 61.2182C39.32 61.2182 39.2818 61.2182 39.2435 61.2182C38.9759 61.2182 38.67 61.2182 38.3642 61.2182C37.7907 61.2182 37.2554 61.2182 36.7584 61.2564C36.8731 61.6388 36.8731 62.174 36.7201 62.327C36.4143 62.5946 36.529 63.0534 36.6437 63.5887ZM61.5416 49.4806L62.1916 49.4423L61.1211 57.6625L60.6623 57.6243C60.4711 57.8154 60.0888 58.0448 59.7447 57.9684C59.2094 57.8154 59.3623 59.0007 59.4388 59.7653C59.63 61.4858 59.1712 61.677 58.9418 61.4858C58.7124 61.2564 58.8271 59.3448 58.9035 58.8477C58.9418 58.3889 58.6741 57.8919 58.3683 58.1978C58.0624 58.4654 57.833 58.7713 57.6036 58.2742C57.4889 58.0831 57.4124 57.8537 57.336 57.6243C57.0683 57.739 56.8007 57.8537 56.5713 58.0066C55.9978 58.3507 55.5008 59.0007 55.1184 59.9565C54.6979 60.9888 54.392 62.4417 54.1626 64.3151L53.6273 68.4825L53.2068 68.5208C53.1303 68.7502 53.0156 69.056 52.9009 69.3237C52.6715 69.8207 52.4421 69.5531 52.1362 69.2472C51.8304 68.9413 51.5627 69.4384 51.601 69.8972C51.6774 70.3942 51.7921 71.3118 51.5627 71.503C51.3333 71.7324 50.9892 71.5794 51.0657 70.8148C51.1422 70.0501 51.2951 68.9031 50.7598 69.0178C50.4922 69.0943 50.2246 68.9796 50.0334 68.8266L49.3834 68.8649L47.6247 51.4305L55.8831 50.1688L55.4243 53.8392C56.036 52.8833 56.7242 52.0422 57.4889 51.354C58.7124 50.2452 60.0888 49.6335 61.5416 49.4806ZM76.1226 64.1239L76.6196 63.9328L77.9578 68.1767L77.4607 68.3296C76.9637 68.4825 76.5049 68.5972 76.0079 68.7119C75.8549 69.0178 75.3579 69.7825 74.6315 69.706C73.7521 69.5913 73.9815 70.5854 74.0962 71.3118C74.2109 72.0765 73.8668 72.6117 73.3698 72.1912C72.911 71.7706 73.7903 70.2413 73.2551 69.8972C72.7198 69.5148 72.1081 69.6678 71.8022 69.9354C71.4963 70.203 71.1905 71.6559 70.8846 69.8589C70.8081 69.5531 70.6552 69.2854 70.5023 69.0943C69.2788 69.0178 68.17 68.8649 67.176 68.6355C65.7613 68.3296 64.5761 67.7943 63.6585 67.0679L63.5056 66.9532L63.4673 66.762C63.2379 65.8444 63.1232 65.0033 63.0468 64.2769C62.9703 63.5504 62.9321 62.8622 62.9321 62.2123C62.9321 60.1859 63.2379 58.3125 63.8497 56.6302C64.4614 54.9479 65.3025 53.4568 66.2584 52.2716C67.2524 51.0099 68.2847 50.0923 69.3553 49.4806L69.5847 49.3659L69.8141 49.4806C70.7317 49.8247 71.6875 50.2452 72.6433 50.7423C73.5992 51.2775 74.5168 51.8893 75.3197 52.5775C76.1608 53.2657 76.849 54.0686 77.3843 54.9479C77.9195 55.8273 78.1872 56.8596 78.1872 57.9301C78.1872 59.0389 77.9578 59.9947 77.5754 60.7594C77.1549 61.6005 76.3902 62.2123 75.3197 62.5946C74.2874 62.9769 72.911 63.1681 71.0375 63.1681C70.2729 63.1681 69.5082 63.1299 68.82 63.0534C68.2847 63.0152 67.8259 62.9387 67.4054 62.8622C67.176 63.5887 67.023 64.2769 66.9848 65.0415C67.3289 65.0798 67.7112 65.0798 68.1318 65.118C68.7053 65.1562 69.2788 65.1562 69.8141 65.1562C70.8081 65.1562 71.8404 65.0798 72.911 64.9268C73.9815 64.7739 75.052 64.5063 76.1226 64.1239ZM71.2669 60.1094C70.9993 59.8036 71.3052 58.9242 71.2287 58.2742C71.1905 57.5478 70.617 57.8154 70.3493 58.5419C70.2729 58.8095 70.0435 58.8095 69.7376 58.733C69.3553 59.1918 68.9729 59.6889 68.6671 60.2241H69.1259C69.8141 60.2241 70.5405 60.1859 71.2669 60.1094ZM71.9934 58.9624C72.0698 59.4595 72.0316 59.8418 71.9169 60.033C72.4522 59.9947 72.9492 59.9183 73.408 59.8418C73.408 59.5359 73.4462 59.2683 73.4462 59.0389C73.4462 58.2742 73.3315 57.6243 73.1404 57.0508C73.1021 56.8978 73.0639 56.7831 72.9874 56.6302C72.911 56.7067 72.7198 56.7067 72.4139 56.8214C71.8404 57.0508 71.8787 58.0831 71.9934 58.9624ZM90.9708 44.7396L99.191 43.4779L96.9735 68.4825L92.7296 68.8649L92.3472 64.1622C92.2708 64.2769 92.1943 64.3916 92.1561 64.5445C92.1561 64.5063 92.1561 64.5063 92.1561 64.5063C92.1561 64.5063 91.5443 65.9591 91.2767 67.7179C91.0473 69.4766 91.8502 70.5854 91.6973 71.503C91.5443 72.4206 90.4356 72.2294 90.665 70.8912C90.8944 69.5913 91.0473 68.0237 90.7032 67.7561C90.3209 67.4502 89.6327 67.9473 89.2886 68.7884C88.9445 69.5913 88.6768 70.0119 87.8739 69.4001C87.0328 68.8266 85.4652 69.0178 84.8153 69.6678C84.1653 70.3177 82.7889 68.6737 82.7889 68.6737C81.9478 67.7561 81.2213 66.4562 80.7243 64.7357C80.189 63.0534 79.9596 61.1417 79.9596 59.0389C79.9596 57.2802 80.1508 55.7891 80.6096 54.6038C81.0684 53.3804 81.8713 52.4245 82.9801 51.7746C84.0506 51.1628 85.5417 50.857 87.3387 50.857C88.2563 50.857 89.1356 50.9334 89.9385 51.1246C90.4738 51.2393 90.9708 51.3922 91.4296 51.5452L90.9708 44.7396ZM91.2002 60.4535C91.5826 59.3065 91.7737 57.8537 91.7737 56.1332C91.7737 55.9038 91.7737 55.6361 91.7737 55.4067C91.659 55.445 91.5443 55.4832 91.4296 55.5979C91.0855 55.942 91.0091 55.445 90.665 55.0244C90.3591 54.6421 90.1679 54.3362 89.8238 54.3744C89.4797 54.4509 89.9385 55.2156 89.7856 55.6361C89.5944 56.0567 89.1356 55.9038 89.1739 55.4832C89.2503 55.0244 89.5562 54.3744 89.1356 54.2215C88.7151 54.0303 88.4474 54.6803 87.9886 54.2215C87.9122 54.1068 87.8357 54.0303 87.7592 53.9921C87.4916 54.0303 87.2622 54.1068 87.0328 54.1833C86.9563 54.7568 86.8799 55.4067 86.7652 56.2479C86.6887 57.2037 86.6505 58.3507 86.6505 59.6506C86.6505 60.3771 86.6505 61.1417 86.7269 61.9829C86.8034 62.824 86.8799 63.5887 86.9946 64.2769C87.0328 64.621 87.071 64.9268 87.1475 65.1945C87.4151 65.0798 87.721 64.9268 88.0651 64.7357C88.6004 64.4298 89.1739 63.9328 89.7474 63.2446C90.3209 62.5564 90.8179 61.6005 91.2002 60.4535ZM106.424 60.6065L102.524 60.9888L101.454 45.8866L108.259 44.7014L109.444 46.4984L106.424 60.6065ZM104.589 61.677C105.583 61.677 106.424 62.0593 107.112 62.7475C107.839 63.474 108.183 64.3151 108.183 65.3092C108.183 66.265 107.839 67.1444 107.15 67.8326C106.997 67.9855 106.845 68.1002 106.692 68.2149C106.73 68.2149 106.73 68.2149 106.73 68.2149C106.73 68.2149 106.539 68.9031 106.309 69.4001C106.08 69.8972 105.85 69.5913 105.545 69.2854C105.239 69.0178 104.971 69.4766 105.009 69.9736C105.048 70.4324 105.201 71.3883 104.971 71.5794C104.703 71.7706 104.398 71.6177 104.436 70.853C104.512 70.0883 104.665 68.9413 104.168 69.0943C103.671 69.209 103.136 68.6355 103.059 68.559C102.715 68.4061 102.371 68.1767 102.027 67.8326C101.339 67.1444 100.995 66.265 100.995 65.3092C100.995 64.3151 101.339 63.474 102.027 62.7475C102.754 62.0593 103.595 61.677 104.589 61.677Z" fill="black"/>
</svg>
