<svg width="390" height="46" viewBox="0 0 390 46" fill="none" xmlns="http://www.w3.org/2000/svg">
<g filter="url(#filter0_ii_1_13180)">
<path d="M4.50905 4.07143L7.62444 1.41879C7.94193 1.14846 8.34529 1 8.76227 1L322.68 1.00005L380.23 1C380.652 1 381.059 1.15182 381.378 1.42768L384.942 4.5102L388.469 7.94238C388.808 8.27279 389 8.72645 389 9.20023V22.5V35.7904C389 36.2697 388.804 36.7281 388.458 37.0593L384.889 40.4694L381.4 43.927C381.07 44.2547 380.622 44.4376 380.157 44.4354L322.68 44.1663L9.22179 44.4382C8.79959 44.4386 8.39141 44.2867 8.07209 44.0105L4.50905 40.9286L0.53109 37.0576C0.191542 36.7272 0 36.2735 0 35.7998V26.0102V9.20023C0 8.72645 0.191543 8.27279 0.531091 7.94238L4.50905 4.07143Z" fill="url(#paint0_linear_1_13180)"/>
</g>
<path d="M8.27381 7.46936L10.9005 4.95629C11.2271 4.64379 11.6618 4.46936 12.1138 4.46936H165.451H377.877C378.329 4.46936 378.763 4.64378 379.09 4.95629L381.717 7.46936L384.311 9.95101C384.657 10.2821 384.852 10.7402 384.852 11.2192V22.4694V33.7195C384.852 34.1985 384.657 34.6566 384.311 34.9877L381.717 37.4694L379.09 39.9824C378.763 40.2949 378.329 40.4694 377.877 40.4694H323.708H12.1138C11.6618 40.4694 11.2271 40.2949 10.9005 39.9824L8.27381 37.4694L5.67997 34.9877C5.33391 34.6566 5.13818 34.1985 5.13818 33.7195V25.4694V11.2192C5.13818 10.7402 5.33391 10.2821 5.67997 9.95101L8.27381 7.46936Z" fill="url(#paint1_linear_1_13180)"/>
<g filter="url(#filter1_f_1_13180)">
<path d="M6.01798 35.3421L5.66927 35.7004L6.01798 35.3421C5.77516 35.1058 5.63818 34.7814 5.63818 34.4426V25.9694V11.3533C5.63818 11.0145 5.77516 10.69 6.01798 10.4538L8.64322 7.89913L11.2886 5.32496C11.5229 5.09694 11.8369 4.96936 12.1639 4.96936H233.789H378.744C379.071 4.96936 379.385 5.09694 379.62 5.32496L382.265 7.89913L384.89 10.4538C385.133 10.69 385.27 11.0144 385.27 11.3533V22.8979V34.4426C385.27 34.7814 385.133 35.1058 384.89 35.3421L382.265 37.8967L379.62 40.4709L379.968 40.8293L379.62 40.4709C379.385 40.6989 379.071 40.8265 378.744 40.8265H324.221H12.1639C11.8369 40.8265 11.5229 40.6989 11.2885 40.4709L8.64322 37.8967L6.01798 35.3421Z" stroke="#133B69"/>
</g>
<g filter="url(#filter2_d_1_13180)">
<path d="M173.659 14.28L175.959 14.16L175.179 26.12H175.139C175.119 26.22 175.039 26.48 174.939 26.68C174.819 26.94 174.699 26.78 174.539 26.64C174.379 26.48 174.239 26.74 174.259 26.98C174.279 27.24 174.359 27.72 174.239 27.82C174.099 27.92 173.939 27.86 173.979 27.46C173.999 27.06 174.079 26.44 173.819 26.52C173.679 26.56 173.519 26.48 173.419 26.4L173.219 26.44L168.819 19.16C168.819 19.18 168.799 19.18 168.799 19.2C168.579 19.36 168.739 20.06 168.779 20.62C168.839 21.2 168.619 21.4 168.399 21.24C168.159 21.1 168.279 20.54 168.299 19.9C168.319 19.5 168.079 19.42 167.919 19.4L167.959 26.14H167.859C167.739 26.24 167.439 26.44 167.159 26.38C166.799 26.3 166.919 26.9 166.959 27.3C167.019 27.7 166.779 27.78 166.619 27.68C166.459 27.58 166.539 27.08 166.579 26.84C166.619 26.58 166.359 26.3 166.299 26.58C166.259 26.86 165.919 26.92 165.919 26.58C165.919 26.46 165.899 26.36 165.879 26.24L165.659 26.26L166.139 14.36L170.799 14.08L173.499 21.82L173.659 14.28ZM183.842 23.88L184.102 23.78L184.802 26L184.542 26.08C184.282 26.16 184.042 26.22 183.782 26.28C183.702 26.44 183.442 26.84 183.062 26.8C182.602 26.74 182.722 27.26 182.782 27.64C182.842 28.04 182.662 28.32 182.402 28.1C182.162 27.88 182.622 27.08 182.342 26.9C182.062 26.7 181.742 26.78 181.582 26.92C181.422 27.06 181.262 27.82 181.102 26.88C181.062 26.72 180.982 26.58 180.902 26.48C180.262 26.44 179.682 26.36 179.162 26.24C178.422 26.08 177.802 25.8 177.322 25.42L177.242 25.36L177.222 25.26C177.102 24.78 177.042 24.34 177.002 23.96C176.962 23.58 176.942 23.22 176.942 22.88C176.942 21.82 177.102 20.84 177.422 19.96C177.742 19.08 178.182 18.3 178.682 17.68C179.202 17.02 179.742 16.54 180.302 16.22L180.422 16.16L180.542 16.22C181.022 16.4 181.522 16.62 182.022 16.88C182.522 17.16 183.002 17.48 183.422 17.84C183.862 18.2 184.222 18.62 184.502 19.08C184.782 19.54 184.922 20.08 184.922 20.64C184.922 21.22 184.802 21.72 184.602 22.12C184.382 22.56 183.982 22.88 183.422 23.08C182.882 23.28 182.162 23.38 181.182 23.38C180.782 23.38 180.382 23.36 180.022 23.32C179.742 23.3 179.502 23.26 179.282 23.22C179.162 23.6 179.082 23.96 179.062 24.36C179.242 24.38 179.442 24.38 179.662 24.4C179.962 24.42 180.262 24.42 180.542 24.42C181.062 24.42 181.602 24.38 182.162 24.3C182.722 24.22 183.282 24.08 183.842 23.88ZM181.302 21.78C181.162 21.62 181.322 21.16 181.282 20.82C181.262 20.44 180.962 20.58 180.822 20.96C180.782 21.1 180.662 21.1 180.502 21.06C180.302 21.3 180.102 21.56 179.942 21.84H180.182C180.542 21.84 180.922 21.82 181.302 21.78ZM181.682 21.18C181.722 21.44 181.702 21.64 181.642 21.74C181.922 21.72 182.182 21.68 182.422 21.64C182.422 21.48 182.442 21.34 182.442 21.22C182.442 20.82 182.382 20.48 182.282 20.18C182.262 20.1 182.242 20.04 182.202 19.96C182.162 20 182.062 20 181.902 20.06C181.602 20.18 181.622 20.72 181.682 21.18ZM191.93 21.38L194.87 26.02L194.29 26.1C194.17 26.3 193.97 26.56 193.65 26.6C193.09 26.68 192.93 27.08 192.75 26.96C192.55 26.86 192.25 26.62 192.01 26.88C191.77 27.12 192.17 27.88 191.97 28.16C191.75 28.42 191.41 28.38 191.55 27.74C191.69 27.12 191.71 26.78 191.27 26.92C190.83 27.08 190.53 26.48 190.53 26.48L189.25 23.62L187.83 26.5L185.65 25.98L188.41 21.78L188.39 21.76C188.13 21.64 187.85 21.62 187.75 21.38C187.61 21 187.33 20.84 187.29 21.24C187.27 21.62 187.47 22.18 187.21 22.24C186.93 22.3 186.83 22.04 186.89 21.58C186.97 21.14 186.99 20.58 186.69 20.48C186.37 20.36 186.57 19.6 186.59 19.22C186.59 19.1 186.55 18.8 186.51 18.48L185.81 17.28L190.15 16.66L191.15 19.4L192.51 16.66L194.69 17.18L191.93 21.38ZM200.998 16.96L202.678 16.88L202.598 18.58L201.758 18.68C201.738 18.74 201.698 18.78 201.658 18.8C201.338 18.9 201.378 19.46 201.438 19.9C201.498 20.36 201.398 20.62 201.138 20.56C200.858 20.5 201.078 19.94 201.038 19.56C201.018 19.24 200.818 19.28 200.658 19.52L199.838 26.16L199.658 26.18C199.618 26.3 199.558 26.46 199.498 26.6C199.378 26.88 199.258 26.72 199.098 26.56C198.938 26.4 198.798 26.66 198.818 26.9C198.858 27.16 198.918 27.64 198.798 27.74C198.678 27.86 198.498 27.78 198.538 27.38C198.578 26.98 198.658 26.38 198.378 26.44C198.238 26.48 198.098 26.4 197.978 26.34L197.638 26.36L196.898 19.38L195.278 19.62L195.158 17.24L196.658 17.18L196.398 14.78L201.338 14.12L200.998 16.96Z" fill="white"/>
</g>
<path d="M213.915 15.8L212.764 17L218.848 23L212.764 29L213.915 30.2L221.314 23L213.915 15.8Z" fill="white"/>
<defs>
<filter id="filter0_ii_1_13180" x="0" y="0.122449" width="389" height="45.1933" filterUnits="userSpaceOnUse" color-interpolation-filters="sRGB">
<feFlood flood-opacity="0" result="BackgroundImageFix"/>
<feBlend mode="normal" in="SourceGraphic" in2="BackgroundImageFix" result="shape"/>
<feColorMatrix in="SourceAlpha" type="matrix" values="0 0 0 0 0 0 0 0 0 0 0 0 0 0 0 0 0 0 127 0" result="hardAlpha"/>
<feOffset dy="0.877551"/>
<feGaussianBlur stdDeviation="0.570408"/>
<feComposite in2="hardAlpha" operator="arithmetic" k2="-1" k3="1"/>
<feColorMatrix type="matrix" values="0 0 0 0 1 0 0 0 0 1 0 0 0 0 1 0 0 0 0.46 0"/>
<feBlend mode="normal" in2="shape" result="effect1_innerShadow_1_13180"/>
<feColorMatrix in="SourceAlpha" type="matrix" values="0 0 0 0 0 0 0 0 0 0 0 0 0 0 0 0 0 0 127 0" result="hardAlpha"/>
<feOffset dy="-0.877551"/>
<feGaussianBlur stdDeviation="0.570408"/>
<feComposite in2="hardAlpha" operator="arithmetic" k2="-1" k3="1"/>
<feColorMatrix type="matrix" values="0 0 0 0 0 0 0 0 0 0 0 0 0 0 0 0 0 0 0.25 0"/>
<feBlend mode="normal" in2="effect1_innerShadow_1_13180" result="effect2_innerShadow_1_13180"/>
</filter>
<filter id="filter1_f_1_13180" x="1.13818" y="0.46936" width="388.632" height="44.8571" filterUnits="userSpaceOnUse" color-interpolation-filters="sRGB">
<feFlood flood-opacity="0" result="BackgroundImageFix"/>
<feBlend mode="normal" in="SourceGraphic" in2="BackgroundImageFix" result="shape"/>
<feGaussianBlur stdDeviation="2" result="effect1_foregroundBlur_1_13180"/>
</filter>
<filter id="filter2_d_1_13180" x="163.725" y="12.1462" width="40.8861" height="18.2075" filterUnits="userSpaceOnUse" color-interpolation-filters="sRGB">
<feFlood flood-opacity="0" result="BackgroundImageFix"/>
<feColorMatrix in="SourceAlpha" type="matrix" values="0 0 0 0 0 0 0 0 0 0 0 0 0 0 0 0 0 0 127 0" result="hardAlpha"/>
<feOffset/>
<feGaussianBlur stdDeviation="0.966878"/>
<feComposite in2="hardAlpha" operator="out"/>
<feColorMatrix type="matrix" values="0 0 0 0 0 0 0 0 0 0 0 0 0 0 0 0 0 0 0.25 0"/>
<feBlend mode="normal" in2="BackgroundImageFix" result="effect1_dropShadow_1_13180"/>
<feBlend mode="normal" in="SourceGraphic" in2="effect1_dropShadow_1_13180" result="shape"/>
</filter>
<linearGradient id="paint0_linear_1_13180" x1="68.0866" y1="55.4082" x2="68.3838" y2="-5.58233" gradientUnits="userSpaceOnUse">
<stop stop-color="#1A4270"/>
<stop offset="1" stop-color="#6EC2FF"/>
</linearGradient>
<linearGradient id="paint1_linear_1_13180" x1="68.9706" y1="40.4694" x2="68.1505" y2="4.46763" gradientUnits="userSpaceOnUse">
<stop stop-color="#183D68"/>
<stop offset="1" stop-color="#3079CE"/>
</linearGradient>
</defs>
</svg>
