<svg width="390" height="46" viewBox="0 0 390 46" fill="none" xmlns="http://www.w3.org/2000/svg">
<g filter="url(#filter0_ii_2033_54)">
<path d="M4.50905 4.07143L7.62444 1.41879C7.94193 1.14846 8.34529 1 8.76227 1L322.68 1.00005L380.23 1C380.652 1 381.059 1.15182 381.378 1.42768L384.942 4.5102L388.469 7.94238C388.808 8.27279 389 8.72645 389 9.20023V22.5V35.7904C389 36.2697 388.804 36.7281 388.458 37.0593L384.889 40.4694L381.4 43.927C381.07 44.2547 380.622 44.4376 380.157 44.4354L322.68 44.1663L9.22179 44.4382C8.79959 44.4386 8.39141 44.2867 8.07209 44.0105L4.50905 40.9286L0.53109 37.0576C0.191542 36.7272 0 36.2735 0 35.7998V26.0102V9.20023C0 8.72645 0.191543 8.27279 0.531091 7.94238L4.50905 4.07143Z" fill="url(#paint0_linear_2033_54)"/>
</g>
<path d="M8.27381 7.46936L10.9005 4.95629C11.2271 4.64379 11.6618 4.46936 12.1138 4.46936H165.451H377.877C378.329 4.46936 378.763 4.64378 379.09 4.95629L381.717 7.46936L384.311 9.95101C384.657 10.2821 384.852 10.7402 384.852 11.2192V22.4694V33.7195C384.852 34.1985 384.657 34.6566 384.311 34.9877L381.717 37.4694L379.09 39.9824C378.763 40.2949 378.329 40.4694 377.877 40.4694H323.708H12.1138C11.6618 40.4694 11.2271 40.2949 10.9005 39.9824L8.27381 37.4694L5.67997 34.9877C5.33391 34.6566 5.13818 34.1985 5.13818 33.7195V25.4694V11.2192C5.13818 10.7402 5.33391 10.2821 5.67997 9.95101L8.27381 7.46936Z" fill="url(#paint1_linear_2033_54)"/>
<g filter="url(#filter1_f_2033_54)">
<path d="M6.01798 35.3421L5.66927 35.7004L6.01798 35.3421C5.77516 35.1058 5.63818 34.7814 5.63818 34.4426V25.9694V11.3533C5.63818 11.0145 5.77516 10.69 6.01798 10.4538L8.64322 7.89913L11.2886 5.32496C11.5229 5.09694 11.8369 4.96936 12.1639 4.96936H233.789H378.744C379.071 4.96936 379.385 5.09694 379.62 5.32496L382.265 7.89913L384.89 10.4538C385.133 10.69 385.27 11.0144 385.27 11.3533V22.8979V34.4426C385.27 34.7814 385.133 35.1058 384.89 35.3421L382.265 37.8967L379.62 40.4709L379.968 40.8293L379.62 40.4709C379.385 40.6989 379.071 40.8265 378.744 40.8265H324.221H12.1639C11.8369 40.8265 11.5229 40.6989 11.2885 40.4709L8.64322 37.8967L6.01798 35.3421Z" stroke="#133B69"/>
</g>
<g filter="url(#filter2_d_2033_54)">
<path d="M155.868 15.88L155.508 16.12C155.468 16.14 155.428 16.16 155.388 16.18C155.408 16.3 155.428 16.44 155.428 16.58C155.448 16.96 155.388 16.84 155.088 16.96C154.788 17.06 154.808 17.6 154.868 18.06C154.928 18.52 154.848 18.78 154.568 18.72C154.308 18.64 154.508 18.1 154.468 17.7C154.448 17.32 154.148 17.48 154.008 17.84C153.948 18.04 153.768 18.1 153.588 18.16C153.528 18.34 153.488 18.52 153.488 18.72C153.488 19.06 153.568 19.38 153.728 19.66C153.908 20 154.108 20.3 154.308 20.62C154.548 20.94 154.748 21.28 154.928 21.6C155.148 21.96 155.248 22.36 155.248 22.78C155.248 23.76 154.888 24.6 154.208 25.28C153.568 25.94 152.688 26.48 151.608 26.92L151.408 27L150.248 25.44L150.528 25.28C151.088 24.96 151.448 24.68 151.628 24.42C151.808 24.18 151.888 23.94 151.888 23.7C151.888 23.4 151.828 23.14 151.668 22.88C151.508 22.58 151.308 22.28 151.068 21.98C150.808 21.68 150.548 21.34 150.288 20.98C150.008 20.6 149.788 20.2 149.608 19.76C149.408 19.3 149.328 18.8 149.328 18.26C149.328 17.24 149.588 16.34 150.108 15.58C150.608 14.84 151.248 14.16 152.028 13.54L152.188 13.42L155.868 15.88ZM162.458 17.26L166.798 16.58L165.618 26.16L165.438 26.18C165.398 26.3 165.338 26.48 165.258 26.62C165.138 26.88 165.018 26.72 164.858 26.58C164.698 26.42 164.558 26.68 164.578 26.92C164.618 27.16 164.678 27.66 164.558 27.76C164.438 27.86 164.258 27.78 164.298 27.4C164.338 27 164.418 26.38 164.138 26.46C163.998 26.5 163.838 26.42 163.718 26.34L163.398 26.36L163.118 23.64C163.038 23.8 162.958 23.96 162.878 24.1C162.838 24.36 162.778 24.76 162.798 24.98C162.798 25.36 162.758 25.26 162.438 25.36C162.138 25.48 162.178 26.02 162.238 26.48C162.298 26.94 162.198 27.18 161.938 27.12C161.658 27.06 161.858 26.5 161.838 26.12C161.798 25.74 161.518 25.88 161.378 26.26C161.238 26.6 160.298 26.4 160.098 26.36C159.778 26.44 159.458 26.48 159.098 26.48C159.018 26.48 158.878 26.46 158.698 26.42C158.518 26.4 158.378 26.36 158.278 26.3L158.238 26.28L158.198 26.24C157.898 25.88 157.658 25.42 157.478 24.84C157.278 24.28 157.118 23.66 156.998 22.98C156.898 22.32 156.798 21.62 156.738 20.92C156.678 20.24 156.638 19.56 156.618 18.94C156.598 18.3 156.598 17.76 156.598 17.28V17.02L160.638 16.72L160.618 17.06C160.518 17.96 160.438 18.78 160.378 19.48C160.318 20.18 160.298 20.86 160.298 21.48C160.298 22 160.318 22.52 160.358 23.04C160.398 23.46 160.438 23.94 160.518 24.44C160.838 24.32 161.118 24.16 161.358 23.92C161.658 23.62 161.918 23.26 162.118 22.82C162.318 22.38 162.478 21.9 162.558 21.4C162.658 20.9 162.698 20.42 162.698 19.94C162.698 19.84 162.698 19.74 162.678 19.6C162.678 19.48 162.658 19.26 162.638 18.94C162.598 18.62 162.558 18.14 162.498 17.52L162.458 17.26ZM176.692 20.04C176.792 20.74 176.852 21.48 176.852 22.22C176.852 23.12 176.732 23.9 176.492 24.52C176.292 25.02 175.972 25.42 175.532 25.74C175.472 25.84 175.392 25.96 175.332 26.12C175.152 26.58 174.672 26.78 174.492 26.68C174.292 26.56 173.992 26.32 173.752 26.58C173.512 26.82 173.912 27.6 173.712 27.86C173.512 28.12 173.152 28.08 173.292 27.46C173.432 26.82 173.472 26.48 173.032 26.64C172.672 26.76 172.552 26.56 172.512 26.5C172.452 26.5 172.392 26.5 172.332 26.5C172.232 26.5 172.152 26.48 172.052 26.48C171.972 26.52 171.872 26.58 171.812 26.68C171.652 26.9 171.512 26.7 171.332 26.58C171.132 26.46 170.932 26.42 170.912 26.6C170.872 26.78 171.112 27.42 170.872 27.54C170.652 27.64 170.532 27.3 170.592 26.98C170.652 26.68 170.732 26.36 170.432 26.28C170.412 26.28 170.392 26.26 170.352 26.26H170.332C169.692 26.12 169.052 25.88 168.412 25.56L168.272 25.5L167.432 13.74L171.732 13.08L171.192 19.22C171.532 18.56 171.932 18 172.352 17.54C173.032 16.84 173.772 16.46 174.552 16.46C174.792 16.46 175.032 16.5 175.272 16.58L175.352 16.62L175.392 16.68C175.692 17.04 175.952 17.52 176.172 18.1C176.392 18.68 176.572 19.34 176.692 20.04ZM171.272 22.12C171.052 22.82 170.852 23.72 170.712 24.8C170.912 24.82 171.152 24.82 171.372 24.82C171.752 24.82 172.092 24.8 172.392 24.78C172.652 24.76 172.892 24.72 173.152 24.66C173.192 24.4 173.252 24.08 173.292 23.74C173.352 23.32 173.372 22.74 173.372 22.06C173.372 21.68 173.352 21.26 173.332 20.84C173.292 20.48 173.252 20.14 173.212 19.84C173.172 19.84 173.112 19.86 173.012 19.9C172.712 20 172.732 20.54 172.812 21C172.872 21.46 172.772 21.72 172.492 21.66C172.232 21.58 172.432 21.04 172.412 20.64C172.372 20.26 172.092 20.42 171.952 20.78C171.912 20.88 171.832 20.92 171.732 20.9C171.572 21.24 171.412 21.64 171.272 22.12ZM192.089 25.9V26.16L190.909 26.22C190.929 26.44 190.949 26.66 190.969 26.86C191.029 27.44 190.809 27.64 190.589 27.5C190.369 27.34 190.449 26.84 190.489 26.24L188.409 26.36V26.06C188.409 24.94 188.389 23.96 188.389 23.16C188.369 22.34 188.329 21.6 188.289 20.92C188.269 20.36 188.229 19.82 188.189 19.26C188.109 19.32 188.009 19.4 187.929 19.46C187.709 19.66 187.469 20 187.229 20.46C186.989 20.94 186.749 21.62 186.529 22.48C186.309 23.36 186.109 24.52 185.949 25.94L185.929 26.16L185.749 26.18C185.689 26.32 185.609 26.56 185.609 26.78C185.609 27.12 185.289 27.08 185.229 26.78C185.189 26.5 184.929 26.8 184.949 27.04C184.989 27.28 185.089 27.78 184.929 27.88C184.749 27.98 184.529 27.9 184.569 27.52C184.629 27.12 184.729 26.5 184.369 26.58C184.089 26.64 183.769 26.42 183.669 26.34L183.389 26.36V26.06C183.389 24.94 183.389 23.96 183.369 23.16C183.349 22.34 183.309 21.6 183.269 20.9C183.249 20.38 183.209 19.82 183.169 19.28C183.089 19.34 183.029 19.4 182.949 19.46C182.729 19.66 182.489 19.98 182.269 20.38C182.029 20.78 181.809 21.34 181.589 22.04C181.389 22.74 181.209 23.62 181.089 24.68L180.909 26.16L180.789 26.18C180.689 26.26 180.469 26.42 180.269 26.38C180.009 26.3 180.089 26.9 180.129 27.3C180.169 27.7 179.989 27.78 179.869 27.68C179.729 27.58 179.809 27.08 179.829 26.84C179.869 26.58 179.709 26.34 179.549 26.48C179.389 26.64 179.289 26.8 179.149 26.54C179.109 26.44 179.049 26.38 178.989 26.34L178.689 26.36L177.769 17.24L182.089 16.58L181.869 18.46C182.149 18 182.429 17.64 182.749 17.32C183.329 16.76 183.949 16.46 184.609 16.46C184.849 16.46 185.109 16.5 185.329 16.58L185.409 16.62L185.469 16.68C185.729 17.02 185.969 17.46 186.169 18.02C186.289 18.38 186.389 18.76 186.489 19.18C186.829 18.46 187.249 17.86 187.709 17.4C188.309 16.78 188.949 16.46 189.629 16.46C189.869 16.46 190.109 16.5 190.349 16.58L190.429 16.62L190.469 16.68C190.769 17.02 191.009 17.5 191.209 18.1C191.389 18.68 191.549 19.32 191.669 20.02C191.769 20.72 191.869 21.44 191.929 22.16C191.989 22.88 192.029 23.58 192.049 24.24C192.069 24.88 192.089 25.44 192.089 25.9ZM196.581 16.72L197.421 16.58L196.241 26.16L196.021 26.18C195.981 26.22 195.921 26.3 195.861 26.4C195.741 26.66 195.481 26.62 195.241 26.46C194.981 26.3 194.821 26.72 194.901 27.2C195.001 27.7 194.761 27.9 194.581 27.7C194.381 27.52 194.561 27.18 194.541 26.74C194.541 26.48 194.421 26.38 194.301 26.34L194.021 26.36L193.101 17.26L196.161 16.78C196.101 16.56 196.101 16.3 196.001 16.08C195.721 16.24 195.421 16.32 195.081 16.32C194.561 16.32 194.121 16.14 193.741 15.76C193.381 15.4 193.181 14.94 193.181 14.44C193.181 13.92 193.381 13.48 193.741 13.1C194.121 12.72 194.561 12.54 195.081 12.54C195.581 12.54 196.041 12.72 196.401 13.1C196.781 13.48 196.961 13.92 196.961 14.44C196.961 14.8 196.861 15.16 196.661 15.46C196.601 15.74 196.561 16.12 196.581 16.42C196.601 16.54 196.601 16.64 196.581 16.72ZM203.737 16.96L205.417 16.88L205.337 18.58L204.497 18.68C204.477 18.74 204.437 18.78 204.397 18.8C204.077 18.9 204.117 19.46 204.177 19.9C204.237 20.36 204.137 20.62 203.877 20.56C203.597 20.5 203.817 19.94 203.777 19.56C203.757 19.24 203.557 19.28 203.397 19.52L202.577 26.16L202.397 26.18C202.357 26.3 202.297 26.46 202.237 26.6C202.117 26.88 201.997 26.72 201.837 26.56C201.677 26.4 201.537 26.66 201.557 26.9C201.597 27.16 201.657 27.64 201.537 27.74C201.417 27.86 201.237 27.78 201.277 27.38C201.317 26.98 201.397 26.38 201.117 26.44C200.977 26.48 200.837 26.4 200.717 26.34L200.377 26.36L199.637 19.38L198.017 19.62L197.897 17.24L199.397 17.18L199.137 14.78L204.077 14.12L203.737 16.96Z" fill="white"/>
</g>
<defs>
<filter id="filter0_ii_2033_54" x="0" y="0.122449" width="389" height="45.1933" filterUnits="userSpaceOnUse" color-interpolation-filters="sRGB">
<feFlood flood-opacity="0" result="BackgroundImageFix"/>
<feBlend mode="normal" in="SourceGraphic" in2="BackgroundImageFix" result="shape"/>
<feColorMatrix in="SourceAlpha" type="matrix" values="0 0 0 0 0 0 0 0 0 0 0 0 0 0 0 0 0 0 127 0" result="hardAlpha"/>
<feOffset dy="0.877551"/>
<feGaussianBlur stdDeviation="0.570408"/>
<feComposite in2="hardAlpha" operator="arithmetic" k2="-1" k3="1"/>
<feColorMatrix type="matrix" values="0 0 0 0 1 0 0 0 0 1 0 0 0 0 1 0 0 0 0.46 0"/>
<feBlend mode="normal" in2="shape" result="effect1_innerShadow_2033_54"/>
<feColorMatrix in="SourceAlpha" type="matrix" values="0 0 0 0 0 0 0 0 0 0 0 0 0 0 0 0 0 0 127 0" result="hardAlpha"/>
<feOffset dy="-0.877551"/>
<feGaussianBlur stdDeviation="0.570408"/>
<feComposite in2="hardAlpha" operator="arithmetic" k2="-1" k3="1"/>
<feColorMatrix type="matrix" values="0 0 0 0 0 0 0 0 0 0 0 0 0 0 0 0 0 0 0.25 0"/>
<feBlend mode="normal" in2="effect1_innerShadow_2033_54" result="effect2_innerShadow_2033_54"/>
</filter>
<filter id="filter1_f_2033_54" x="1.13818" y="0.46936" width="388.632" height="44.8571" filterUnits="userSpaceOnUse" color-interpolation-filters="sRGB">
<feFlood flood-opacity="0" result="BackgroundImageFix"/>
<feBlend mode="normal" in="SourceGraphic" in2="BackgroundImageFix" result="shape"/>
<feGaussianBlur stdDeviation="2" result="effect1_foregroundBlur_2033_54"/>
</filter>
<filter id="filter2_d_2033_54" x="147.394" y="10.6063" width="59.9566" height="19.4475" filterUnits="userSpaceOnUse" color-interpolation-filters="sRGB">
<feFlood flood-opacity="0" result="BackgroundImageFix"/>
<feColorMatrix in="SourceAlpha" type="matrix" values="0 0 0 0 0 0 0 0 0 0 0 0 0 0 0 0 0 0 127 0" result="hardAlpha"/>
<feOffset/>
<feGaussianBlur stdDeviation="0.966878"/>
<feComposite in2="hardAlpha" operator="out"/>
<feColorMatrix type="matrix" values="0 0 0 0 0 0 0 0 0 0 0 0 0 0 0 0 0 0 0.25 0"/>
<feBlend mode="normal" in2="BackgroundImageFix" result="effect1_dropShadow_2033_54"/>
<feBlend mode="normal" in="SourceGraphic" in2="effect1_dropShadow_2033_54" result="shape"/>
</filter>
<linearGradient id="paint0_linear_2033_54" x1="68.0866" y1="55.4082" x2="68.3838" y2="-5.58233" gradientUnits="userSpaceOnUse">
<stop stop-color="#1A4270"/>
<stop offset="1" stop-color="#6EC2FF"/>
</linearGradient>
<linearGradient id="paint1_linear_2033_54" x1="68.9706" y1="40.4694" x2="68.1505" y2="4.46763" gradientUnits="userSpaceOnUse">
<stop stop-color="#183D68"/>
<stop offset="1" stop-color="#3079CE"/>
</linearGradient>
</defs>
</svg>
